<svg width="178" height="134" viewBox="0 0 178 134" fill="none" xmlns="http://www.w3.org/2000/svg">
<path d="M164.854 105.644C164.853 111.048 162.825 116.252 159.178 120.213C155.531 124.174 150.533 126.598 145.187 127H24.9376C18.5231 126.993 12.3575 124.496 7.71957 120.029C3.08159 115.562 0.327103 109.466 0.027359 103.006C-0.272385 96.5459 1.90562 90.2176 6.10966 85.3331C10.3137 80.4487 16.2212 77.383 22.607 76.7719C22.9202 66.939 26.6159 57.522 33.0608 50.135C39.5057 42.748 48.2985 37.851 57.932 36.2833C67.5656 34.7156 77.44 36.5749 85.8629 41.5425C94.2858 46.51 100.733 54.2765 104.098 63.5108C107.785 61.6535 111.87 60.7451 115.99 60.8667C120.109 60.9884 124.135 62.1363 127.707 64.2081C131.28 66.2798 134.288 69.2109 136.463 72.7399C138.639 76.2688 139.914 80.2858 140.175 84.4325C141.314 84.2382 142.468 84.1413 143.623 84.1428C146.419 84.1449 149.186 84.7032 151.767 85.7856C154.349 86.8681 156.692 88.4534 158.665 90.4508C160.637 92.4483 162.199 94.8184 163.261 97.4255C164.323 100.033 164.864 102.825 164.854 105.644Z" fill="#007437"/>
<path d="M45.4767 93.2683C45.4767 90.4949 46.0767 88.0283 47.2767 85.8683C48.4767 83.6816 50.1434 81.9883 52.2767 80.7883C54.4367 79.5616 56.8767 78.9483 59.5967 78.9483C62.9301 78.9483 65.7834 79.8283 68.1567 81.5883C70.5301 83.3483 72.1167 85.7483 72.9167 88.7883H65.3967C64.8367 87.6149 64.0367 86.7216 62.9967 86.1083C61.9834 85.4949 60.8234 85.1883 59.5167 85.1883C57.4101 85.1883 55.7034 85.9216 54.3967 87.3883C53.0901 88.8549 52.4367 90.8149 52.4367 93.2683C52.4367 95.7216 53.0901 97.6816 54.3967 99.1483C55.7034 100.615 57.4101 101.348 59.5167 101.348C60.8234 101.348 61.9834 101.042 62.9967 100.428C64.0367 99.8149 64.8367 98.9216 65.3967 97.7483H72.9167C72.1167 100.788 70.5301 103.188 68.1567 104.948C65.7834 106.682 62.9301 107.548 59.5967 107.548C56.8767 107.548 54.4367 106.948 52.2767 105.748C50.1434 104.522 48.4767 102.828 47.2767 100.668C46.0767 98.5083 45.4767 96.0416 45.4767 93.2683ZM87.2655 107.668C85.0788 107.668 83.1055 107.202 81.3455 106.268C79.6122 105.335 78.2388 104.002 77.2255 102.268C76.2388 100.535 75.7455 98.5083 75.7455 96.1883C75.7455 93.8949 76.2522 91.8816 77.2655 90.1483C78.2788 88.3883 79.6655 87.0416 81.4255 86.1083C83.1855 85.1749 85.1588 84.7083 87.3455 84.7083C89.5322 84.7083 91.5055 85.1749 93.2655 86.1083C95.0255 87.0416 96.4122 88.3883 97.4255 90.1483C98.4388 91.8816 98.9455 93.8949 98.9455 96.1883C98.9455 98.4816 98.4255 100.508 97.3855 102.268C96.3722 104.002 94.9722 105.335 93.1855 106.268C91.4255 107.202 89.4522 107.668 87.2655 107.668ZM87.2655 101.748C88.5722 101.748 89.6788 101.268 90.5855 100.308C91.5188 99.3483 91.9855 97.9749 91.9855 96.1883C91.9855 94.4016 91.5322 93.0283 90.6255 92.0683C89.7455 91.1083 88.6522 90.6283 87.3455 90.6283C86.0122 90.6283 84.9055 91.1083 84.0255 92.0683C83.1455 93.0016 82.7055 94.3749 82.7055 96.1883C82.7055 97.9749 83.1322 99.3483 83.9855 100.308C84.8655 101.268 85.9588 101.748 87.2655 101.748Z" fill="#73BF44"/>
<path d="M102.411 105.284C102.728 105.032 102.873 104.916 102.845 104.934C103.759 104.178 104.478 103.558 105.001 103.072C105.533 102.587 105.981 102.078 106.345 101.546C106.709 101.014 106.891 100.496 106.891 99.9923C106.891 99.6096 106.802 99.3109 106.625 99.0963C106.447 98.8816 106.181 98.7743 105.827 98.7743C105.472 98.7743 105.192 98.9096 104.987 99.1803C104.791 99.4416 104.693 99.8149 104.693 100.3H102.383C102.401 99.5069 102.569 98.8443 102.887 98.3123C103.213 97.7803 103.638 97.3883 104.161 97.1363C104.693 96.8843 105.281 96.7583 105.925 96.7583C107.035 96.7583 107.871 97.0429 108.431 97.6123C109 98.1816 109.285 98.9236 109.285 99.8383C109.285 100.837 108.944 101.766 108.263 102.624C107.581 103.474 106.713 104.304 105.659 105.116H109.439V107.062H102.411V105.284Z" fill="#73BF44"/>
<path d="M177.518 30.4413C177.517 32.7948 176.63 35.0612 175.034 36.786C173.439 38.5108 171.252 39.5665 168.913 39.7416H116.304C113.498 39.7383 110.8 38.6513 108.771 36.7058C106.742 34.7603 105.537 32.1057 105.406 29.2925C105.275 26.4793 106.228 23.7234 108.067 21.5963C109.906 19.4692 112.491 18.1342 115.285 17.8681C115.422 13.586 117.038 9.48501 119.858 6.26809C122.678 3.05117 126.525 0.918608 130.739 0.235913C134.954 -0.446781 139.274 0.362907 142.959 2.5262C146.644 4.68949 149.464 8.07167 150.937 12.0931C152.55 11.2842 154.337 10.8886 156.14 10.9416C157.942 10.9946 159.703 11.4945 161.266 12.3967C162.829 13.2989 164.145 14.5754 165.097 16.1122C166.048 17.649 166.606 19.3983 166.721 21.2041C167.219 21.1195 167.724 21.0773 168.229 21.0779C169.452 21.0789 170.663 21.322 171.792 21.7934C172.921 22.2648 173.947 22.9552 174.81 23.825C175.673 24.6948 176.356 25.727 176.821 26.8624C177.285 27.9977 177.522 29.2139 177.518 30.4413Z" fill="#62C014"/>
</svg>
