<svg width="213" height="196" viewBox="0 0 213 196" fill="none" xmlns="http://www.w3.org/2000/svg">
<path d="M61.4649 4.04028H6.60352V87.5155H61.4649V4.04028Z" fill="#E0E0E0"/>
<path d="M59.6402 4.04028H4.77881V87.5155H59.6402V4.04028Z" fill="#EBEBEB"/>
<path d="M57.3033 5.73071H7.11621V85.8204H57.3033V5.73071Z" fill="white"/>
<path d="M47.5331 16.1382H16.6709V75.413H47.5331V16.1382Z" fill="#EBEBEB"/>
<path d="M16.6706 54.4264C16.5988 48.8881 22.0155 43.4819 27.9782 42.707C30.823 42.3416 33.845 42.8611 36.5031 41.8573C41.2445 40.0699 42.7579 34.2763 47.5185 32.5549L47.7388 75.3998H16.6706V54.4264Z" fill="#E0E0E0"/>
<path d="M204.933 0.249512V46.1849H133.161L130.575 0.570892L204.933 0.249512Z" fill="#E0E0E0"/>
<path d="M130.58 0.570988V46.0881L202.352 46.0881V0.570988L130.58 0.570988Z" fill="white"/>
<path d="M202.687 46.4006H130.234V0.275879H202.687V46.4006ZM130.919 45.7754H202.007V0.870212H130.919V45.7754Z" fill="#E0E0E0"/>
<path d="M194.574 6.22803H138.348V40.4352H194.574V6.22803Z" fill="white"/>
<path d="M194.574 6.22816H194.296H193.496H190.412L178.822 6.26778L138.348 6.34262L138.51 6.19294C138.51 16.6444 138.51 28.2053 138.51 40.3957L138.333 40.2328L194.56 40.2637L194.421 40.3957C194.449 29.9839 194.473 21.4651 194.493 15.5042C194.493 12.5369 194.521 10.2212 194.531 8.6231C194.531 7.83946 194.531 7.23632 194.531 6.81368C194.531 6.40425 194.531 6.18853 194.531 6.18853C194.531 6.18853 194.531 6.38665 194.531 6.78727C194.531 7.1879 194.531 7.79544 194.531 8.54826C194.531 10.1331 194.531 12.4444 194.564 15.4029C194.564 21.3639 194.607 29.9311 194.641 40.3737V40.5014H194.497L138.271 40.5366H138.094V40.3737C138.094 28.2009 138.094 16.6224 138.094 6.17092V6.02124H138.252L178.836 6.09608L190.383 6.13571H193.439H194.22C194.34 6.1585 194.458 6.1894 194.574 6.22816Z" fill="#E0E0E0"/>
<path d="M130.575 0.443359C131.019 0.639447 131.434 0.886488 131.811 1.17857C132.543 1.66725 133.544 2.35843 134.627 3.15088C135.709 3.94332 136.653 4.69615 137.323 5.25966C137.709 5.54038 138.053 5.86595 138.348 6.22821C138.286 6.29864 136.557 4.98671 134.402 3.40622C132.246 1.82574 130.513 0.518201 130.575 0.443359Z" fill="#E0E0E0"/>
<path d="M202.347 0.57105C202.409 0.641489 200.719 1.96663 198.573 3.52951C196.427 5.09239 194.636 6.29866 194.574 6.22822C194.512 6.15778 196.202 4.83264 198.353 3.26976C200.503 1.70689 202.285 0.50061 202.347 0.57105Z" fill="#E0E0E0"/>
<path d="M202.29 46.0969L194.287 40.1316L202.29 46.0969Z" fill="white"/>
<path d="M194.287 40.1316C194.349 40.0656 196.202 41.3423 198.401 42.9888C200.599 44.6353 202.352 46.0265 202.289 46.0969C202.227 46.1674 200.374 44.8863 198.18 43.2397C195.987 41.5932 194.229 40.202 194.287 40.1316Z" fill="#E0E0E0"/>
<path d="M130.575 46.0882C130.517 46.0178 132.189 44.7103 134.315 43.165C136.442 41.6197 138.209 40.4267 138.271 40.4971C138.333 40.5675 136.657 41.8751 134.535 43.4203C132.414 44.9656 130.637 46.1587 130.575 46.0882Z" fill="#E0E0E0"/>
<path d="M149.766 16.8824V28.3376L185.144 28.3376V16.8824H149.766Z" fill="#E0E0E0"/>
<path d="M96.0771 152.857C96.0771 150.863 97.739 149.419 99.9756 149.419C100.514 149.4 101.051 149.491 101.547 149.684C102.044 149.878 102.488 150.169 102.849 150.537L101.982 151.281C101.738 151.03 101.438 150.83 101.103 150.694C100.767 150.559 100.404 150.492 100.038 150.497C99.6924 150.483 99.3475 150.534 99.0239 150.646C98.7003 150.758 98.4047 150.929 98.1549 151.149C97.9052 151.369 97.7064 151.633 97.5707 151.925C97.4349 152.218 97.3649 152.532 97.3649 152.85C97.3649 153.168 97.4349 153.483 97.5707 153.775C97.7064 154.067 97.9052 154.331 98.1549 154.551C98.4047 154.771 98.7003 154.942 99.0239 155.054C99.3475 155.166 99.6924 155.217 100.038 155.203C100.406 155.209 100.77 155.141 101.106 155.003C101.442 154.865 101.741 154.662 101.982 154.407L102.859 155.173C102.497 155.54 102.053 155.831 101.557 156.024C101.06 156.217 100.524 156.308 99.9852 156.291C97.7247 156.3 96.0771 154.856 96.0771 152.857Z" fill="#EBEBEB"/>
<path d="M88.6871 158.1H79.6641V149.806H88.6871V158.1ZM80.143 157.66H88.2082V150.246H80.143V157.66Z" fill="#EBEBEB"/>
<path d="M77.9448 159.826C77.6766 159.641 79.8318 156.665 83.1508 153.508C86.4698 150.352 89.6212 148.256 89.8558 148.494C90.0905 148.732 87.3319 151.188 84.0704 154.305C80.8089 157.422 78.2226 160.028 77.9448 159.826Z" fill="#E0E0E0"/>
<path d="M89.9805 159.645C89.6884 159.839 87.2266 157.088 83.9747 153.896C80.7228 150.704 77.9067 148.256 78.1318 148.001C78.3569 147.746 81.5753 149.85 84.8847 153.112C88.1941 156.374 90.2535 159.487 89.9805 159.645Z" fill="#E0E0E0"/>
<path d="M28.2798 125.804L23.8497 125.513L22.8296 127.344L21.1294 127.234L25.7511 119.341L27.3698 119.446L30.7224 127.86L28.9982 127.75L28.2798 125.804ZM27.8296 124.58L26.4359 120.904L24.5202 124.36L27.8296 124.58Z" fill="#EBEBEB"/>
<path d="M13.8118 127.679L2.9209 126.97L3.69676 116.941L14.5828 117.655L13.8118 127.679ZM3.43335 126.561L13.3664 127.212L14.0704 118.077L4.13738 117.43L3.43335 126.561Z" fill="#EBEBEB"/>
<path d="M0.607444 128.978C0.358401 128.78 3.30382 125.368 7.63813 121.793C11.9724 118.218 15.9667 115.872 16.1583 116.118C16.3499 116.365 12.7435 119.103 8.49542 122.643C4.24731 126.182 0.870855 129.198 0.607444 128.978Z" fill="#E0E0E0"/>
<path d="M15.2865 129.735C14.98 129.911 12.2884 126.323 8.61503 122.171C4.94164 118.02 1.69928 114.846 1.93875 114.604C2.17821 114.362 5.85639 117.219 9.60163 121.449C13.3469 125.68 15.5691 129.581 15.2865 129.735Z" fill="#E0E0E0"/>
<path d="M212.022 82.2545C212.438 83.6016 211.543 84.689 209.33 85.2614L205.077 86.3664L202.683 78.5036L206.691 77.4602C208.741 76.9275 210.087 77.4602 210.47 78.6841C210.593 79.0349 210.605 79.4105 210.505 79.7674C210.405 80.1242 210.197 80.4477 209.905 80.7004C210.397 80.7026 210.873 80.8572 211.257 81.1392C211.641 81.4213 211.911 81.8142 212.022 82.2545ZM204.598 79.2344L205.269 81.4048L207.515 80.8193C208.617 80.5331 209.129 80.0092 208.909 79.2916C208.688 78.574 207.951 78.3627 206.849 78.6488L204.598 79.2344ZM210.379 82.523C210.135 81.7394 209.378 81.5589 208.181 81.8715L205.618 82.5406L206.313 84.8079L208.88 84.1387C210.077 83.8262 210.619 83.3111 210.379 82.523Z" fill="#EBEBEB"/>
<path d="M186.643 92.1246L183.668 82.47L194.171 79.7361L197.146 89.3907L186.643 92.1246ZM184.248 82.7738L186.959 91.5787L196.537 89.0825L193.822 80.2776L184.248 82.7738Z" fill="#EBEBEB"/>
<path d="M185.211 94.7399C184.9 94.6254 186.409 90.5003 189.162 85.7809C191.916 81.0614 194.809 77.6099 195.077 77.786C195.345 77.9621 192.97 81.6558 190.288 86.3224C187.606 90.989 185.537 94.8632 185.211 94.7399Z" fill="#E0E0E0"/>
<path d="M199.296 90.8614C199.071 91.1212 195.216 88.5897 190.225 85.8338C185.235 83.0778 181.011 81.1011 181.154 80.7974C181.298 80.4936 185.81 82.0345 190.867 84.852C195.925 87.6696 199.507 90.6281 199.296 90.8614Z" fill="#E0E0E0"/>
<path d="M210.872 177.696C210.872 177.757 163.865 177.81 105.9 177.81C47.9354 177.81 0.914062 177.735 0.914062 177.696C0.914062 177.656 47.9114 177.581 105.9 177.581C163.889 177.581 210.872 177.607 210.872 177.696Z" fill="black"/>
<path d="M149.162 21.9492H26.168V136.642H149.162V21.9492Z" fill="white"/>
<path d="M149.162 136.642C149.162 136.642 149.162 136.59 149.162 136.502C149.162 136.413 149.162 136.273 149.162 136.096C149.162 135.74 149.162 135.216 149.162 134.512C149.162 133.112 149.162 131.047 149.138 128.348C149.138 122.96 149.105 115.061 149.081 105.015C149.057 84.953 149.019 56.3017 148.971 21.9492L149.186 22.1473L26.2066 22.1782L26.4556 21.9492C26.4556 63.9796 26.4556 103.351 26.4221 136.638L26.2066 136.444L115.316 136.541L140.321 136.594L146.921 136.616H148.621H149.052H149.201H148.645H146.969L140.407 136.638L115.455 136.691L26.2066 136.788H25.991V136.59C25.991 103.302 25.991 63.9488 25.9575 21.9008V21.6719H26.2209L149.201 21.7027H149.421V21.9008C149.373 56.3061 149.335 84.997 149.311 105.107C149.282 115.136 149.263 123.017 149.253 128.397C149.253 131.073 149.253 133.129 149.224 134.52C149.224 135.207 149.224 135.731 149.224 136.083V136.475C149.211 136.533 149.19 136.589 149.162 136.642Z" fill="#263238"/>
<path d="M35.8234 40.6553V43.6974H35.2056V41.1307H34.5063V40.6553H35.8234Z" fill="black"/>
<path d="M36.4604 43.3671C36.4604 43.3203 36.4705 43.2739 36.49 43.2306C36.5095 43.1874 36.538 43.1481 36.5741 43.1149C36.6101 43.0818 36.6529 43.0556 36.6999 43.0376C36.747 43.0197 36.7974 43.0105 36.8484 43.0105C36.8993 43.0105 36.9498 43.0197 36.9968 43.0376C37.0439 43.0556 37.0867 43.0818 37.1227 43.1149C37.1587 43.1481 37.1873 43.1874 37.2068 43.2306C37.2263 43.2739 37.2363 43.3203 37.2363 43.3671C37.2363 43.4139 37.2263 43.4603 37.2068 43.5036C37.1873 43.5468 37.1587 43.5861 37.1227 43.6193C37.0867 43.6524 37.0439 43.6786 36.9968 43.6966C36.9498 43.7145 36.8993 43.7237 36.8484 43.7237C36.7974 43.7237 36.747 43.7145 36.6999 43.6966C36.6529 43.6786 36.6101 43.6524 36.5741 43.6193C36.538 43.5861 36.5095 43.5468 36.49 43.5036C36.4705 43.4603 36.4604 43.4139 36.4604 43.3671Z" fill="black"/>
<path d="M77.0639 28.359C77.0476 28.0324 77.1381 27.7087 77.3237 27.4297C77.5094 27.1507 77.7816 26.9292 78.1054 26.7937C78.4292 26.6582 78.7897 26.6149 79.1405 26.6694C79.4912 26.7239 79.8163 26.8736 80.0736 27.0994C80.331 27.3252 80.5089 27.6166 80.5845 27.9362C80.6602 28.2557 80.63 28.5888 80.4978 28.8924C80.3657 29.196 80.1377 29.4564 79.8432 29.6399C79.5487 29.8233 79.2013 29.9216 78.8455 29.9219C78.6153 29.9327 78.3851 29.9002 78.1691 29.8265C77.953 29.7527 77.7555 29.6392 77.5888 29.4929C77.422 29.3467 77.2895 29.1707 77.1992 28.9757C77.109 28.7807 77.0629 28.5709 77.0639 28.359ZM80.0093 28.359C80.0093 28.1475 79.941 27.9406 79.8131 27.7647C79.6853 27.5888 79.5035 27.4517 79.2909 27.3707C79.0782 27.2897 78.8442 27.2685 78.6184 27.3098C78.3927 27.3511 78.1853 27.453 78.0226 27.6026C77.8598 27.7522 77.749 27.9428 77.7041 28.1503C77.6591 28.3579 77.6822 28.573 77.7703 28.7684C77.8584 28.9639 78.0075 29.131 78.1989 29.2486C78.3903 29.3661 78.6153 29.4288 78.8455 29.4288C78.9992 29.4325 79.1521 29.4073 79.2948 29.3548C79.4375 29.3022 79.5671 29.2235 79.6756 29.1234C79.7841 29.0232 79.8692 28.9038 79.9258 28.7724C79.9823 28.641 80.0091 28.5003 80.0045 28.359H80.0093Z" fill="black"/>
<path d="M84.2194 26.8403V29.8824H83.7166L81.8918 27.8221V29.8824H81.2788V26.8403H81.7865L83.6112 28.8919V26.8403H84.2194Z" fill="black"/>
<path d="M85.1099 26.8403H85.7229V29.4026H87.4566V29.8824H85.1099V26.8403Z" fill="black"/>
<path d="M87.9404 26.8403H88.5535V29.8824H87.9404V26.8403Z" fill="black"/>
<path d="M92.3895 26.8403V29.8824H91.8818L90.0619 27.8221V29.8824H89.4536V26.8403H89.9613L91.7812 28.8919V26.8403H92.3895Z" fill="black"/>
<path d="M95.7615 29.407V29.8824H93.2759V26.8403H95.6705V27.3114H93.8937V28.1038H95.4933V28.5661H93.8937V29.407H95.7615Z" fill="black"/>
<path d="M98.4195 27.3158H97.3228V26.8403H100.12V27.3158H99.023V29.8824H98.4051L98.4195 27.3158Z" fill="black"/>
<path d="M103.079 29.407V29.8824H100.599V26.8403H102.993V27.3114H101.193V28.1038H102.787V28.5661H101.193V29.407H103.079Z" fill="black"/>
<path d="M103.472 29.561L103.688 29.1207C104.004 29.3365 104.386 29.4538 104.78 29.4553C105.297 29.4553 105.512 29.2836 105.512 29.0591C105.512 28.4031 103.544 28.8346 103.544 27.7031C103.544 27.2101 103.97 26.7962 104.88 26.7962C105.267 26.7897 105.649 26.8827 105.982 27.0648L105.785 27.505C105.511 27.3517 105.197 27.2681 104.875 27.2629C104.363 27.2629 104.157 27.4478 104.157 27.6767C104.157 28.3239 106.116 27.9012 106.116 29.0195C106.116 29.5081 105.685 29.9 104.78 29.9C104.315 29.9195 103.857 29.8006 103.472 29.561Z" fill="black"/>
<path d="M107.361 27.3158H106.264V26.8403H109.071V27.3158H107.974V29.8824H107.361V27.3158Z" fill="black"/>
<path d="M51.1491 54.0213H49.492L49.1664 54.7257H48.5342L50.0237 51.6836H50.6271L52.1214 54.7257H51.4796L51.1491 54.0213ZM50.9432 53.5811L50.3206 52.2603L49.7028 53.5811H50.9432Z" fill="black"/>
<path d="M34.4679 29.878C35.2111 29.878 35.8137 29.3241 35.8137 28.6409C35.8137 27.9577 35.2111 27.4038 34.4679 27.4038C33.7246 27.4038 33.1221 27.9577 33.1221 28.6409C33.1221 29.3241 33.7246 29.878 34.4679 29.878Z" fill="black"/>
<path d="M38.5435 29.878C39.2868 29.878 39.8893 29.3241 39.8893 28.6409C39.8893 27.9577 39.2868 27.4038 38.5435 27.4038C37.8003 27.4038 37.1978 27.9577 37.1978 28.6409C37.1978 29.3241 37.8003 29.878 38.5435 29.878Z" fill="black"/>
<path d="M42.6192 29.878C43.3625 29.878 43.965 29.3241 43.965 28.6409C43.965 27.9577 43.3625 27.4038 42.6192 27.4038C41.876 27.4038 41.2734 27.9577 41.2734 28.6409C41.2734 29.3241 41.876 29.878 42.6192 29.878Z" fill="black"/>
<path d="M149.162 34.7602C149.162 34.8219 121.767 34.8747 87.9786 34.8747C54.1901 34.8747 26.7905 34.8219 26.7905 34.7602C26.7905 34.6986 54.1805 34.6458 87.9786 34.6458C121.777 34.6458 149.162 34.6986 149.162 34.7602Z" fill="black"/>
<path d="M135.714 43.2658C135.714 43.3275 114.387 43.3803 88.0844 43.3803C61.7816 43.3803 40.4453 43.3275 40.4453 43.2658C40.4453 43.2042 61.7721 43.1514 88.0844 43.1514C114.397 43.1514 135.714 43.1998 135.714 43.2658Z" fill="black"/>
<path d="M77.2077 46.2417C77.2077 46.3033 69.0659 46.3561 59.0083 46.3561C48.9508 46.3561 40.7803 46.3033 40.7803 46.2417C40.7803 46.18 48.9221 46.1272 59.0083 46.1272C69.0946 46.1272 77.2077 46.1756 77.2077 46.2417Z" fill="black"/>
<path d="M46.0007 55.2057H41.6377V51.1951H46.0007V55.2057ZM42.1166 54.7655H45.5218V51.6353H42.1166V54.7655Z" fill="black"/>
<path d="M51.9201 61.5143C51.9201 62.0337 51.4747 62.3375 50.6222 62.3375H48.9795V59.2954H50.5264C51.3215 59.2954 51.7477 59.6036 51.7477 60.0879C51.7527 60.225 51.7153 60.3607 51.6398 60.4791C51.5644 60.5975 51.454 60.6939 51.3215 60.757C51.4996 60.8026 51.6557 60.9022 51.7644 61.0397C51.8731 61.1772 51.928 61.3445 51.9201 61.5143ZM49.5925 59.7533V60.5897H50.4642C50.8856 60.5897 51.1299 60.4533 51.1299 60.1759C51.1299 59.8985 50.8856 59.7357 50.4642 59.7357L49.5925 59.7533ZM51.2975 61.4702C51.2975 61.1665 51.0485 61.03 50.5839 61.03H49.5925V61.9105H50.5839C51.0485 61.9105 51.2975 61.7608 51.2975 61.4702Z" fill="black"/>
<path d="M46.0007 62.8219H41.6377V58.8289H46.0007V62.8219ZM42.1166 62.3817H45.5218V59.2691H42.1166V62.3817Z" fill="black"/>
<path d="M48.7402 68.4303C48.7574 68.1087 48.8768 67.7988 49.0836 67.5389C49.2904 67.279 49.5755 67.0806 49.9038 66.9682C50.232 66.8557 50.5889 66.8342 50.9303 66.9063C51.2717 66.9784 51.5826 67.1409 51.8246 67.3738L51.427 67.7171C51.3156 67.603 51.1789 67.5121 51.026 67.4506C50.8732 67.3891 50.7078 67.3584 50.541 67.3605C50.2324 67.3605 49.9363 67.4733 49.7181 67.6739C49.4998 67.8745 49.3772 68.1466 49.3772 68.4303C49.3772 68.7141 49.4998 68.9862 49.7181 69.1868C49.9363 69.3874 50.2324 69.5001 50.541 69.5001C50.7083 69.5023 50.8741 69.4712 51.027 69.4089C51.18 69.3465 51.3164 69.2545 51.427 69.1391L51.8246 69.4869C51.5826 69.7198 51.2717 69.8823 50.9303 69.9544C50.5889 70.0265 50.232 70.005 49.9038 69.8925C49.5755 69.7801 49.2904 69.5816 49.0836 69.3217C48.8768 69.0619 48.7574 68.7519 48.7402 68.4303Z" fill="black"/>
<path d="M46.0007 70.4337H41.6377V66.4231H46.0007V70.4337ZM42.1166 69.9935H45.5218V66.8633H42.1166V69.9935Z" fill="black"/>
<path d="M48.9795 74.5234H50.4163C51.4891 74.5234 52.2218 75.131 52.2218 76.0423C52.2218 76.9536 51.4891 77.5655 50.4163 77.5655H48.9795V74.5234ZM50.4163 77.0857C50.5712 77.0949 50.7266 77.0749 50.8727 77.0268C51.0189 76.9786 51.1528 76.9034 51.2661 76.8058C51.3794 76.7083 51.4697 76.5903 51.5314 76.4594C51.5932 76.3284 51.625 76.1872 51.625 76.0445C51.625 75.9018 51.5932 75.7606 51.5314 75.6296C51.4697 75.4986 51.3794 75.3807 51.2661 75.2831C51.1528 75.1855 51.0189 75.1104 50.8727 75.0622C50.7266 75.0141 50.5712 74.994 50.4163 75.0033H49.5925V77.0857H50.4163Z" fill="black"/>
<path d="M46.0007 78.05H41.6377V74.0393H46.0007V78.05ZM42.1166 77.6097H45.5218V74.4796H42.1166V77.6097Z" fill="black"/>
<path d="M88.0793 53.2024C88.0793 53.264 80.8953 53.3168 72.0064 53.3168C63.1175 53.3168 55.9287 53.264 55.9287 53.2024C55.9287 53.1407 63.1127 53.0879 72.0064 53.0879C80.9001 53.0879 88.0793 53.1363 88.0793 53.2024Z" fill="black"/>
<path d="M132.332 60.8139C132.332 60.88 115.225 60.9284 94.1329 60.9284C73.0409 60.9284 55.9287 60.88 55.9287 60.8139C55.9287 60.7479 73.0313 60.6995 94.1329 60.6995C115.235 60.6995 132.332 60.7523 132.332 60.8139Z" fill="black"/>
<path d="M66.4417 76.0422C66.4417 76.1038 64.0902 76.1567 61.1735 76.1567C58.2568 76.1567 55.9053 76.1038 55.9053 76.0422C55.9053 75.9806 58.2568 75.9277 61.1735 75.9277C64.0902 75.9277 66.4417 75.9982 66.4417 76.0422Z" fill="black"/>
<path d="M94.1282 68.4304C94.1282 68.492 85.5793 68.5448 75.0284 68.5448C64.4776 68.5448 55.9287 68.492 55.9287 68.4304C55.9287 68.3687 64.4776 68.3159 75.0284 68.3159C85.5793 68.3159 94.1282 68.3643 94.1282 68.4304Z" fill="black"/>
<path d="M35.9431 86.8813V87.3568H33.5005V86.9782L34.8176 85.8335C35.1384 85.5518 35.1959 85.3713 35.1959 85.204C35.1959 84.9222 34.9852 84.7637 34.5781 84.7637C34.4315 84.7568 34.2851 84.7819 34.1511 84.837C34.0171 84.8921 33.8992 84.9756 33.807 85.0807L33.376 84.7769C33.5278 84.6086 33.7203 84.4751 33.9382 84.3872C34.156 84.2993 34.3932 84.2594 34.6308 84.2707C35.3492 84.2707 35.8137 84.6052 35.8137 85.1512C35.8086 85.3388 35.7567 85.523 35.662 85.6893C35.5674 85.8557 35.4325 85.9999 35.2678 86.1109L34.3817 86.8857L35.9431 86.8813Z" fill="black"/>
<path d="M36.3022 87.0263C36.3022 86.9317 36.3431 86.841 36.4159 86.7741C36.4886 86.7072 36.5873 86.6697 36.6902 86.6697C36.7931 86.6697 36.8917 86.7072 36.9645 86.7741C37.0372 86.841 37.0781 86.9317 37.0781 87.0263C37.0781 87.1209 37.0372 87.2116 36.9645 87.2784C36.8917 87.3453 36.7931 87.3829 36.6902 87.3829C36.5873 87.3829 36.4886 87.3453 36.4159 87.2784C36.3431 87.2116 36.3022 87.1209 36.3022 87.0263Z" fill="black"/>
<path d="M49.99 97.6802H48.3376L48.012 98.3846H47.375L48.8645 95.3425H49.4727L50.967 98.3846H50.3108L49.99 97.6802ZM49.7888 97.24L49.1662 95.9193L48.5436 97.24H49.7888Z" fill="black"/>
<path d="M134.555 86.9253C134.555 86.9869 113.228 87.0397 86.9255 87.0397C60.6226 87.0397 39.2959 87.0045 39.2959 86.9253C39.2959 86.846 60.6179 86.8108 86.9302 86.8108C113.243 86.8108 134.555 86.8636 134.555 86.9253Z" fill="black"/>
<path d="M76.0533 89.9013C76.0533 89.963 67.9115 90.0158 57.8252 90.0158C47.739 90.0158 39.5972 89.963 39.5972 89.9013C39.5972 89.8397 47.739 89.7869 57.8252 89.7869C67.9115 89.7869 76.0533 89.8353 76.0533 89.9013Z" fill="black"/>
<path d="M44.8225 98.891H40.4595V94.8804H44.8225V98.891ZM40.9384 98.4508H44.3436V95.3206H40.9384V98.4508Z" fill="black"/>
<path d="M50.7609 105.173C50.7609 105.693 50.3155 105.997 49.4678 105.997H47.8203V102.955H49.3529C50.1479 102.955 50.5742 103.263 50.5742 103.747C50.578 103.884 50.5401 104.019 50.4648 104.137C50.3895 104.256 50.2797 104.352 50.1479 104.416C50.3291 104.459 50.489 104.557 50.6007 104.695C50.7123 104.833 50.7689 105.002 50.7609 105.173ZM48.4381 103.412V104.253H49.305C49.7312 104.253 49.9707 104.112 49.9707 103.835C49.9707 103.558 49.7312 103.395 49.305 103.395L48.4381 103.412ZM50.1431 105.129C50.1431 104.826 49.8941 104.689 49.4295 104.689H48.4381V105.57H49.4295C49.8941 105.556 50.1431 105.42 50.1431 105.116V105.129Z" fill="black"/>
<path d="M44.8225 106.481H40.4595V102.47H44.8225V106.481ZM40.9384 106.041H44.3436V102.91H40.9384V106.041Z" fill="black"/>
<path d="M47.5855 112.099C47.5833 111.887 47.6281 111.677 47.7173 111.483C47.8065 111.288 47.9381 111.112 48.1041 110.965C48.2701 110.819 48.467 110.705 48.6825 110.631C48.8981 110.557 49.1278 110.525 49.3576 110.536C49.6026 110.526 49.8468 110.567 50.0728 110.655C50.2989 110.742 50.5011 110.874 50.6651 111.042L50.2723 111.385C50.1605 111.272 50.0237 111.181 49.871 111.12C49.7182 111.058 49.553 111.027 49.3863 111.029C49.0777 111.029 48.7816 111.142 48.5634 111.342C48.3451 111.543 48.2225 111.815 48.2225 112.099C48.2225 112.382 48.3451 112.654 48.5634 112.855C48.7816 113.056 49.0777 113.168 49.3863 113.168C49.5535 113.17 49.7192 113.139 49.8721 113.077C50.025 113.014 50.1615 112.923 50.2723 112.807L50.6651 113.155C50.4238 113.389 50.1131 113.552 49.7718 113.624C49.4305 113.696 49.0736 113.675 48.7454 113.562C48.4173 113.45 48.1323 113.251 47.9261 112.991C47.7199 112.731 47.6014 112.42 47.5855 112.099Z" fill="black"/>
<path d="M44.8225 114.093H40.4595V110.082H44.8225V114.093ZM40.9384 113.652H44.3436V110.522H40.9384V113.652Z" fill="black"/>
<path d="M47.8203 118.183H49.2571C50.3299 118.183 51.0627 118.79 51.0627 119.706C51.0627 120.622 50.3299 121.225 49.2571 121.225H47.8203V118.183ZM49.2571 120.749C49.4149 120.763 49.574 120.746 49.7243 120.699C49.8745 120.653 50.0126 120.578 50.1297 120.48C50.2468 120.382 50.3403 120.262 50.4043 120.129C50.4683 119.996 50.5013 119.852 50.5013 119.706C50.5013 119.56 50.4683 119.416 50.4043 119.283C50.3403 119.15 50.2468 119.03 50.1297 118.932C50.0126 118.834 49.8745 118.759 49.7243 118.713C49.574 118.666 49.4149 118.649 49.2571 118.662H48.4573V120.749H49.2571Z" fill="black"/>
<path d="M44.8225 121.709H40.4595V117.698H44.8225V121.709ZM40.9384 121.269H44.3436V118.138H40.9384V121.269Z" fill="black"/>
<path d="M86.9254 96.8615C86.9254 96.9232 79.7414 96.976 70.8477 96.976C61.954 96.976 54.77 96.9232 54.77 96.8615C54.77 96.7999 61.954 96.7471 70.8477 96.7471C79.7414 96.7471 86.9254 96.7999 86.9254 96.8615Z" fill="black"/>
<path d="M131.174 104.474C131.174 104.54 114.071 104.588 92.9743 104.588C71.8774 104.588 54.77 104.54 54.77 104.474C54.77 104.408 71.8726 104.359 92.9743 104.359C114.076 104.359 131.174 104.412 131.174 104.474Z" fill="black"/>
<path d="M65.2869 119.702C65.2869 119.768 62.9306 119.816 60.0187 119.816C57.1068 119.816 54.7505 119.768 54.7505 119.702C54.7505 119.636 57.1068 119.587 60.0187 119.587C62.9306 119.587 65.2869 119.64 65.2869 119.702Z" fill="black"/>
<path d="M92.9742 112.099C92.9742 112.16 84.4206 112.213 73.8745 112.213C63.3285 112.213 54.77 112.16 54.77 112.099C54.77 112.037 63.3237 111.984 73.8745 111.984C84.4253 111.984 92.9742 112.024 92.9742 112.099Z" fill="black"/>
<path d="M123.903 130.148H104.186C103.391 130.148 102.604 130.005 101.87 129.725C101.135 129.445 100.468 129.035 99.9067 128.518C99.345 128.002 98.8995 127.388 98.5958 126.713C98.2921 126.038 98.1361 125.314 98.1367 124.584C98.1367 123.109 98.774 121.695 99.9084 120.652C101.043 119.609 102.581 119.023 104.186 119.023H123.903C125.507 119.023 127.046 119.609 128.18 120.652C129.315 121.695 129.952 123.109 129.952 124.584C129.953 125.314 129.797 126.038 129.493 126.713C129.189 127.388 128.744 128.002 128.182 128.518C127.62 129.035 126.953 129.445 126.219 129.725C125.485 130.005 124.698 130.148 123.903 130.148Z" fill="#3E8E41"/>
<path d="M109.109 123.263V126.288H108.482L106.825 124.452V126.288H106.073V123.263H106.7L108.333 125.099V123.263H109.109Z" fill="white"/>
<path d="M112.433 125.746V126.31H109.885V123.285H112.37V123.849H110.656V124.505H112.184V125.046H110.656V125.746H112.433Z" fill="white"/>
<path d="M115.077 126.288L114.282 125.24L113.501 126.288H112.629L113.846 124.751L112.692 123.263H113.554L114.31 124.245L115.053 123.263H115.877L114.727 124.725L115.958 126.288H115.077Z" fill="white"/>
<path d="M116.882 123.836H115.829V123.263H118.702V123.836H117.649V126.288H116.882V123.836Z" fill="white"/>
<path d="M122.864 126.059C122.824 126.058 122.785 126.049 122.75 126.031C122.715 126.014 122.685 125.988 122.663 125.958C122.629 125.909 122.616 125.85 122.629 125.793C122.641 125.736 122.678 125.686 122.73 125.654L124.258 124.716C124.282 124.702 124.302 124.683 124.316 124.659C124.329 124.636 124.336 124.61 124.335 124.584C124.335 124.557 124.327 124.531 124.313 124.508C124.299 124.485 124.278 124.466 124.253 124.452L122.74 123.629C122.686 123.598 122.648 123.55 122.633 123.494C122.618 123.438 122.628 123.379 122.66 123.329C122.692 123.279 122.744 123.243 122.804 123.229C122.865 123.214 122.93 123.221 122.984 123.25L124.498 124.069C124.592 124.121 124.671 124.195 124.726 124.282C124.782 124.37 124.813 124.469 124.815 124.57C124.818 124.672 124.793 124.772 124.743 124.862C124.692 124.952 124.618 125.029 124.526 125.086L122.999 126.019C122.959 126.044 122.912 126.058 122.864 126.059Z" fill="white"/>
<path d="M41.0963 62.7513C40.9526 62.6192 41.8769 61.5494 43.1652 60.3608C44.4536 59.1721 45.6173 58.3268 45.7658 58.4589C45.9143 58.591 44.9852 59.6652 43.6968 60.8494C42.4085 62.0337 41.2447 62.8878 41.0963 62.7513Z" fill="#E88801"/>
<path d="M46.5611 63.1694C46.4174 63.3059 45.177 62.3813 43.7929 61.109C42.4088 59.8367 41.3982 58.7009 41.5515 58.5644C41.7048 58.4279 42.9404 59.3524 44.3197 60.6247C45.699 61.8971 46.7096 63.0373 46.5611 63.1694Z" fill="#E88801"/>
<path d="M40.0473 99.0847C39.8989 98.9483 40.828 97.8785 42.1163 96.6942C43.4046 95.5099 44.5684 94.6603 44.7169 94.7923C44.8654 94.9244 43.9362 95.9942 42.6431 97.1829C41.35 98.3715 40.191 99.2168 40.0473 99.0847Z" fill="#E88801"/>
<path d="M45.5221 99.5031C45.3736 99.6352 44.1379 98.7151 42.7538 97.4427C41.3697 96.1704 40.3592 95.0302 40.5124 94.8981C40.6657 94.766 41.8965 95.6862 43.2807 96.9585C44.6648 98.2308 45.6562 99.3666 45.5221 99.5031Z" fill="#E88801"/>
<path d="M132.935 188.499L99.3097 178.576C99.2199 178.55 99.1258 178.54 99.0319 178.545L73.1697 180.306C68.6247 170.181 62.9302 157.524 60.3392 151.743C59.9075 150.795 59.2119 149.969 58.3224 149.347C57.4329 148.725 56.3809 148.329 55.2721 148.199L27.2643 144.836C26.9313 144.798 26.5935 144.842 26.2847 144.963C25.976 145.083 25.707 145.276 25.5048 145.522C25.3026 145.768 25.1742 146.059 25.1325 146.365C25.0908 146.671 25.1373 146.981 25.2672 147.266L41.0383 181.072C41.2471 181.521 41.555 181.925 41.9425 182.258C42.33 182.592 42.7886 182.847 43.2893 183.009L75.3249 194.76C76.0571 195.028 76.8504 195.125 77.6334 195.041L79.6832 194.834C86.7809 194.152 121.829 190.872 132.792 189.816C132.965 189.807 133.13 189.742 133.256 189.632C133.382 189.521 133.461 189.373 133.478 189.214C133.496 189.055 133.45 188.895 133.351 188.764C133.251 188.633 133.104 188.539 132.935 188.499Z" fill="#E0E0E0"/>
<path d="M132.935 188.499C133.048 188.533 133.149 188.59 133.233 188.666C133.316 188.743 133.378 188.837 133.414 188.94C133.458 189.07 133.459 189.209 133.417 189.34C133.375 189.47 133.293 189.587 133.18 189.675C133.029 189.782 132.844 189.841 132.653 189.842L132.021 189.904L124.152 190.67L95.2054 193.439L85.6268 194.355L80.5262 194.839L77.9064 195.099C76.9991 195.229 76.0705 195.13 75.2196 194.813L53.7923 186.967L48.0691 184.867L45.1524 183.802L43.6821 183.265C43.4378 183.168 43.2032 183.089 42.9398 182.988C42.6891 182.886 42.4514 182.759 42.2309 182.609C41.7874 182.307 41.4158 181.925 41.139 181.486C40.8708 181.046 40.6984 180.584 40.4781 180.13L39.1993 177.396C38.3404 175.565 37.4768 173.714 36.6083 171.845C33.1265 164.361 29.5154 156.648 25.8228 148.732L25.3151 147.644C25.1005 147.283 24.9901 146.877 24.9943 146.465C25.0218 146.045 25.2013 145.646 25.5042 145.331C25.8071 145.015 26.216 144.802 26.6657 144.726C26.7759 144.704 26.8908 144.726 27.0058 144.695L27.3362 144.717L27.9684 144.796L29.228 144.946L31.7376 145.245L41.6419 146.438L51.3162 147.6L53.7109 147.887C54.5011 147.997 55.2914 148.045 56.1055 148.217C57.6787 148.589 59.0446 149.487 59.937 150.735C60.3361 151.357 60.6712 152.011 60.9379 152.69C61.2317 153.347 61.5254 154.002 61.8192 154.653L63.5577 158.532L66.9485 166.086C69.1612 171.026 71.2924 175.772 73.3183 180.289L73.2129 180.227L98.4142 178.515L99.1134 178.466C99.2395 178.465 99.3647 178.486 99.4822 178.528L99.8127 178.629L101.077 179.016L103.625 179.769L108.429 181.218L116.906 183.732L128.759 187.253L131.872 188.191C132.576 188.403 132.935 188.517 132.935 188.517C132.935 188.517 132.571 188.42 131.863 188.218L128.74 187.311L116.882 183.815L108.4 181.323L103.563 179.897L101.015 179.149L99.7073 178.766C99.5018 178.688 99.2859 178.636 99.0655 178.611L98.3663 178.66L73.1698 180.421H73.098L73.0644 180.355C71.0338 175.842 68.9025 171.11 66.6803 166.161L63.2847 158.607C62.71 157.327 62.1289 156.034 61.5414 154.728C61.2492 154.076 60.9523 153.407 60.6602 152.765C60.3973 152.1 60.0687 151.459 59.6783 150.849C58.823 149.651 57.5138 148.788 56.005 148.428C55.2578 148.261 54.4532 148.208 53.6678 148.102L51.2731 147.816L41.594 146.658L31.6897 145.47L29.1753 145.17L27.9157 145.016C27.5125 144.941 27.0999 144.918 26.6897 144.946C26.2955 145.015 25.9374 145.202 25.672 145.479C25.4066 145.755 25.249 146.105 25.2241 146.473C25.2212 146.851 25.3252 147.223 25.5259 147.552L26.0479 148.639L36.8286 171.757C37.7003 173.623 38.5623 175.474 39.4148 177.308C39.8459 178.224 40.2673 179.135 40.6936 180.042C40.9091 180.482 41.0959 180.967 41.3449 181.363C41.6031 181.776 41.9522 182.134 42.3698 182.415C42.577 182.556 42.8002 182.675 43.0355 182.772C43.2654 182.864 43.5145 182.948 43.7635 183.04L45.2338 183.582L48.1457 184.652L53.8929 186.752L75.3106 194.619C76.1288 194.927 77.0234 195.023 77.8968 194.896L80.5214 194.636L85.622 194.161L95.2006 193.28L124.157 190.582L132.03 189.855L132.662 189.803C132.845 189.802 133.023 189.748 133.17 189.648C133.279 189.565 133.359 189.455 133.401 189.331C133.443 189.206 133.444 189.073 133.405 188.948C133.359 188.793 133.249 188.66 133.098 188.579C132.993 188.521 132.935 188.504 132.935 188.499Z" fill="#263238"/>
<path d="M89.6592 182.38L102.269 187.231L117.983 185.726L104.769 180.711L89.6592 182.38Z" fill="#F5F5F5"/>
<path d="M80.1529 191.55L104.77 189.508L81.2641 180.94L73.7065 181.464L77.7008 190.322L80.1529 191.55Z" fill="#F5F5F5"/>
<path d="M130.498 188.486L130.33 188.512L129.827 188.57L127.911 188.75L120.795 189.389L97.327 191.401L78.8786 192.933H78.802L78.7733 192.867L74.688 183.705L73.5673 181.143C73.4428 180.849 73.347 180.625 73.28 180.469C73.2449 180.392 73.2145 180.312 73.189 180.231C73.189 180.231 73.2321 180.306 73.3087 180.456L73.6248 181.121L74.7982 183.661C75.8039 185.862 77.2407 189.01 78.9649 192.796L78.8595 192.734L97.3031 191.163L120.795 189.217L127.897 188.662L129.813 188.521L130.316 188.49L130.498 188.486Z" fill="black"/>
<path d="M26.0815 146.06H26.2923L26.9149 146.126L29.3095 146.412L38.0931 147.512C41.8 147.988 46.2349 148.56 51.1152 149.225L54.87 149.758L55.8279 149.907C55.9859 149.929 56.1535 149.965 56.3068 150C56.3882 150 56.4744 150.031 56.5558 150.053C56.9598 150.202 57.3264 150.425 57.6334 150.709C57.7578 150.83 57.8569 150.972 57.9256 151.127L58.1124 151.567C59.1133 153.865 60.1478 156.247 61.211 158.681C65.4448 168.433 69.2714 177.264 72.0492 183.665C73.4238 186.857 74.5349 189.446 75.3107 191.242C75.6843 192.123 75.9764 192.827 76.1824 193.311C76.2782 193.54 76.35 193.716 76.4027 193.848C76.4299 193.908 76.4523 193.97 76.4697 194.033C76.436 193.976 76.4056 193.917 76.3787 193.857L76.1345 193.324L75.2197 191.277C74.4295 189.481 73.304 186.906 71.8672 183.723L61.0051 158.765C59.9419 156.331 58.9074 153.949 57.9064 151.651L57.7196 151.21C57.6619 151.081 57.5792 150.961 57.4754 150.858C57.2612 150.644 57.0022 150.472 56.7139 150.352C56.6422 150.32 56.5687 150.292 56.4936 150.268L56.2637 150.215C56.1104 150.185 55.9572 150.154 55.7848 150.132L54.8269 149.978L51.0721 149.436L38.0644 147.675L29.2904 146.5L26.8957 146.174L26.2779 146.082L26.0815 146.06Z" fill="black"/>
<path d="M50.8374 166.298C52.0347 167.773 52.2742 169.468 51.3786 170.084C50.483 170.7 48.778 170.009 47.5806 168.534C46.3833 167.06 46.1439 165.369 47.0395 164.748C47.9351 164.128 49.64 164.828 50.8374 166.298Z" fill="white"/>
<path d="M202.361 141.155C200.757 132.79 190.694 127.75 187.371 124.967L192.366 131.109C194.923 140.801 195.891 150.791 195.239 160.746C195.172 161.834 195.302 163.3 196.145 163.454C196.449 163.477 196.752 163.39 196.988 163.212C199.938 161.473 201.853 157.488 202.28 153.385C202.706 149.282 203.089 145.025 202.361 141.155Z" fill="#E88801"/>
<path d="M194.995 131.787C194.516 130.946 194.712 128.265 192.121 131.065L191.954 130.017L175.943 118.703L140.258 120.406C136.834 120.605 131.69 126.055 130.406 128.331C129.353 136.797 129.142 144.312 129.142 144.312C129.142 144.312 127.916 153.724 129.142 158.175C130.368 162.626 131.819 164.233 133.716 167.693C135.104 170.057 136.834 172.237 138.86 174.174L140.526 186.06L177.806 189.142L194.87 188.262C194.87 188.262 193.343 164.819 193.343 164.405C193.343 164.211 195.474 159.685 197.763 154.882C201.652 146.663 199.459 139.72 194.995 131.787Z" fill="#1B4D3E"/>
<path d="M101.374 174.425C101.561 174.425 103.424 162.851 104.645 160.222C105.795 157.744 130.407 128.326 130.407 128.326L136.202 145.496L133.716 154.68L120.306 169.512L116.518 180.262L101.374 174.425Z" fill="#1B4D3E"/>
<path d="M199.957 140.583C198.19 130.286 189.464 130.735 189.464 130.735L180.79 144.607V173.293L138.946 176.622L138.17 186.281C138.17 186.281 179.861 195.041 189.493 192.105C195.867 190.164 201.25 185.264 201.839 177.255C202.428 169.247 201.729 150.885 199.957 140.583Z" fill="#1B4D3E"/>
<path d="M120.349 169.494C120.228 168.838 120.068 168.188 119.87 167.548C119.345 166.01 118.398 164.622 117.119 163.518C115.841 162.415 114.275 161.633 112.571 161.248C111.863 161.102 111.147 160.99 110.426 160.913C110.623 160.892 110.822 160.892 111.02 160.913C111.557 160.934 112.09 160.998 112.614 161.107C114.362 161.463 115.973 162.246 117.275 163.375C118.578 164.503 119.524 165.935 120.014 167.517C120.165 167.992 120.267 168.478 120.32 168.97C120.354 169.143 120.363 169.319 120.349 169.494Z" fill="black"/>
<path d="M140.378 176.225C140.438 176.211 140.498 176.2 140.56 176.194L141.092 176.124L143.141 175.873L150.694 174.993L175.598 172.21L181.135 171.603L181.025 171.713C181.346 163.912 181.504 157.035 181.446 152.108C181.446 149.648 181.389 147.671 181.355 146.31C181.355 145.641 181.322 145.117 181.312 144.752V144.347C181.312 144.254 181.312 144.21 181.312 144.206C181.317 144.253 181.317 144.3 181.312 144.347C181.312 144.448 181.312 144.58 181.341 144.748C181.341 145.117 181.389 145.628 181.422 146.31C181.484 147.666 181.552 149.643 181.59 152.108C181.676 157.035 181.561 163.92 181.25 171.717V171.814H181.144L175.608 172.426L150.68 175.142L143.122 175.939L141.063 176.142L140.526 176.19L140.378 176.225Z" fill="black"/>
<path d="M202.409 176.225C202.416 176.284 202.416 176.343 202.409 176.401C202.409 176.524 202.409 176.696 202.381 176.912C202.337 177.568 202.256 178.222 202.136 178.871C201.948 179.9 201.674 180.914 201.317 181.904C200.828 183.212 200.172 184.463 199.363 185.629C198.379 187.049 197.136 188.303 195.69 189.336C194.028 190.522 192.107 191.364 190.058 191.805C188.955 192.049 187.835 192.221 186.705 192.321C185.53 192.417 184.35 192.459 183.171 192.444C180.697 192.398 178.23 192.186 175.79 191.81L161.657 189.675L155.493 188.733L150.125 187.821C146.854 187.258 144.2 186.831 142.361 186.575L140.239 186.289L139.689 186.219C139.625 186.213 139.563 186.202 139.502 186.183H139.689L140.244 186.236C140.723 186.285 141.451 186.36 142.376 186.478C144.219 186.707 146.877 187.112 150.158 187.654L155.517 188.534L161.686 189.455L175.819 191.577C178.251 191.957 180.71 192.173 183.176 192.224C184.373 192.224 185.541 192.193 186.686 192.109C187.802 192.015 188.91 191.847 190 191.607C192.023 191.177 193.921 190.351 195.565 189.186C196.998 188.172 198.232 186.941 199.215 185.545C200.025 184.393 200.686 183.158 201.183 181.865C201.549 180.885 201.836 179.881 202.041 178.862C202.199 178.021 202.294 177.361 202.328 176.912L202.385 176.401C202.389 176.342 202.397 176.283 202.409 176.225Z" fill="black"/>
<path d="M139.248 176.934C139.228 176.875 139.215 176.815 139.21 176.753C139.186 176.617 139.152 176.436 139.119 176.216C139.042 175.723 138.932 175.036 138.798 174.165V174.196L135.627 170.969C135.009 170.159 134.451 169.311 133.956 168.433C133.402 167.433 132.913 166.404 132.49 165.351C131.556 162.972 130.913 160.505 130.574 157.995C130.24 155.278 130.171 152.539 130.369 149.81C130.517 147.301 130.8 145.047 131.068 143.163C131.336 141.278 131.59 139.759 131.772 138.707L131.987 137.501C132.011 137.373 132.03 137.272 132.05 137.188C132.053 137.152 132.063 137.116 132.078 137.083C132.083 137.118 132.083 137.153 132.078 137.188C132.078 137.276 132.078 137.378 132.04 137.505C131.997 137.805 131.944 138.21 131.872 138.72C131.719 139.773 131.494 141.296 131.245 143.185C130.996 145.073 130.771 147.319 130.622 149.828C130.439 152.542 130.513 155.266 130.843 157.968C131.176 160.463 131.806 162.916 132.72 165.285C133.134 166.327 133.613 167.346 134.157 168.336C134.642 169.21 135.187 170.054 135.79 170.863L138.917 174.13L139.176 176.186C139.2 176.41 139.219 176.591 139.238 176.727C139.255 176.795 139.258 176.865 139.248 176.934Z" fill="black"/>
<path d="M187.165 178.004C186.849 177.682 186.559 177.339 186.298 176.978C185.776 176.331 185.043 175.451 184.186 174.513C183.328 173.575 182.519 172.752 181.92 172.171C181.576 171.869 181.256 171.545 180.962 171.202C181.352 171.451 181.712 171.737 182.035 172.056C182.858 172.787 183.637 173.558 184.368 174.368C185.103 175.172 185.792 176.011 186.432 176.881C186.717 177.232 186.962 177.608 187.165 178.004Z" fill="black"/>
<path d="M111.613 175.838C111.259 173.958 109.396 172.492 109.396 172.492C109.396 172.492 108.505 170.203 107.174 169.6C105.842 168.996 104.779 170.203 103.62 169.877C102.461 169.551 99.9754 169.468 99.1756 169.877C98.3758 170.286 97.3988 172.571 97.3988 172.571C96.5925 172.601 95.8037 172.797 95.0903 173.144C94.4857 173.431 93.9625 173.844 93.5625 174.35C93.2154 174.226 92.8353 174.201 92.4727 174.28C92.1101 174.358 91.782 174.536 91.5319 174.79C91.046 175.312 90.6824 175.921 90.4639 176.577L89.8317 178.136C89.7099 178.374 89.654 178.635 89.6688 178.898C89.7176 179.113 89.8446 179.308 90.0291 179.448C90.2135 179.589 90.4445 179.668 90.6842 179.672C90.9277 179.673 91.1686 179.627 91.3914 179.537C91.6142 179.447 91.8138 179.314 91.9773 179.149C92.3032 178.853 92.5909 178.523 92.8346 178.167L92.9926 179.188C92.9926 179.188 93.256 180.804 94.6785 180.901C95.6603 180.971 96.7235 179.923 96.7235 179.923L99.2091 179.677L99.5635 181.962C99.7272 182.402 100.04 182.783 100.457 183.047C100.873 183.312 101.371 183.447 101.877 183.432C102.768 183.432 103.917 182.045 103.917 182.045L106.23 182.86C106.23 182.86 108.893 184.577 110.138 184.004C110.487 183.842 110.764 183.576 110.926 183.25C111.088 182.923 111.124 182.556 111.029 182.208C111.561 181.654 111.981 181.018 112.27 180.328C112.605 179.351 111.987 177.718 111.613 175.838Z" fill="#FFBE9D"/>
<path d="M92.9353 178.796C92.834 177.988 92.8647 177.17 93.0263 176.37C93.1092 175.561 93.3256 174.769 93.6681 174.02C93.7351 174.02 93.4717 175.089 93.2706 176.406C93.0694 177.722 93.0263 178.796 92.9353 178.796Z" fill="#EB996E"/>
<path d="M96.8196 176.648C96.9706 177.203 97.0415 177.775 97.0304 178.347C97.0813 178.761 97.0356 179.18 96.8963 179.576C96.7574 179.884 96.561 180.016 96.5466 179.981C96.5323 179.945 96.6472 179.809 96.7286 179.54C96.8107 179.156 96.8285 178.763 96.7813 178.374C96.7083 177.8 96.7212 177.219 96.8196 176.648Z" fill="#EB996E"/>
<path d="M98.4764 175.675C98.5243 175.719 98.1986 176.115 97.7436 176.52C97.2886 176.925 96.8863 177.251 96.8336 177.207C96.781 177.163 97.1114 176.766 97.5664 176.361C98.0214 175.956 98.4285 175.631 98.4764 175.675Z" fill="#EB996E"/>
<path d="M98.8068 171.281C98.8606 171.693 98.8798 172.108 98.8643 172.523C98.8643 173.293 98.8978 174.35 98.9649 175.517C99.0319 176.683 99.1325 177.74 99.2043 178.506C99.2724 178.917 99.3012 179.332 99.2905 179.747C99.1583 179.349 99.0716 178.939 99.0319 178.524C98.9122 177.762 98.7877 176.705 98.7158 175.53C98.644 174.354 98.6536 173.293 98.6871 172.523C98.6801 172.106 98.7202 171.69 98.8068 171.281Z" fill="#EB996E"/>
<path d="M108.127 172.157C108.127 172.157 108.022 172.377 107.854 172.773C107.62 173.335 107.435 173.912 107.298 174.499C107.212 174.878 107.121 175.287 107.021 175.723C106.926 176.2 106.784 176.669 106.599 177.123C106.392 177.636 106.044 178.091 105.589 178.444C105.34 178.642 105.043 178.784 104.724 178.856C104.404 178.929 104.07 178.931 103.75 178.862C103.416 178.793 103.115 178.63 102.887 178.395C102.678 178.163 102.543 177.881 102.5 177.581C102.432 177.046 102.42 176.507 102.466 175.97C102.52 175.069 102.671 174.175 102.916 173.302C103.081 172.713 103.292 172.136 103.548 171.576C103.639 171.378 103.711 171.228 103.769 171.136C103.793 171.082 103.825 171.032 103.865 170.986C103.805 171.2 103.73 171.411 103.639 171.616C103.419 172.182 103.236 172.76 103.089 173.346C102.871 174.214 102.739 175.098 102.696 175.987C102.658 176.507 102.672 177.029 102.739 177.546C102.778 177.804 102.894 178.048 103.074 178.25C103.269 178.447 103.525 178.585 103.807 178.646C104.091 178.707 104.387 178.704 104.67 178.639C104.953 178.574 105.215 178.448 105.435 178.272C105.863 177.942 106.192 177.518 106.393 177.039C106.694 176.192 106.942 175.329 107.136 174.455C107.286 173.864 107.498 173.288 107.768 172.734C107.842 172.582 107.927 172.435 108.022 172.294C108.079 172.201 108.117 172.153 108.127 172.157Z" fill="#EB996E"/>
<path d="M109.066 173.148C108.998 173.636 108.764 174.092 108.396 174.45C108.029 174.807 107.547 175.048 107.021 175.138C107.44 174.883 107.839 174.601 108.213 174.293C108.528 173.931 108.813 173.548 109.066 173.148Z" fill="#EB996E"/>
<path d="M103.922 178.84C104.079 179.451 104.12 180.083 104.042 180.707C104.016 181.262 103.931 181.814 103.788 182.354V182.384C103.77 182.393 103.75 182.398 103.73 182.398C103.71 182.399 103.69 182.395 103.671 182.387C103.653 182.38 103.636 182.368 103.623 182.354C103.61 182.34 103.601 182.323 103.596 182.305C103.596 182.261 103.596 182.243 103.596 182.243C103.596 182.243 103.596 182.265 103.63 182.283C103.663 182.301 103.697 182.318 103.711 182.283L103.682 182.318C103.682 182.019 103.754 181.394 103.797 180.672C103.792 180.059 103.834 179.447 103.922 178.84Z" fill="#EB996E"/>
<path d="M109.559 177.018C109.374 177.298 109.156 177.558 108.908 177.793C108.359 178.379 107.877 179.017 107.471 179.695C107.067 180.371 106.837 181.124 106.8 181.896C106.8 182.49 106.911 182.851 106.867 182.86C106.7 182.562 106.616 182.231 106.623 181.896C106.609 181.088 106.825 180.291 107.251 179.584C107.673 178.889 108.195 178.25 108.802 177.683C109.023 177.432 109.277 177.209 109.559 177.018Z" fill="#EB996E"/>
<path d="M108.577 181.077C108.427 180.582 108.452 180.056 108.648 179.575C108.845 179.094 109.202 178.682 109.669 178.4C111.34 177.308 116.345 174.438 116.451 174.438C116.556 174.438 122.327 172.677 124.755 172.448C127.183 172.219 137.811 177.07 137.811 177.07C137.811 177.07 140.277 180.337 139.88 183.472C139.482 186.606 137.26 186.787 137.26 186.787L134.176 186.095L130.996 185.536C130.996 185.536 123.96 187.337 122.854 187.007C121.748 186.677 121.364 185.572 122.562 184.973C123.759 184.374 127.203 183.436 127.203 183.436L129.851 182.406L121.23 183.538C121.23 183.538 113.941 184.858 113.089 184.673C112.236 184.489 112.107 183.903 112.035 183.353C112.035 183.353 109.099 184.673 108.227 183.951C107.356 183.229 106.973 181.658 108.577 181.077Z" fill="#FFBE9D"/>
<path d="M127.183 179.148C126.97 179.18 126.753 179.19 126.537 179.179C126.125 179.179 125.526 179.179 124.789 179.223C123.928 179.259 123.074 179.37 122.236 179.553C121.742 179.669 121.261 179.827 120.799 180.024C120.32 180.227 119.841 180.465 119.362 180.729C118.874 180.986 118.365 181.208 117.839 181.394C117.348 181.56 116.834 181.663 116.312 181.697C115.451 181.698 114.593 181.786 113.754 181.962C113.206 182.122 112.723 182.428 112.365 182.842C112.244 183.003 112.137 183.172 112.044 183.348C112.044 183.348 112.044 183.291 112.073 183.194C112.123 183.052 112.194 182.917 112.284 182.794C112.629 182.336 113.124 181.992 113.697 181.812C114.545 181.608 115.416 181.5 116.293 181.49C117.335 181.378 118.337 181.052 119.224 180.535C119.703 180.284 120.181 180.029 120.689 179.822C121.162 179.624 121.654 179.467 122.159 179.355C123.012 179.172 123.884 179.076 124.76 179.069C125.507 179.069 126.106 179.069 126.522 179.096C126.744 179.094 126.965 179.112 127.183 179.148Z" fill="#EB996E"/>
<path d="M124.578 175.807C124.529 175.837 124.476 175.862 124.42 175.882C124.32 175.926 124.162 175.983 123.941 176.049C123.354 176.216 122.753 176.342 122.145 176.428C121.384 176.551 120.464 176.644 119.487 176.868C118.435 177.161 117.423 177.567 116.475 178.079C114.708 178.983 112.862 179.751 110.958 180.377C110.23 180.615 109.631 180.791 109.214 180.905C109.003 180.976 108.785 181.027 108.563 181.059C108.762 180.961 108.97 180.882 109.186 180.822L110.895 180.223C112.772 179.558 114.597 178.774 116.355 177.876C117.321 177.356 118.354 176.948 119.43 176.661C120.318 176.477 121.217 176.339 122.121 176.247C122.724 176.177 123.322 176.076 123.913 175.944C124.132 175.887 124.354 175.841 124.578 175.807Z" fill="#EB996E"/>
<path d="M131.575 177.696C131.512 177.524 131.466 177.347 131.436 177.168C131.322 176.756 131.101 176.376 130.793 176.059C130.484 175.743 130.097 175.499 129.664 175.349C129.474 175.302 129.288 175.24 129.109 175.165C129.109 175.138 129.348 175.112 129.722 175.195C130.207 175.315 130.644 175.562 130.982 175.904C131.316 176.249 131.534 176.676 131.609 177.132C131.659 177.319 131.647 177.515 131.575 177.696Z" fill="#EB996E"/>
<path d="M135.56 182.639C135.551 182.392 135.527 182.145 135.488 181.9C135.325 181.327 134.957 180.822 134.444 180.465C133.916 180.112 133.333 179.835 132.715 179.641C132.446 179.576 132.188 179.477 131.949 179.346C132.228 179.35 132.506 179.398 132.768 179.487C133.429 179.643 134.051 179.914 134.602 180.284C135.161 180.672 135.539 181.24 135.66 181.873C135.73 182.132 135.694 182.404 135.56 182.639Z" fill="#EB996E"/>
<path d="M112.063 183.344C111.941 183.444 111.8 183.521 111.647 183.573C111.247 183.746 110.834 183.893 110.411 184.013C110.12 184.107 109.822 184.182 109.52 184.238C109.156 184.282 108.785 184.247 108.438 184.136C108.242 184.07 108.063 183.967 107.913 183.834C107.763 183.7 107.645 183.54 107.566 183.362C107.368 183 107.288 182.593 107.336 182.19C107.386 181.887 107.557 181.611 107.815 181.416C108.036 181.238 108.282 181.089 108.548 180.975L108.486 181.107C108.291 180.562 108.336 179.968 108.61 179.452C108.838 179.065 109.146 178.723 109.516 178.444C109.753 178.262 110.006 178.099 110.272 177.955C110.364 177.895 110.466 177.849 110.574 177.819C110.598 177.85 110.186 178.07 109.616 178.545C109.28 178.828 109.001 179.163 108.792 179.536C108.556 180.011 108.529 180.552 108.716 181.046L108.744 181.129L108.653 181.174C108.203 181.389 107.662 181.706 107.609 182.226C107.569 182.584 107.639 182.945 107.811 183.269C107.874 183.421 107.972 183.56 108.097 183.675C108.222 183.79 108.373 183.88 108.538 183.938C108.845 184.041 109.172 184.08 109.496 184.053C109.79 184.004 110.081 183.941 110.368 183.863C110.9 183.727 111.326 183.59 111.613 183.494C111.757 183.429 111.908 183.379 112.063 183.344Z" fill="#EB996E"/>
<path d="M149.171 94.2865C148.132 84.7507 145.933 75.259 146.388 65.6704L137.859 70.566C138.285 74.3609 134.573 77.3017 132.423 80.5596C131.136 82.5498 130.381 84.7923 130.22 87.1028C130.06 89.4134 130.498 91.726 131.498 93.8506C132.265 95.4355 133.352 96.9323 133.634 98.6493C134.113 101.546 132.164 104.491 132.883 107.349C133.706 110.637 138.084 112.442 141.613 111.518C145.143 110.593 147.672 107.556 148.711 104.337C149.75 101.119 149.535 97.6455 149.171 94.2865Z" fill="#263238"/>
<path d="M138.319 68.9546C138.791 66.6279 139.927 64.4584 141.612 62.6683C143.296 60.8783 145.468 59.5322 147.905 58.7679C150.342 58.0036 152.956 57.8486 155.479 58.3189C158.003 58.7891 160.345 59.8677 162.265 61.444C163.822 62.7251 165.096 64.3232 166.897 65.2962C168.932 66.3924 169.195 66.0226 171.437 66.6874C173.678 67.3521 178.07 72.732 178.142 74.898L179.885 84.3193C179.943 86.5425 176.925 87.9733 174.588 87.401C172.251 86.8287 170.604 84.9312 169.263 83.0734C167.922 81.2155 166.648 79.2036 164.583 78.0369C161.159 76.1042 156.762 77.0904 152.883 78.0369C149.004 78.9835 144.497 79.7979 141.269 77.5967C138.51 75.6816 137.687 72.0716 138.319 68.9546Z" fill="#263238"/>
<path d="M137.083 82.6022C137.083 76.4036 141.053 68.5804 147.787 68.8621L169.004 72.5602C169.991 72.6004 170.926 72.9802 171.624 73.6244C172.321 74.2686 172.729 75.1301 172.768 76.0382L173.568 122.484H173.711C173.711 122.484 166.341 139.522 152.26 136.326C149.468 135.692 151.532 129.304 150.795 126.504L150.656 126.53C150.627 126.191 150.603 125.879 150.574 125.557C150.162 123.462 149.991 121.333 150.062 119.204C149.77 115.467 149.669 113.921 149.669 113.97C149.669 114.018 141.001 113.133 138.548 102.942C137.332 97.8964 137.059 89.4921 137.083 82.6022Z" fill="#FFBE9D"/>
<path d="M140.828 90.7119C140.847 91.056 141.011 91.3798 141.286 91.6142C141.56 91.8486 141.924 91.9751 142.298 91.9666C142.482 91.9702 142.665 91.9398 142.836 91.8773C143.006 91.8149 143.162 91.7216 143.292 91.6029C143.423 91.4843 143.527 91.3428 143.597 91.1867C143.668 91.0307 143.703 90.8632 143.702 90.6943C143.683 90.3502 143.519 90.0264 143.244 89.792C142.97 89.5576 142.606 89.4311 142.231 89.4396C142.048 89.4361 141.865 89.4664 141.694 89.5289C141.524 89.5914 141.368 89.6847 141.237 89.8033C141.107 89.9219 141.003 90.0634 140.933 90.2195C140.862 90.3756 140.827 90.543 140.828 90.7119Z" fill="#263238"/>
<path d="M139.348 86.8597C139.535 87.0225 140.574 86.2213 142.121 86.1421C143.668 86.0628 144.846 86.7056 144.995 86.5251C145.076 86.4414 144.87 86.1421 144.358 85.8383C143.661 85.4483 142.849 85.2667 142.035 85.3188C141.239 85.3711 140.482 85.653 139.87 86.1244C139.391 86.4678 139.253 86.7892 139.348 86.8597Z" fill="#263238"/>
<path d="M154.765 89.9943C154.784 90.3384 154.948 90.6622 155.223 90.8966C155.497 91.131 155.861 91.2575 156.235 91.249C156.419 91.2525 156.602 91.2222 156.773 91.1597C156.943 91.0972 157.099 91.0039 157.23 90.8853C157.36 90.7667 157.464 90.6252 157.534 90.4691C157.605 90.313 157.64 90.1456 157.639 89.9767C157.62 89.6302 157.454 89.3044 157.176 89.0697C156.898 88.8349 156.531 88.71 156.154 88.722C155.972 88.7202 155.79 88.7519 155.621 88.8152C155.452 88.8784 155.299 88.972 155.169 89.0904C155.04 89.2089 154.938 89.3498 154.868 89.505C154.799 89.6602 154.764 89.8265 154.765 89.9943Z" fill="#263238"/>
<path d="M154.554 86.2873C154.741 86.4458 155.78 85.6489 157.327 85.5653C158.874 85.4816 160.052 86.1332 160.201 85.9483C160.277 85.8647 160.081 85.5653 159.564 85.2615C158.866 84.8734 158.055 84.692 157.241 84.742C156.438 84.7865 155.67 85.0622 155.047 85.5301C154.602 85.8911 154.458 86.2124 154.554 86.2873Z" fill="#263238"/>
<path d="M149.636 97.1306C149.636 97.0469 148.678 96.9501 147.097 96.8532C146.7 96.8532 146.321 96.7828 146.24 96.5407C146.182 96.1673 146.249 95.7866 146.432 95.4488C146.748 94.5684 147.073 93.613 147.418 92.6269C148.783 88.603 149.741 85.3056 149.564 85.2571C149.387 85.2087 148.127 88.4269 146.776 92.4464L145.842 95.2904C145.621 95.74 145.582 96.2474 145.732 96.7212C145.797 96.8468 145.893 96.9571 146.012 97.0433C146.13 97.1296 146.269 97.1896 146.417 97.2186C146.639 97.2612 146.866 97.2775 147.092 97.2671C148.663 97.2583 149.636 97.2098 149.636 97.1306Z" fill="#263238"/>
<path d="M149.669 113.996C154.945 113.776 160.051 112.216 164.42 109.488C164.42 109.488 161.106 116.862 149.841 116.532L149.669 113.996Z" fill="#EB996E"/>
<path d="M150.512 100.516C150.784 100.159 151.149 99.8722 151.575 99.6819C152.001 99.4915 152.473 99.4044 152.945 99.4288C153.288 99.4366 153.625 99.5086 153.936 99.6403C154.248 99.772 154.527 99.9607 154.756 100.195C154.978 100.42 155.12 100.702 155.162 101.004C155.204 101.306 155.144 101.612 154.99 101.881C154.759 102.15 154.446 102.349 154.091 102.453C153.737 102.558 153.356 102.562 152.998 102.467C152.252 102.27 151.557 101.937 150.953 101.489C150.767 101.387 150.605 101.252 150.474 101.093C150.412 101.018 150.376 100.928 150.37 100.833C150.364 100.739 150.389 100.646 150.441 100.565" fill="#EB996E"/>
<path d="M154.238 97.8612C153.984 97.8612 154.08 99.4021 152.72 100.573C151.36 101.744 149.559 101.678 149.559 101.894C149.559 101.991 149.976 102.171 150.732 102.149C151.716 102.108 152.652 101.75 153.376 101.137C154.071 100.547 154.488 99.7325 154.54 98.865C154.573 98.2178 154.358 97.8436 154.238 97.8612Z" fill="#263238"/>
<path d="M153.812 80.9029C153.989 81.2815 155.521 81.013 157.346 81.1142C159.171 81.2155 160.67 81.5853 160.885 81.2243C160.981 81.0526 160.703 80.7048 160.09 80.3438C159.271 79.9289 158.359 79.6911 157.425 79.6483C156.491 79.6056 155.558 79.7591 154.698 80.0972C154.051 80.401 153.759 80.7224 153.812 80.9029Z" fill="#263238"/>
<path d="M139.646 82.7168C139.938 83.025 140.982 82.6331 142.261 82.5451C143.539 82.457 144.655 82.6331 144.866 82.2809C144.967 82.1092 144.775 81.7967 144.277 81.5193C143.618 81.1866 142.865 81.0424 142.116 81.1052C141.367 81.1679 140.655 81.4347 140.072 81.8715C139.641 82.2281 139.516 82.5671 139.646 82.7168Z" fill="#263238"/>
<path d="M147.979 66.2118L148.851 65.0408C155.363 65.351 161.8 66.4736 167.984 68.3778C170.455 69.1395 172.965 70.0772 174.737 71.8338C177.179 74.2463 177.778 77.7331 178.257 80.9997C180.086 93.4279 181.772 106.243 178.305 118.377C177.175 116.915 175.115 116.347 173.18 116.114C171.245 115.88 169.229 115.889 167.433 115.172C166.458 114.761 165.587 114.168 164.876 113.429C164.165 112.691 163.629 111.824 163.305 110.884C162.665 108.987 162.772 106.944 163.606 105.112C164.512 103.074 166.231 101.057 165.632 98.9486C165.005 96.7165 162.098 95.5851 161.284 93.4059C159.88 89.6374 165.498 85.8601 164.057 82.1047C163.52 80.718 162.112 79.767 160.637 79.1947C159.162 78.6224 157.572 78.345 156.082 77.8123C153.606 76.8692 151.502 75.2525 150.054 73.179C148.605 71.1055 147.881 68.6744 147.979 66.2118Z" fill="#263238"/>
<path d="M181.111 72.3532C174.147 63.381 169.43 62.2936 162.878 61.959L171.978 80.7135C173.342 83.7336 175.22 87.3965 175.512 90.6499C175.857 94.5108 174.401 97.7423 172.452 101.172C170.114 105.292 167.547 109.219 163.529 112.037C159.511 114.855 150.565 118.399 145.919 116.572L152.399 119.904L167.878 119.957L185.91 120.023C185.91 120.023 188.017 118.324 189.87 113.939C194.521 102.955 188.879 82.36 181.111 72.3532Z" fill="#E88801"/>
<path d="M193.951 130.792C193.951 130.792 190.072 123.475 185.01 119.451C179.948 115.427 176.839 115.467 169.617 116.03C162.395 116.594 152.289 117.641 149.895 117.082L149.67 114.001C148.482 113.891 143.611 111.711 142.663 110.395C140.852 112.099 140.062 113.917 140.474 115.85L139.291 116.259C137.546 116.846 136.097 118.003 135.221 119.509C134.345 121.016 134.102 122.766 134.54 124.426C134.99 126.011 136.078 126.984 138.261 127.331C146.93 128.709 170.106 122.951 177.084 122.929C184.062 122.907 193.951 130.792 193.951 130.792Z" fill="#E88801"/>
<path d="M137.476 127.248C137.679 127.242 137.883 127.253 138.084 127.279C138.477 127.314 139.042 127.371 139.804 127.419C141.916 127.571 144.037 127.603 146.154 127.516C149.291 127.368 152.408 126.979 155.474 126.354C157.208 126.006 159.014 125.584 160.867 125.091L166.585 123.466C170.508 122.37 174.44 121.621 178.037 121.947C181.206 122.214 184.272 123.115 187.021 124.589C188.867 125.583 190.535 126.832 191.969 128.291C192.358 128.686 192.723 129.1 193.061 129.533C193.186 129.671 193.3 129.819 193.401 129.973C193.25 129.85 193.115 129.711 192.998 129.559C192.754 129.273 192.366 128.872 191.854 128.37C188.199 124.852 183.275 122.676 178.003 122.251C174.478 121.952 170.608 122.691 166.7 123.783C164.742 124.325 162.84 124.901 160.977 125.399C159.114 125.896 157.299 126.31 155.551 126.649C152.463 127.265 149.322 127.63 146.164 127.741C144.036 127.806 141.906 127.734 139.789 127.525C139.042 127.455 138.463 127.375 138.075 127.318C137.873 127.311 137.673 127.287 137.476 127.248Z" fill="#263238"/>
<path d="M194.368 128.388C185.622 117.937 168.855 113.943 155.684 119.174L141.795 121.881C138.132 122.462 132.255 123.558 131.977 126.68C131.724 129.986 132.507 133.289 134.233 136.198C137.461 141.366 135.708 148.292 138.936 153.46C140.459 155.903 142.016 158.382 144.238 160.324C146.46 162.265 149.477 163.625 152.523 163.322C155.914 162.987 158.692 160.711 160.847 158.281C165.488 153.046 168.386 146.689 172.73 141.248C177.073 135.806 182.198 131.8 191.326 131.285C192.983 131.188 197.71 133.217 197.71 133.217C197.845 132.601 194.784 128.877 194.368 128.388Z" fill="#E88801"/>
<g opacity="0.3">
<path d="M175.675 122.172C169.635 122.172 163.702 124.84 157.849 126.029C134.305 130.792 134.305 122.63 134.305 122.63C133.567 126.464 137.485 128.225 141.609 129.106C149.482 130.779 157.892 131.677 163.572 130.008C168.151 128.688 172.931 127.706 177.552 126.486C182.174 125.267 188.831 125.734 192.332 128.754C189.2 124.021 181.714 122.159 175.675 122.172Z" fill="black"/>
</g>
<g opacity="0.3">
<path d="M145.076 121.586C145.358 122.153 145.768 122.657 146.281 123.065C146.793 123.473 147.395 123.775 148.046 123.95C149.35 124.296 150.715 124.403 152.064 124.267C156.987 123.959 161.719 122.449 166.379 120.952C162.653 120.833 159.047 122.026 155.392 122.713C151.738 123.4 147.619 123.444 144.65 121.392" fill="black"/>
</g>
<path d="M195.551 131.738C195.551 131.738 195.508 131.708 195.44 131.642L195.148 131.333C194.894 131.056 194.507 130.669 193.994 130.176C192.551 128.781 190.807 127.679 188.874 126.94C187.525 126.472 186.108 126.19 184.669 126.103C183.02 125.98 181.36 126.029 179.722 126.249C176.245 126.689 172.572 127.811 168.673 128.833C164.775 129.854 161.053 130.92 157.514 131.091C154.394 131.215 151.268 131.01 148.199 130.479C145.584 130.039 143.501 129.528 142.059 129.198L140.402 128.811L139.976 128.705L139.827 128.661C139.878 128.654 139.93 128.654 139.98 128.661L140.416 128.745L142.083 129.093C143.52 129.396 145.617 129.876 148.232 130.299C151.289 130.806 154.397 130.995 157.5 130.862C161.001 130.682 164.727 129.665 168.606 128.595C172.485 127.525 176.183 126.447 179.688 126.02C181.345 125.805 183.022 125.763 184.688 125.896C186.476 125.991 188.224 126.411 189.833 127.132C191.442 127.853 192.879 128.86 194.061 130.096C194.569 130.603 194.947 130.999 195.187 131.285L195.46 131.606L195.551 131.738Z" fill="black"/>
<path d="M186.758 120.97C186.722 120.948 186.688 120.923 186.657 120.895L186.379 120.662C186.145 120.45 185.776 120.155 185.297 119.781C183.918 118.756 182.405 117.893 180.795 117.21C178.405 116.203 175.864 115.533 173.257 115.22C170.061 114.855 166.828 114.863 163.635 115.242C160.439 115.631 157.267 116.174 154.133 116.871C152.748 117.17 151.323 117.274 149.904 117.179C148.657 117.093 147.459 116.695 146.441 116.026C145.625 115.456 144.927 114.755 144.382 113.957C143.971 113.361 143.613 112.735 143.314 112.086C143.07 111.553 142.907 111.126 142.801 110.835L142.691 110.505C142.675 110.469 142.666 110.43 142.663 110.391C142.663 110.391 142.687 110.426 142.715 110.496C142.744 110.567 142.797 110.69 142.849 110.822C142.969 111.104 143.146 111.522 143.405 112.05C143.718 112.688 144.084 113.302 144.502 113.886C145.047 114.662 145.74 115.342 146.547 115.894C147.545 116.534 148.714 116.913 149.928 116.99C151.324 117.073 152.725 116.963 154.085 116.664C157.223 115.953 160.402 115.403 163.606 115.018C166.821 114.636 170.076 114.636 173.29 115.018C175.916 115.345 178.473 116.038 180.872 117.074C182.487 117.77 183.996 118.658 185.359 119.715C185.729 120.003 186.082 120.309 186.418 120.631L186.676 120.877C186.734 120.939 186.762 120.965 186.758 120.97Z" fill="black"/>
<path d="M183.932 120.754H183.812L183.458 120.701L182.093 120.494C180.42 120.257 178.735 120.1 177.045 120.023C174.536 119.91 172.022 119.983 169.526 120.243C166.472 120.62 163.446 121.165 160.464 121.877C157.284 122.581 154.19 123.197 151.322 123.158C149.967 123.166 148.618 123.018 147.303 122.717C146.157 122.42 145.097 121.892 144.2 121.172C142.912 120.138 141.866 118.874 141.125 117.457C140.843 116.944 140.62 116.405 140.459 115.85C140.482 115.881 140.5 115.915 140.512 115.951L140.641 116.259C140.761 116.532 140.943 116.924 141.211 117.412C141.977 118.8 143.031 120.035 144.315 121.049C145.199 121.741 146.237 122.248 147.356 122.533C148.654 122.823 149.986 122.963 151.322 122.951C154.157 122.951 157.227 122.365 160.421 121.656C163.415 120.94 166.454 120.396 169.521 120.028C172.029 119.779 174.555 119.722 177.074 119.856C178.769 119.946 180.458 120.127 182.131 120.397C182.725 120.499 183.18 120.582 183.491 120.648L183.841 120.723C183.898 120.736 183.932 120.75 183.932 120.754Z" fill="black"/>
<path d="M184.373 100.996C184.33 101.246 184.269 101.493 184.191 101.735C184.116 102.025 184.023 102.31 183.913 102.59C183.788 102.92 183.669 103.298 183.477 103.699C183.285 104.1 183.099 104.549 182.845 105.02C182.591 105.491 182.308 105.962 181.997 106.468C180.599 108.632 178.779 110.541 176.628 112.099C176.125 112.451 175.67 112.79 175.192 113.063C174.713 113.336 174.282 113.596 173.865 113.811C173.448 114.027 173.065 114.203 172.73 114.357C172.443 114.496 172.147 114.618 171.844 114.723C171.594 114.828 171.337 114.917 171.073 114.987C171.306 114.854 171.552 114.74 171.806 114.644C172.045 114.542 172.337 114.415 172.668 114.243C172.998 114.071 173.381 113.908 173.779 113.671C174.176 113.433 174.626 113.204 175.077 112.905C175.527 112.605 176.001 112.284 176.513 111.936C178.623 110.371 180.421 108.483 181.829 106.354C182.141 105.856 182.447 105.39 182.687 104.932C182.926 104.474 183.166 104.051 183.343 103.646C183.52 103.241 183.673 102.88 183.822 102.559C183.97 102.237 184.057 101.951 184.133 101.722C184.19 101.474 184.27 101.231 184.373 100.996Z" fill="black"/>
<path d="M183.649 127.239C183.519 127.239 183.39 127.228 183.262 127.208L182.783 127.151C182.601 127.129 182.385 127.151 182.15 127.12C180.796 127.09 179.447 127.282 178.166 127.688C177.282 127.967 176.423 128.305 175.594 128.7C174.644 129.16 173.722 129.666 172.83 130.215C170.943 131.373 168.97 132.79 166.853 134.221L156.049 141.595L152.749 143.797L151.844 144.369C151.743 144.444 151.634 144.509 151.518 144.563C151.609 144.48 151.707 144.403 151.81 144.334L152.687 143.708L155.939 141.441L166.714 134.036C168.831 132.61 170.805 131.192 172.715 130.039C173.616 129.49 174.548 128.986 175.508 128.529C176.351 128.138 177.225 127.806 178.123 127.534C179.424 127.137 180.795 126.967 182.165 127.032C182.404 127.032 182.62 127.054 182.802 127.08L183.281 127.16C183.406 127.176 183.529 127.202 183.649 127.239Z" fill="black"/>
<path d="M199.104 140.737C199.012 140.537 198.941 140.329 198.894 140.116C198.779 139.716 198.616 139.13 198.386 138.417C198.127 137.58 197.799 136.764 197.404 135.973C196.924 135.012 196.268 134.133 195.465 133.376C194.665 132.616 193.665 132.059 192.562 131.76C191.654 131.537 190.711 131.461 189.775 131.536C188.908 131.625 188.048 131.76 187.198 131.941C187.25 131.909 187.306 131.886 187.366 131.87C187.481 131.831 187.648 131.778 187.845 131.721C188.47 131.55 189.111 131.435 189.761 131.377C190.722 131.274 191.697 131.335 192.634 131.558C193.781 131.856 194.821 132.427 195.651 133.213C196.476 133.989 197.144 134.894 197.625 135.885C198.017 136.689 198.337 137.521 198.582 138.373C198.788 139.095 198.927 139.694 199.013 140.099C199.064 140.309 199.094 140.522 199.104 140.737Z" fill="black"/>
<path d="M190.609 58.5705C200.025 58.1683 207.305 50.825 206.867 42.1688C206.43 33.5126 198.441 26.8213 189.024 27.2235C179.607 27.6256 172.328 34.9689 172.766 43.6252C173.203 52.2814 181.192 58.9726 190.609 58.5705Z" fill="white"/>
<path d="M180.321 61.0302C180.479 60.9893 180.639 60.9555 180.8 60.9289C181.261 60.8764 181.728 60.958 182.136 61.1622C182.417 61.2965 182.662 61.4859 182.855 61.7169C183.068 61.9855 183.193 62.305 183.214 62.6371C183.259 63.0189 183.175 63.4043 182.975 63.7413C182.774 64.0783 182.466 64.3507 182.092 64.5219C181.718 64.6931 181.296 64.7549 180.883 64.6989C180.469 64.6429 180.085 64.4718 179.78 64.2087C179.506 63.9933 179.303 63.7109 179.196 63.3943C179.107 63.108 179.089 62.8072 179.143 62.5138C179.214 62.0914 179.424 61.6993 179.747 61.3912C179.976 61.1754 180.144 61.1006 180.134 61.0874C180.092 61.0993 180.052 61.1172 180.015 61.1402C179.966 61.1632 179.92 61.1897 179.876 61.2195C179.816 61.2604 179.758 61.3045 179.703 61.3515C179.408 61.6112 179.194 61.9387 179.082 62.3003C178.971 62.6618 178.967 63.0441 179.071 63.4075C179.177 63.7498 179.391 64.056 179.684 64.288C180.004 64.5493 180.397 64.7232 180.819 64.7899C181.274 64.8779 181.747 64.8224 182.162 64.6322C182.578 64.442 182.911 64.1283 183.109 63.7421C183.303 63.3917 183.39 62.9987 183.358 62.6062C183.332 62.2504 183.194 61.9093 182.96 61.6245C182.756 61.3793 182.492 61.1817 182.189 61.0478C181.759 60.8434 181.268 60.7739 180.791 60.8497C180.717 60.8596 180.645 60.8758 180.575 60.8981C180.521 60.9109 180.468 60.9286 180.417 60.9509C180.36 60.9993 180.316 61.0302 180.321 61.0302Z" fill="#263238"/>
<path d="M175.603 51.8247L175.465 51.6002L175.043 50.9574C174.952 50.8121 174.847 50.6537 174.732 50.482C174.617 50.3103 174.531 50.0989 174.416 49.8788C174.301 49.6587 174.181 49.4386 174.052 49.1744C173.981 49.0469 173.922 48.9144 173.875 48.7782C173.822 48.6373 173.764 48.4964 173.707 48.338C173.127 46.9099 172.786 45.4092 172.696 43.8871C172.564 41.8712 172.853 39.8506 173.549 37.9349L173.851 37.1337C173.97 36.8651 174.109 36.6054 174.239 36.3368C174.301 36.2048 174.368 36.0727 174.435 35.9362C174.496 35.7985 174.57 35.666 174.655 35.54L175.134 34.7519C175.216 34.6199 175.297 34.4878 175.383 34.3557L175.68 33.9771L176.279 33.2111C176.485 32.9601 176.729 32.7268 176.959 32.4803L177.309 32.1149C177.366 32.0576 177.423 31.9916 177.486 31.9344L177.682 31.7671C178.196 31.2925 178.745 30.8512 179.325 30.4463C179.622 30.2482 179.909 30.0061 180.225 29.8344L181.183 29.2929C181.346 29.2048 181.504 29.1036 181.662 29.0243L182.184 28.7954C182.534 28.6457 182.878 28.4784 183.238 28.3551C183.976 28.0851 184.733 27.8586 185.503 27.6772L186.087 27.5407L186.384 27.4747L186.686 27.435L187.898 27.2677C188.31 27.2281 188.721 27.2193 189.138 27.1973C189.344 27.1973 189.555 27.1665 189.765 27.1973L190.393 27.2237C191.242 27.2523 192.089 27.3332 192.926 27.4658L194.186 27.7432L194.502 27.8136C194.607 27.8401 194.708 27.8753 194.813 27.9061L195.431 28.1042L196.054 28.2979L196.657 28.5445L197.261 28.7998L197.562 28.9231C197.663 28.9715 197.754 29.0243 197.855 29.0772L199.014 29.6891L200.115 30.4111C203.071 32.4474 205.223 35.3147 206.245 38.5777C206.36 38.9783 206.471 39.3833 206.581 39.7796L206.782 40.999L206.83 41.3028V41.6066L206.863 42.2141L206.897 42.8217L206.868 43.4248L206.839 44.0279V44.3273L206.796 44.6223C206.734 45.0185 206.676 45.4103 206.619 45.8021C206.449 46.5695 206.224 47.3255 205.944 48.065L205.743 48.6109C205.676 48.7958 205.575 48.9631 205.494 49.1392C205.316 49.487 205.163 49.8392 204.971 50.1738C204.78 50.5084 204.564 50.8298 204.363 51.1555L204.21 51.3977C204.153 51.4769 204.09 51.5518 204.033 51.6266L203.683 52.0669C203.221 52.6599 202.717 53.2246 202.175 53.7574C201.902 54.0171 201.609 54.2505 201.332 54.497L200.905 54.858C200.766 54.9769 200.604 55.0781 200.455 55.1838L199.555 55.8178C199.248 56.0159 198.918 56.1832 198.597 56.3637C197.983 56.7155 197.343 57.0274 196.681 57.297L196.442 57.4026L196.193 57.4907L195.714 57.6536C195.379 57.7592 195.058 57.8869 194.727 57.975L193.731 58.2083L193.252 58.3228L192.773 58.3932L191.815 58.5297C191.657 58.5552 191.497 58.5699 191.336 58.5737H190.857C190.541 58.5737 190.225 58.6133 189.9 58.6177L188.975 58.5825C186.781 58.4833 184.628 57.996 182.634 57.1473C182.414 57.0548 182.194 56.9712 181.983 56.8788L181.389 56.5618L180.814 56.2624C180.718 56.2096 180.623 56.1656 180.536 56.1127L180.283 55.9454L179.325 55.3115C179.023 55.1002 178.764 54.8712 178.501 54.6687L178.127 54.3693C178.007 54.2778 177.894 54.1793 177.787 54.0744L177.141 53.5461C176.964 53.37 176.791 53.2115 176.662 53.0574L176.293 52.6172L175.814 52.0228C175.704 51.8908 175.642 51.8247 175.642 51.8247L175.805 52.0316C175.915 52.1725 176.078 52.3706 176.284 52.6348L176.643 53.075C176.786 53.2335 176.959 53.392 177.122 53.5681L177.696 54.1448C177.802 54.2523 177.915 54.3523 178.036 54.4442L178.41 54.748C178.669 54.9505 178.927 55.1882 179.229 55.3951L180.187 56.0379L180.441 56.2052C180.532 56.2624 180.627 56.3064 180.718 56.3593L181.293 56.663L181.892 56.9844L182.543 57.2574C184.545 58.1188 186.71 58.6152 188.918 58.719L189.847 58.7586C190.158 58.7586 190.479 58.7322 190.805 58.719L191.284 58.6926C191.444 58.692 191.604 58.6787 191.763 58.653L192.744 58.5165L193.223 58.446L193.702 58.3316L194.708 58.0982C195.038 58.0102 195.364 57.8869 195.699 57.7813L196.202 57.614C196.284 57.5832 196.37 57.5611 196.451 57.5259L196.696 57.4203C197.368 57.1489 198.019 56.8356 198.645 56.4825C198.961 56.302 199.291 56.1347 199.603 55.9366L200.513 55.2983C200.666 55.1882 200.824 55.0914 200.992 54.9725L201.418 54.6071C201.696 54.3605 201.997 54.1228 202.27 53.8631C202.817 53.3259 203.326 52.7568 203.793 52.1593C203.908 52.0052 204.028 51.8555 204.148 51.7191C204.205 51.6442 204.267 51.5694 204.325 51.4901L204.478 51.2436L205.096 50.2574C205.288 49.9184 205.446 49.5618 205.623 49.2141C205.704 49.0336 205.81 48.8619 205.877 48.6814L206.078 48.1266C206.362 47.3818 206.589 46.6199 206.758 45.8462C206.82 45.4543 206.882 45.0537 206.94 44.6575L206.988 44.3581V44.0544L207.017 43.4512L207.045 42.8393L207.012 42.2273L206.973 41.6154V41.3028L206.921 40.999L206.72 39.7708C206.609 39.3657 206.499 38.9607 206.384 38.5557C205.374 35.2543 203.214 32.3485 200.235 30.2834L199.124 29.5526L197.95 28.9363C197.855 28.8834 197.759 28.8306 197.658 28.7822L197.352 28.6545L196.743 28.3992L196.135 28.1526L195.508 27.9545L194.88 27.7564L194.569 27.6596L194.248 27.5935C193.827 27.4967 193.401 27.4042 192.979 27.3162C192.134 27.1799 191.279 27.0975 190.422 27.0696L189.789 27.0432C189.579 27.0432 189.368 27.0432 189.157 27.0432C188.736 27.0696 188.319 27.074 187.907 27.1137L186.681 27.2853L186.379 27.3294C186.279 27.3294 186.178 27.3734 186.082 27.3954L185.489 27.5363C184.713 27.7166 183.951 27.9445 183.209 28.2187C182.845 28.3596 182.495 28.5312 182.141 28.6809L181.619 28.9143C181.446 28.9935 181.288 29.0948 181.14 29.1872L180.182 29.7331C179.866 29.9268 179.574 30.1514 179.277 30.3539C178.692 30.7588 178.139 31.2001 177.62 31.6746L177.423 31.8463C177.361 31.9035 177.304 31.9696 177.246 32.0312C177.189 32.0928 177.012 32.2777 176.892 32.3966C176.662 32.6476 176.413 32.8809 176.212 33.1318L175.608 33.9067L175.311 34.2897C175.225 34.4218 175.144 34.5582 175.062 34.6903L174.583 35.4827C174.5 35.6108 174.428 35.7448 174.368 35.8834L174.167 36.2884C174.037 36.557 173.899 36.8211 173.784 37.0897C173.669 37.3582 173.582 37.6312 173.482 37.8997C172.787 39.8275 172.504 41.8606 172.649 43.8871C172.744 45.4167 173.095 46.9237 173.688 48.3556L173.86 48.7958C173.908 48.9321 173.967 49.0646 174.037 49.192L174.411 49.8964C174.531 50.1122 174.626 50.3147 174.737 50.4952L175.053 50.9662L175.489 51.6046C175.546 51.7499 175.603 51.8247 175.603 51.8247Z" fill="#263238"/>
<path d="M181.198 43.2925L183.727 40.968L188.602 44.9523L198.171 36.4863L200.518 38.8108L188.243 49.434L181.198 43.2925Z" fill="#73BF44"/>
</svg>
