<svg width="158" height="200" viewBox="0 0 158 200" fill="none" xmlns="http://www.w3.org/2000/svg">
<path d="M97.211 181.798C97.211 181.798 128.585 186.57 129.857 186.851C131.761 187.275 132.259 194.014 129.396 194.274C128.044 194.386 106.167 197.885 103.372 198.044C100.578 198.203 91.7974 195.923 91.7974 195.923L97.211 181.798Z" fill="#455A64"/>
<path d="M111.247 191.872C111.406 191.872 111.416 190.244 112.196 188.452C112.975 186.66 114.12 185.509 114.009 185.398C113.898 185.287 112.535 186.326 111.724 188.251C110.913 190.175 111.119 191.904 111.247 191.872Z" fill="#263238"/>
<path d="M107.912 190.817C108.06 190.817 108.198 189.354 108.818 187.667C109.439 185.981 110.255 184.762 110.133 184.672C110.011 184.582 108.972 185.732 108.336 187.493C107.7 189.253 107.779 190.822 107.912 190.817Z" fill="#263238"/>
<path d="M104.846 190.377C104.995 190.35 104.698 188.844 105.17 187.084C105.642 185.324 106.601 184.141 106.485 184.046C106.368 183.95 105.159 185.037 104.677 186.957C104.194 188.876 104.724 190.435 104.846 190.377Z" fill="#263238"/>
<path d="M104.915 186.39C104.968 186.39 105.138 185.515 104.968 184.088C104.863 183.254 104.66 182.436 104.363 181.649C104.191 181.184 103.984 180.732 103.743 180.297C103.616 180.019 103.417 179.781 103.165 179.608C102.997 179.503 102.796 179.464 102.601 179.497C102.405 179.53 102.229 179.634 102.105 179.788C101.896 180.043 101.789 180.366 101.802 180.695C101.803 180.965 101.822 181.234 101.861 181.501C101.927 182.001 102.049 182.492 102.227 182.964C102.526 183.753 102.933 184.497 103.436 185.175C103.86 185.822 104.399 186.387 105.026 186.84C105.09 186.782 104.496 186.135 103.743 184.969C103.302 184.294 102.946 183.567 102.683 182.805C102.534 182.361 102.431 181.903 102.375 181.437C102.333 180.971 102.253 180.377 102.502 180.128C102.546 180.066 102.612 180.024 102.685 180.009C102.759 179.995 102.836 180.008 102.9 180.048C103.069 180.176 103.203 180.344 103.292 180.536C103.527 180.951 103.734 181.382 103.913 181.824C104.217 182.574 104.448 183.352 104.602 184.147C104.862 185.509 104.83 186.39 104.915 186.39Z" fill="#263238"/>
<path d="M104.836 186.108C104.836 186.05 104.083 185.886 102.842 186.024C102.116 186.112 101.403 186.29 100.721 186.554C100.298 186.697 99.8983 186.901 99.5334 187.158C99.2957 187.311 99.115 187.537 99.0191 187.803C98.9233 188.068 98.9176 188.358 99.0031 188.627C99.1028 188.881 99.2691 189.104 99.4847 189.272C99.7002 189.44 99.9569 189.547 100.228 189.582C100.687 189.639 101.154 189.581 101.585 189.412C102.893 188.854 103.982 187.884 104.687 186.649C104.629 186.591 104.115 187.18 103.203 187.938C102.684 188.389 102.085 188.738 101.437 188.966C101.075 189.096 100.688 189.138 100.307 189.088C100.126 189.063 99.9552 188.991 99.8102 188.879C99.6653 188.768 99.5517 188.62 99.4803 188.452C99.4306 188.284 99.438 188.105 99.5013 187.942C99.5646 187.778 99.6804 187.641 99.8303 187.551C100.16 187.321 100.516 187.133 100.891 186.989C101.537 186.721 102.208 186.52 102.895 186.39C104.077 186.135 104.836 186.167 104.836 186.108Z" fill="#263238"/>
<path d="M115.955 191.639C116.103 191.607 115.796 190.324 116.225 188.829C116.655 187.333 117.535 186.379 117.429 186.273C117.323 186.167 116.178 187.026 115.732 188.691C115.287 190.356 115.838 191.708 115.955 191.639Z" fill="#263238"/>
<path d="M94.9258 195.579C95.3229 195.762 95.739 195.9 96.1665 195.992C97.3188 196.286 98.4898 196.5 99.6714 196.634C103.577 197.01 107.513 196.912 111.395 196.342C115.944 195.748 120.016 195.054 122.98 194.576L126.475 193.967C126.908 193.916 127.335 193.818 127.747 193.675C127.312 193.664 126.877 193.696 126.448 193.77L122.927 194.216L111.363 195.838C107.515 196.395 103.619 196.541 99.7403 196.273C96.7392 196.024 94.9523 195.483 94.9258 195.579Z" fill="#263238"/>
<path d="M94.1147 196.379C94.1624 196.443 94.9366 195.849 96.2674 195.075C97.9541 194.011 99.9048 193.442 101.899 193.431C104.232 193.51 106.034 194.852 107.201 195.79C108.367 196.729 109.11 197.429 109.163 197.381C108.673 196.688 108.091 196.063 107.434 195.525C106.753 194.896 106.002 194.346 105.197 193.887C104.19 193.308 103.059 192.98 101.899 192.932C99.8101 192.928 97.7719 193.573 96.066 194.778C94.7669 195.652 94.0776 196.331 94.1147 196.379Z" fill="#263238"/>
<path d="M66.028 180.891C66.028 180.891 35.4443 189.375 34.2142 189.788C32.3742 190.441 32.6818 197.212 35.5503 197.084C36.9077 197.037 59.0449 197.912 61.8392 197.737C64.6335 197.562 72.1628 194.592 72.1628 194.592L66.028 180.891Z" fill="#455A64"/>
<path d="M53.2867 192.567C53.1329 192.567 52.9261 190.976 51.9399 189.279C50.9537 187.583 49.6811 186.586 49.7766 186.464C49.872 186.342 51.3672 187.212 52.3853 189.025C53.4033 190.838 53.4139 192.577 53.2867 192.567Z" fill="#263238"/>
<path d="M56.479 191.119C56.3252 191.146 56.0177 189.698 55.2011 188.102C54.3846 186.506 53.4249 185.382 53.5362 185.281C53.6476 185.181 54.8141 186.177 55.6571 187.869C56.5002 189.56 56.6062 191.109 56.479 191.119Z" fill="#263238"/>
<path d="M59.4692 190.319C59.3154 190.319 59.432 188.781 58.7534 187.084C58.0747 185.388 56.9771 184.338 57.0884 184.226C57.1998 184.115 58.5201 185.054 59.2094 186.878C59.8987 188.702 59.5911 190.351 59.4692 190.319Z" fill="#263238"/>
<path d="M58.923 186.368C58.87 186.368 58.5995 185.525 58.5942 184.088C58.6054 182.747 58.8661 181.42 59.3631 180.175C59.4556 179.887 59.6241 179.628 59.8509 179.427C60.005 179.308 60.1965 179.248 60.3909 179.258C60.5854 179.268 60.7699 179.347 60.9114 179.481C61.149 179.709 61.2943 180.016 61.3196 180.345C61.3518 180.612 61.366 180.881 61.362 181.151C61.3518 181.656 61.2878 182.159 61.1712 182.651C60.9667 183.471 60.649 184.258 60.2274 184.99C59.5168 186.23 58.9018 186.861 58.8541 186.83C58.8063 186.798 59.2994 186.066 59.9145 184.82C60.2733 184.097 60.5422 183.333 60.7152 182.545C60.8139 182.087 60.8637 181.62 60.8636 181.151C60.8636 180.679 60.8636 180.09 60.5826 179.868C60.5333 179.81 60.4638 179.775 60.3886 179.768C60.3135 179.761 60.2386 179.783 60.1796 179.83C60.0253 179.977 59.9088 180.159 59.8403 180.361C59.6614 180.801 59.5074 181.25 59.379 181.707C59.1675 182.49 59.0325 183.291 58.976 184.099C58.87 185.488 59.0078 186.352 58.923 186.368Z" fill="#263238"/>
<path d="M58.9658 186.056C58.9658 185.997 59.6869 185.748 60.9383 185.738C61.6693 185.737 62.3976 185.826 63.1069 186.003C63.5434 186.098 63.9646 186.253 64.3583 186.464C64.6099 186.59 64.8133 186.796 64.9377 187.048C65.0621 187.301 65.1007 187.587 65.0476 187.864C64.9778 188.127 64.8387 188.367 64.6447 188.558C64.4507 188.749 64.209 188.885 63.9447 188.951C63.4941 189.065 63.022 189.065 62.5714 188.951C61.8488 188.767 61.173 188.433 60.5883 187.97C60.0303 187.596 59.5467 187.121 59.162 186.57C59.2203 186.506 59.7983 187.01 60.7951 187.673C61.3631 188.062 62.0002 188.339 62.6721 188.489C63.0435 188.577 63.4302 188.577 63.8015 188.489C63.9782 188.443 64.1398 188.352 64.2708 188.224C64.4017 188.097 64.4976 187.938 64.5492 187.763C64.5795 187.59 64.5511 187.412 64.4684 187.258C64.3858 187.103 64.2537 186.98 64.0932 186.909C63.7448 186.716 63.3721 186.569 62.985 186.475C62.3118 186.283 61.6206 186.162 60.9224 186.114C59.7241 186.013 58.9764 186.135 58.9658 186.056Z" fill="#263238"/>
<path d="M48.5886 192.89C48.4348 192.89 48.5886 191.565 47.9841 190.133C47.3797 188.702 46.3934 187.858 46.4889 187.737C46.5843 187.615 47.8145 188.341 48.456 189.942C49.0976 191.544 48.7105 192.943 48.5886 192.89Z" fill="#263238"/>
<path d="M69.9305 194.306C69.5555 194.53 69.1594 194.716 68.7481 194.863C67.6385 195.292 66.5012 195.646 65.344 195.923C62.4171 196.66 58.2495 197.074 53.6789 197.026C49.1083 196.978 44.9672 196.766 41.9714 196.649L38.4294 196.459C37.9927 196.46 37.5572 196.413 37.1304 196.321C37.5623 196.26 37.9991 196.24 38.4347 196.262L41.982 196.289L53.6842 196.517C57.5723 196.612 61.4595 196.294 65.2804 195.568C68.186 194.963 69.8934 194.21 69.9305 194.306Z" fill="#263238"/>
<path d="M70.8325 195.001C70.7954 195.069 69.9576 194.582 68.5419 193.94C66.7394 193.092 64.7352 192.767 62.757 193.002C60.4505 193.352 58.8174 194.9 57.7517 195.976C57.2047 196.615 56.6167 197.217 55.9913 197.779C55.9436 197.737 56.4632 196.925 57.4865 195.732C58.087 195.022 58.7686 194.385 59.5173 193.834C60.447 193.143 61.5289 192.685 62.6722 192.498C64.749 192.244 66.8534 192.641 68.6956 193.633C69.4749 193.974 70.1959 194.436 70.8325 195.001Z" fill="#263238"/>
<path d="M40.1533 196.326C40.2783 195.932 40.4271 195.546 40.5986 195.17C40.9224 194.247 40.9992 193.256 40.8216 192.294C40.644 191.332 40.218 190.434 39.5859 189.687C39.1034 189.104 38.7163 188.823 38.7534 188.77C38.7906 188.717 39.236 188.929 39.8139 189.491C40.5524 190.237 41.0488 191.188 41.238 192.22C41.4272 193.252 41.3005 194.317 40.8744 195.276C40.7348 195.685 40.4853 196.049 40.1533 196.326Z" fill="#263238"/>
<path d="M62.2529 137.327L56.2188 147.784C56.2188 147.784 26.3244 136.845 8.82674 140.032C2.17233 141.246 -4.95928 156.342 4.74395 166.013C14.2033 175.472 31.1177 188.845 62.852 193.171C63.6474 193.278 76.6381 196.072 75.8427 195.976C75.0474 195.881 94.8674 199.158 94.8674 199.158L98.5313 181.999L133.977 187.562C154.863 186.135 165.086 163.797 152.509 156.607C140.775 149.899 118.707 149.364 118.707 149.364L110.727 136.845L62.2529 137.327Z" fill="#263238"/>
<path d="M94.7876 199.524C94.8777 198.951 95.1322 197.403 95.6465 194.258C95.9328 192.578 96.2775 190.52 96.707 188.161C96.935 186.978 97.1842 185.722 97.4864 184.396C97.6349 183.733 97.7993 183.055 98.0167 182.365C98.1121 182.021 98.2182 181.671 98.3401 181.305C98.4488 180.921 98.6287 180.562 98.8703 180.244L98.9234 180.499C91.3782 177.821 81.956 174.285 71.8815 170.043C65.7044 167.392 59.8718 164.74 54.7392 161.994C52.3009 160.728 49.9597 159.284 47.7348 157.672C45.651 156.129 43.7952 154.592 42.0507 153.256C38.6042 150.53 35.4759 148.775 33.1375 148.027C32.6256 147.843 32.1033 147.689 31.5734 147.566C31.1904 147.457 30.8007 147.372 30.4068 147.312L29.6857 147.179L29.4365 147.126C29.521 147.116 29.6065 147.116 29.691 147.126L30.4228 147.222C30.82 147.264 31.2135 147.337 31.5999 147.439C32.1376 147.553 32.6687 147.696 33.1906 147.868C34.6176 148.332 35.9915 148.945 37.2893 149.698C39.0079 150.691 40.6555 151.801 42.2204 153.022C43.9755 154.353 45.8419 155.88 47.9257 157.402C50.1508 159.009 52.49 160.451 54.9247 161.718C60.0468 164.454 65.874 167.1 72.0459 169.725C82.0885 173.966 91.5054 177.524 99.0294 180.244L99.2415 180.319L99.0824 180.499C98.877 180.779 98.7193 181.09 98.6158 181.421C98.4939 181.756 98.3878 182.1 98.2924 182.44C98.0962 183.124 97.9265 183.797 97.7622 184.454C97.4546 185.769 97.1895 187.026 96.9562 188.203C96.4896 190.557 96.1184 192.604 95.8109 194.285L95.0898 198.166C94.9996 198.612 94.9307 198.951 94.8724 199.179C94.8511 199.295 94.8228 199.411 94.7876 199.524Z" fill="#455A64"/>
<path d="M145.648 158.669C145.648 158.669 145.584 158.669 145.457 158.669L144.927 158.584C144.439 158.521 143.739 158.335 142.806 158.245C140.199 157.903 137.566 157.81 134.942 157.969C131.052 158.217 127.195 158.853 123.431 159.867C121.31 160.435 119.094 161.108 116.83 161.888C114.566 162.667 112.259 163.579 109.894 164.539C107.584 165.452 105.222 166.231 102.821 166.872C100.504 167.508 98.2399 168.012 96.0712 168.431C91.7339 169.274 87.789 169.793 84.4803 170.202C81.1717 170.61 78.4781 170.875 76.6223 171.066L74.5014 171.273L73.9712 171.32C73.8492 171.32 73.7803 171.32 73.7803 171.32L73.9659 171.283L74.4961 171.198L76.617 170.917L84.4538 169.931C87.7572 169.496 91.6915 168.945 96.0129 168.086C98.1709 167.657 100.43 167.153 102.736 166.495C105.122 165.852 107.469 165.074 109.767 164.168C112.127 163.224 114.449 162.322 116.718 161.516C118.988 160.71 121.215 160.069 123.352 159.507C127.14 158.501 131.023 157.888 134.937 157.678C137.576 157.54 140.221 157.676 142.832 158.081C143.766 158.192 144.465 158.399 144.953 158.484L145.483 158.611L145.648 158.669Z" fill="#455A64"/>
<path d="M91.0441 152.593C91.0441 152.842 89.4534 153.245 86.8023 153.494C83.3385 153.789 79.8542 153.745 76.3991 153.362C72.9414 153.001 69.5267 152.307 66.2028 151.288C63.663 150.482 62.173 149.751 62.2525 149.507C62.4169 148.977 68.6949 150.647 76.6006 151.469C84.5064 152.29 90.9911 152.036 91.0441 152.593Z" fill="#263238"/>
<path d="M119.062 149.628C118.681 149.766 118.289 149.871 117.89 149.941C117.509 150.021 117.053 150.137 116.522 150.296C115.992 150.456 115.388 150.609 114.73 150.827C113.191 151.344 111.681 151.944 110.207 152.624C108.548 153.409 106.766 154.353 104.947 155.434C101.856 157.336 98.8916 159.434 96.0712 161.718C94.9843 162.587 94.1147 163.308 93.5208 163.801C93.2212 164.073 92.9022 164.323 92.5664 164.549C92.825 164.238 93.1107 163.951 93.4201 163.69C93.9874 163.16 94.8305 162.407 95.9016 161.511C98.6829 159.165 101.642 157.038 104.751 155.148C106.468 154.121 108.238 153.185 110.053 152.343C111.547 151.661 113.083 151.073 114.651 150.583C115.313 150.36 115.928 150.217 116.469 150.084C117.01 149.952 117.471 149.846 117.858 149.787C118.255 149.703 118.657 149.65 119.062 149.628Z" fill="#455A64"/>
<path d="M85.8319 164.523C85.1023 164.414 84.3896 164.213 83.7109 163.924C82.079 163.295 80.4856 162.571 78.9389 161.755L74.2887 159.321C73.6276 159.015 72.9897 158.66 72.3799 158.261C73.0813 158.454 73.7602 158.72 74.4054 159.056C75.6355 159.613 77.2898 160.461 79.1138 161.395C80.9378 162.328 82.6027 163.134 83.8382 163.648C85.0736 164.162 85.8478 164.465 85.8319 164.523Z" fill="#455A64"/>
<path d="M89.0935 138.558C89.1465 138.558 89.0458 139.661 88.9344 141.426C88.8231 143.192 88.7223 145.631 88.7753 148.319C88.8284 151.007 89.0192 153.452 89.1995 155.212C89.3798 156.973 89.5283 158.06 89.4699 158.07C89.3725 157.829 89.3083 157.576 89.2791 157.317C89.1783 156.835 89.0564 156.124 88.9344 155.244C88.3038 150.654 88.2131 146.006 88.664 141.394C88.7541 140.509 88.8496 139.804 88.9291 139.305C88.9522 139.05 89.0074 138.799 89.0935 138.558Z" fill="#455A64"/>
<path d="M92.3913 139.65C92.3913 139.676 92.264 139.761 92.0784 139.978C91.8275 140.282 91.6659 140.649 91.6118 141.039C91.5716 141.321 91.5919 141.609 91.6715 141.884C91.751 142.158 91.8879 142.412 92.0731 142.629C92.3282 142.858 92.6409 143.013 92.9776 143.077C93.3142 143.141 93.6619 143.112 93.9833 142.993C94.3047 142.874 94.5875 142.67 94.8012 142.402C95.0149 142.134 95.1515 141.813 95.1962 141.474C95.1917 141.19 95.1276 140.91 95.0079 140.652C94.8882 140.394 94.7157 140.165 94.5016 139.978C94.2042 139.706 93.837 139.523 93.4411 139.448C93.1601 139.406 92.9957 139.448 92.9904 139.4C92.9851 139.353 93.1389 139.305 93.4517 139.3C93.8974 139.313 94.3262 139.473 94.6713 139.756C94.9374 139.961 95.1542 140.223 95.3056 140.523C95.457 140.823 95.5392 141.153 95.5461 141.489C95.5054 141.9 95.3503 142.291 95.0986 142.618C94.8468 142.945 94.5084 143.194 94.1218 143.338C93.7352 143.483 93.3159 143.515 92.9116 143.433C92.5073 143.351 92.1341 143.157 91.8345 142.873C91.6212 142.614 91.4686 142.311 91.3878 141.985C91.3071 141.659 91.3003 141.32 91.3679 140.991C91.4474 140.553 91.667 140.153 91.9936 139.851C92.211 139.671 92.386 139.634 92.3913 139.65Z" fill="#455A64"/>
<path d="M99.8831 78.6676C99.8891 79.3317 99.7316 79.9872 99.4247 80.5762C99.1177 81.1652 98.6706 81.6696 98.1228 82.0452C97.712 82.2778 97.3155 82.5345 96.935 82.814C96.0549 83.5828 95.8746 84.8607 95.7738 85.9954C95.1344 85.2479 94.8178 84.2772 94.8937 83.2965C94.4576 84.0055 94.1406 84.781 93.9551 85.5924C93.4283 84.8896 93.0512 84.0862 92.847 83.232C92.6428 82.3777 92.6159 81.4906 92.7679 80.6255C92.92 79.7604 93.2477 78.9357 93.731 78.2022C94.2143 77.4688 94.8428 76.8421 95.5777 76.3611" fill="#263238"/>
<path d="M100.429 75.142C101.421 75.9851 101.543 77.8886 100.769 78.5885C100.361 78.9184 99.8841 79.151 99.3732 79.2686C98.8623 79.3862 98.3314 79.3857 97.8207 79.2672C97.2053 79.1749 96.623 78.9294 96.1273 78.5533C95.6316 78.1771 95.2385 77.6823 94.984 77.1145C94.7487 76.5363 94.7354 75.8916 94.9469 75.3043C95.1583 74.7169 95.5794 74.2286 96.1293 73.9331C96.9304 73.6545 97.8072 73.6886 98.5843 74.0285C99.2777 74.2427 99.9103 74.6189 100.429 75.1261C100.687 75.3815 100.885 75.6909 101.009 76.032C101.133 76.3731 101.179 76.7373 101.145 77.0986" fill="#FFC100"/>
<path d="M103.303 10.8352C104.947 11.6412 105.705 13.5978 105.843 15.4217C105.981 17.2457 105.652 19.0856 105.843 20.9043C106.065 23.2851 107.052 25.9734 105.567 27.8451C106.498 29.6334 106.936 31.6374 106.836 33.6511C106.737 35.6648 106.103 37.6157 105 39.3034C106.182 40.7719 106.786 42.6228 106.698 44.5063C106.609 46.3899 105.833 48.1756 104.517 49.5262C105.71 51.0427 105.97 53.1 105.853 55.03C105.737 56.9601 105.291 58.8583 105.254 60.7937C105.217 62.5805 105.53 64.3939 105.132 66.1384C104.735 67.8829 103.324 69.5955 101.543 69.5213C101.967 71.4089 102.38 73.4397 101.654 75.2319C100.928 77.024 98.5627 78.2754 96.9932 77.1407C95.6782 76.1969 95.6517 74.2934 95.7472 72.6814C95.8426 71.0695 98.0325 68.6093 97.2689 67.114C95.7154 64.0864 96.7016 59.8764 99.48 57.4426C98.7602 55.4083 98.8687 53.1726 99.7822 51.2177C100.131 50.6467 100.35 50.0059 100.424 49.3407C100.424 48.4128 99.6868 47.6704 99.1194 46.9281C98.2419 45.7574 97.6731 44.3846 97.4655 42.9363C97.2579 41.4879 97.4183 40.0107 97.9317 38.6406C98.3612 37.5324 99.0399 36.456 98.9922 35.263C98.9498 34.2768 98.4195 33.3913 98.1067 32.4581C97.7383 31.3078 97.6918 30.0785 97.9722 28.9037C98.2526 27.7288 98.8492 26.653 99.6974 25.7931C98.6273 24.4098 98.0623 22.7023 98.0961 20.9538C98.1299 19.2053 98.7603 17.5209 99.883 16.18C97.4439 14.5893 96.9349 10.6974 98.8861 8.52344" fill="#263238"/>
<path d="M98.3301 63.2379C99.5552 60.6517 101.674 58.5954 104.295 57.4478C103.875 57.5134 103.47 57.6515 103.097 57.856C101.234 58.7428 99.7152 60.2187 98.7755 62.0555C98.5605 62.4212 98.4099 62.8212 98.3301 63.2379Z" fill="#455A64"/>
<path d="M100.562 56.9811C100.509 57.0501 100.902 57.4265 101.188 58.0098C101.474 58.593 101.559 59.1286 101.644 59.1233C101.699 58.9138 101.709 58.6953 101.674 58.4816C101.64 58.2679 101.561 58.0639 101.443 57.8825C101.119 57.2622 100.6 56.9175 100.562 56.9811Z" fill="#455A64"/>
<path d="M100.7 53.1477C101.018 52.2065 101.445 51.306 101.973 50.4647C102.582 49.6766 103.283 48.9645 104.062 48.3438C103.132 48.7738 102.331 49.4412 101.741 50.279C101.151 51.1167 100.792 52.0952 100.7 53.1158V53.1477Z" fill="#455A64"/>
<path d="M99.332 41.6204C99.8718 40.9322 100.475 40.2966 101.135 39.7221C101.853 39.2238 102.616 38.7942 103.415 38.439C102.519 38.5762 101.674 38.9407 100.959 39.4976C100.244 40.0546 99.684 40.7854 99.332 41.6204Z" fill="#455A64"/>
<path d="M99.4916 36.053C99.4438 36.1272 100.112 36.5832 100.748 37.3627C101.384 38.1421 101.74 38.8579 101.809 38.8208C101.649 38.2164 101.357 37.6549 100.955 37.1764C100.552 36.6979 100.049 36.3143 99.481 36.053H99.4916Z" fill="#455A64"/>
<path d="M100.26 29.2927C100.688 28.3064 101.312 27.4173 102.094 26.6791C102.876 25.9409 103.8 25.369 104.809 24.9978C104.484 25.0038 104.164 25.0797 103.871 25.2205C103.139 25.5064 102.469 25.9313 101.898 26.4718C101.327 27.0119 100.864 27.6562 100.535 28.3701C100.378 28.6541 100.284 28.9688 100.26 29.2927Z" fill="#455A64"/>
<path d="M100.758 23.4705C100.874 23.9854 101.136 24.4563 101.511 24.8279C101.816 25.259 102.24 25.5923 102.73 25.7876C102.783 25.7239 102.269 25.2573 101.728 24.6423C101.436 24.2269 101.111 23.8351 100.758 23.4705Z" fill="#455A64"/>
<path d="M100.482 17.8398C100.999 17.1502 101.598 16.5253 102.264 15.9787C102.988 15.5116 103.764 15.1308 104.576 14.844C103.681 14.9126 102.823 15.2306 102.099 15.762C101.376 16.2934 100.816 17.0169 100.482 17.8504V17.8398Z" fill="#455A64"/>
<path d="M97.2588 70.6719C97.6328 70.7787 98.0259 70.8004 98.4094 70.7356C99.3531 70.6388 100.256 70.299 101.029 69.7493C101.796 69.1916 102.403 68.4419 102.789 67.5754C102.975 67.2326 103.078 66.8515 103.091 66.4619C103.044 66.4619 102.932 66.8755 102.609 67.4906C102.191 68.2956 101.589 68.9908 100.852 69.5196C100.115 70.0484 99.2635 70.396 98.367 70.5341C97.6989 70.6507 97.2588 70.6242 97.2588 70.6719Z" fill="#455A64"/>
<path d="M95.1856 7.12367C97.683 5.3633 101.273 6.30711 103.611 8.26897C104.221 8.95869 104.682 9.76757 104.963 10.6444C105.039 10.9333 105.018 11.2393 104.902 11.5146C104.786 11.7899 104.582 12.019 104.322 12.1662C103.685 12.4472 102.969 12.0442 102.381 11.6731C101.304 11.0003 100.181 10.4049 99.0192 9.89148C97.5558 9.2393 95.8378 8.72497 94.4009 9.39836" fill="#263238"/>
<path d="M101.495 6.80028C101.224 6.61007 100.908 6.49152 100.578 6.45563C99.7884 6.30153 98.9714 6.36851 98.2173 6.6492C97.4632 6.92988 96.8013 7.41336 96.3045 8.04633C96.078 8.2921 95.9174 8.59127 95.8379 8.9159C95.8803 8.9159 96.0606 8.61367 96.4583 8.17888C96.9645 7.61107 97.601 7.17453 98.313 6.90671C99.025 6.63889 99.7914 6.54778 100.546 6.64121C101.13 6.72075 101.48 6.8427 101.495 6.80028Z" fill="#455A64"/>
<path d="M69.6018 38.1737C68.149 34.1174 66.712 30.0293 65.975 25.7821C65.238 21.535 65.2433 17.081 66.6272 12.9983C66.834 12.3779 68.6527 8.22618 69.3048 8.25799C69.7715 8.29511 68.6898 12.1605 68.9337 12.5582C71.2932 16.3387 72.0355 20.9517 71.8129 25.4057C71.5518 29.7305 70.8102 34.0129 69.6018 38.1737Z" fill="#263238"/>
<path d="M82.2849 73.7579C79.072 73.7843 75.9765 72.5516 73.6614 70.3237C71.3463 68.0958 69.9956 65.0499 69.8987 61.8383L68.6898 21.6361C68.0217 10.8459 73.7429 1.48734 84.5437 1.09497H85.5458C90.4014 1.21113 95.0352 3.15122 98.5251 6.52914C102.015 9.90706 104.105 14.4751 104.38 19.3243C104.91 28.6776 105.737 39.049 105.186 44.0278C104.062 54.2189 94.2469 54.7756 94.2469 54.7756C94.2469 54.7756 94.4113 58.1638 94.4697 61.2073C94.5006 62.8332 94.2087 64.449 93.6109 65.9612C93.0131 67.4735 92.1213 68.8521 90.9871 70.0174C89.8529 71.1827 88.4988 72.1114 87.0033 72.7498C85.5077 73.3882 83.9004 73.7237 82.2743 73.7367L82.2849 73.7579Z" fill="#A36957"/>
<path d="M94.2895 54.7809C94.2895 54.7809 87.7464 55.0036 80.8853 50.4648C80.8853 50.4648 83.9924 58.0843 94.3637 57.4003L94.2895 54.7809Z" fill="#7C3B29"/>
<path d="M100.144 28.8101C100.138 29.1965 99.9823 29.5656 99.709 29.8388C99.4358 30.1121 99.0667 30.2681 98.6803 30.2735C98.4915 30.2835 98.3026 30.2557 98.1247 30.1917C97.9467 30.1278 97.7834 30.029 97.6441 29.9011C97.5049 29.7732 97.3925 29.6188 97.3137 29.4469C97.2349 29.2751 97.1911 29.0892 97.1851 28.9002C97.1905 28.5138 97.3465 28.1448 97.6198 27.8715C97.893 27.5982 98.2621 27.4423 98.6485 27.4368C98.8373 27.4268 99.0262 27.4546 99.2041 27.5186C99.3821 27.5825 99.5454 27.6814 99.6847 27.8092C99.8239 27.9371 99.9363 28.0915 100.015 28.2634C100.094 28.4353 100.138 28.6211 100.144 28.8101Z" fill="#263238"/>
<path d="M102.073 25.0082C101.882 25.1937 100.78 24.3348 99.1888 24.3029C97.5981 24.2711 96.4051 25.04 96.2407 24.8332C96.1559 24.743 96.3521 24.3984 96.8717 24.0431C97.5717 23.5806 98.3981 23.3472 99.2365 23.375C100.066 23.3903 100.869 23.6709 101.527 24.1757C102.004 24.5681 102.163 24.918 102.073 25.0082Z" fill="#263238"/>
<path d="M85.302 28.8101C85.2951 29.197 85.138 29.5661 84.8639 29.8392C84.5898 30.1123 84.2201 30.2681 83.8332 30.2735C83.6448 30.2828 83.4565 30.2544 83.2792 30.1902C83.1019 30.1259 82.9391 30.0269 82.8005 29.8991C82.6618 29.7713 82.5499 29.6171 82.4714 29.4456C82.3929 29.2741 82.3494 29.0887 82.3433 28.9002C82.3487 28.5147 82.5039 28.1464 82.7761 27.8733C83.0482 27.6002 83.4159 27.4436 83.8014 27.4368C83.9905 27.4268 84.1796 27.4546 84.3579 27.5185C84.5361 27.5824 84.6998 27.6811 84.8395 27.8089C84.9792 27.9368 85.092 28.0911 85.1714 28.263C85.2508 28.4349 85.2952 28.6209 85.302 28.8101Z" fill="#263238"/>
<path d="M91.8555 36.3713C91.8555 36.2811 92.847 36.1326 94.4536 35.9683C94.8619 35.9365 95.249 35.8622 95.3285 35.5865C95.3698 35.1665 95.2849 34.7437 95.0846 34.3723C94.724 33.3807 94.3476 32.3362 93.9552 31.2492C92.391 26.7953 91.2669 23.1367 91.4472 23.0783C91.6275 23.02 93.0379 26.5726 94.6286 31.0318C95.0051 32.1294 95.3656 33.1527 95.6891 34.1761C95.9318 34.6695 95.9937 35.2324 95.864 35.7668C95.8013 35.9087 95.7071 36.0344 95.5886 36.1346C95.4701 36.2347 95.3304 36.3066 95.18 36.3447C94.953 36.4018 94.7195 36.4285 94.4854 36.4243C92.8629 36.4773 91.8608 36.4614 91.8555 36.3713Z" fill="#263238"/>
<path d="M87.0203 19.1121C86.8506 19.5416 85.138 19.3401 83.1231 19.5681C81.1082 19.7961 79.4804 20.3051 79.2153 19.9181C79.0933 19.7325 79.3743 19.3242 80.0318 18.9053C80.9146 18.3741 81.9062 18.0496 82.9322 17.9562C83.9607 17.8392 85.0023 17.9533 85.981 18.2902C86.7181 18.5554 87.0892 18.9053 87.0203 19.1121Z" fill="#263238"/>
<path d="M102.142 20.0983C101.824 20.4589 100.552 20.0983 99.0722 20.0665C97.5928 20.0347 96.2938 20.3104 96.0021 19.9286C95.8749 19.7483 96.0764 19.3984 96.6278 19.0431C97.3889 18.6169 98.2537 18.4113 99.1252 18.4493C99.994 18.4551 100.843 18.7069 101.575 19.1757C102.11 19.5469 102.28 19.918 102.142 20.0983Z" fill="#263238"/>
<path d="M99.8253 7.95067C100.96 7.29848 97.2272 3.49142 94.3799 2.25598C90.085 0.394866 83.5525 -0.686807 79.6394 0.490307C74.931 1.91133 71.0338 4.33448 68.7326 8.68238C66.4314 13.0303 65.6148 18.0675 65.8375 22.9986C65.9011 24.4992 66.0867 26.0581 66.898 27.3147C67.9054 28.8471 69.7877 29.8015 69.7877 31.9171C69.7481 32.6815 69.9853 33.4345 70.4558 34.0381C71.7973 35.5757 73.4251 34.213 74.1674 32.8663C75.6786 30.0719 75.8006 26.7633 75.8854 23.5819C75.9437 21.4132 75.9861 18.1152 75.4135 16.0208C75.1974 15.2409 75.0991 14.4331 75.1219 13.6241C75.1356 12.3059 75.5236 11.0187 76.2406 9.91252C76.4339 9.6775 76.6467 9.45932 76.8769 9.26034C77.7224 8.53748 78.7425 8.04888 79.8357 7.84327C80.9289 7.63766 82.0568 7.72222 83.1071 8.08853C87.1528 9.43001 90.419 11.6411 95.0427 9.67922C96.066 9.23913 96.5591 8.38545 97.0257 7.88704C97.4142 7.54211 97.918 7.3556 98.4375 7.36444C98.9569 7.37328 99.4541 7.57681 99.8307 7.93476L99.8253 7.95067Z" fill="#263238"/>
<path d="M86.7334 24.918C86.5426 25.1089 85.4397 24.2499 83.849 24.2181C82.2583 24.1863 81.0706 24.9498 80.9009 24.7484C80.8161 24.6582 81.0123 24.3136 81.5319 23.9583C82.2308 23.4935 83.0579 23.2598 83.8967 23.2902C84.7262 23.3054 85.529 23.586 86.1873 24.0909C86.6645 24.4833 86.8236 24.8332 86.7334 24.918Z" fill="#263238"/>
<path d="M86.6225 9.414C84.2577 9.48293 81.7125 8.2687 79.634 9.414C78.494 10.0344 77.8047 11.2221 76.9829 12.2401C75.7084 13.8101 74.0593 15.0341 72.1875 15.7995C70.3158 16.5649 68.2816 16.847 66.2722 16.6198C64.6497 16.4184 62.7621 15.4905 62.7515 13.852C62.7515 12.553 63.9445 11.6039 65.058 10.9305C67.7137 9.38343 70.458 7.9936 73.2766 6.76815C74.3855 6.19543 75.5686 5.77965 76.792 5.53271C78.1643 5.37195 79.5552 5.50941 80.8695 5.93568C83.0211 6.55936 85.0272 7.60476 86.771 9.01103" fill="#263238"/>
<path d="M84.4961 0.31543C84.4961 0.363151 85.1589 0.633567 86.1663 1.23803C86.753 1.59714 87.3146 1.99573 87.8472 2.43105C88.4858 2.97085 89.0798 3.56132 89.6234 4.19672C90.165 4.84141 90.6527 5.5295 91.0816 6.25403C91.4289 6.84589 91.732 7.46264 91.9883 8.09923C92.4284 9.19151 92.5874 9.91262 92.6405 9.89671C92.6386 9.71752 92.6136 9.53931 92.5662 9.36648C92.471 8.90505 92.3416 8.45134 92.1792 8.00909C91.9429 7.34974 91.652 6.71125 91.3096 6.10026C90.8839 5.35108 90.3924 4.6413 89.8408 3.97933C89.2916 3.3433 88.6864 2.7577 88.0327 2.22957C87.4783 1.78986 86.8876 1.39786 86.2671 1.05775C85.8577 0.824532 85.4304 0.624183 84.9892 0.458594C84.833 0.386288 84.6667 0.338019 84.4961 0.31543Z" fill="#455A64"/>
<path d="M67.1523 11.2701C67.5315 10.8112 68.003 10.4373 68.5362 10.1726C69.1194 9.91108 69.7649 9.82096 70.3974 9.91274C70.763 9.96764 71.1143 10.0937 71.4313 10.2839C71.5939 10.3776 71.7349 10.5043 71.8455 10.6559C71.956 10.8076 72.0334 10.9807 72.0729 11.1641C72.084 11.2625 72.0732 11.3621 72.0411 11.4557L71.776 12.2192L72.3062 11.5936C72.8345 11.0727 73.4746 10.6792 74.1779 10.443C74.7216 10.1755 75.3125 10.017 75.9171 9.97637C76.3202 9.96188 76.7198 10.0572 77.073 10.2521C77.3222 10.3952 77.4282 10.5172 77.4494 10.5013C77.4706 10.4854 77.3752 10.3422 77.1313 10.1619C76.7758 9.91623 76.3545 9.7832 75.9224 9.78018C75.2862 9.7915 74.6594 9.93601 74.0825 10.2044C73.3276 10.4385 72.6414 10.8535 72.0835 11.4133L72.3274 11.5512C72.3772 11.4175 72.3954 11.2741 72.3804 11.1323C72.3337 10.9101 72.24 10.7006 72.1055 10.5177C71.9711 10.3347 71.7991 10.1827 71.601 10.0718C71.2498 9.86471 70.8601 9.73122 70.4557 9.67944C69.7762 9.59342 69.0864 9.70961 68.4726 10.0135C68.0606 10.2164 67.6984 10.508 67.4122 10.8672C67.2973 10.981 67.2087 11.1185 67.1523 11.2701Z" fill="#455A64"/>
<path d="M69.2148 13.7832C69.3777 14.0915 69.6192 14.3512 69.9148 14.5361C70.5897 15.0459 71.4074 15.3312 72.2529 15.3522C73.0984 15.3731 73.9292 15.1285 74.6285 14.6528C75.1587 14.2922 75.3867 13.9582 75.3602 13.9423C75.3337 13.9264 75.0527 14.1809 74.5225 14.4725C73.8367 14.8737 73.0527 15.0759 72.2584 15.0562C71.4642 15.0365 70.6911 14.7958 70.0261 14.3612C69.5118 14.0483 69.252 13.7832 69.2148 13.7832Z" fill="#455A64"/>
<path d="M62.7676 14.0007C62.7676 14.0007 62.7941 14.1333 62.9001 14.3454C63.0613 14.6402 63.267 14.9085 63.5099 15.1407C64.3669 15.856 65.4248 16.2876 66.5375 16.3762C67.6439 16.4982 68.7625 16.3148 69.7719 15.8459C70.1983 15.6865 70.5932 15.4532 70.9384 15.1566C70.9384 15.1142 70.4665 15.3687 69.6924 15.6869C68.7068 16.0868 67.6378 16.238 66.5799 16.127C65.5171 16.0479 64.4993 15.665 63.6478 15.0241C63.3268 14.7077 63.0324 14.3654 62.7676 14.0007Z" fill="#455A64"/>
<path d="M65.3021 10.9255C65.1939 11.2457 65.1828 11.5907 65.2703 11.9171C65.4064 12.73 65.8307 13.4668 66.4655 13.9926C67.1003 14.5184 67.9033 14.798 68.7274 14.7803C69.0645 14.8051 69.4016 14.7315 69.6977 14.5682C69.6977 14.5205 69.3159 14.616 68.7327 14.5682C67.9681 14.5345 67.2354 14.2521 66.6459 13.764C66.0564 13.276 65.6423 12.6089 65.4664 11.864C65.3233 11.302 65.3498 10.9255 65.3021 10.9255Z" fill="#455A64"/>
<path d="M65.8158 10.7448C65.853 10.8137 66.1764 10.7023 66.5104 10.8402C66.8445 10.9781 67.0089 11.2803 67.0831 11.2538C67.1573 11.2273 67.1308 11.1424 67.0831 10.994C66.9918 10.8031 66.8321 10.6535 66.6356 10.5749C66.4392 10.4964 66.2204 10.4945 66.0226 10.5698C65.8636 10.6281 65.7999 10.713 65.8158 10.7448Z" fill="#455A64"/>
<path d="M72.8466 9.87568C73.5875 9.21696 74.4555 8.71709 75.397 8.40694C76.4261 8.08857 77.5024 7.95044 78.5784 7.99866C79.8929 8.07388 81.1948 8.2962 82.4597 8.66145C83.8171 9.02731 85.1109 9.43028 86.2986 9.72191C87.3579 9.98718 88.4418 10.1418 89.533 10.1832C90.27 10.2097 91.0075 10.1437 91.7282 9.98703C91.922 9.94511 92.1132 9.892 92.3008 9.82796C92.4334 9.78024 92.497 9.75372 92.497 9.74312C91.5241 9.94194 90.5306 10.0221 89.5383 9.98173C88.4633 9.90721 87.398 9.72965 86.3569 9.4515C85.1745 9.16517 83.8913 8.75159 82.5233 8.39103C81.2381 8.02144 79.9142 7.80257 78.5784 7.73885C77.4802 7.70557 76.3848 7.86898 75.344 8.22136C74.6433 8.45482 73.991 8.8142 73.4193 9.28182C73.2638 9.40809 73.1184 9.54638 72.9845 9.6954C72.8837 9.81205 72.8413 9.86507 72.8466 9.87568Z" fill="#455A64"/>
<path d="M71.7123 9.48291C72.2157 8.68973 72.8062 7.95523 73.4726 7.29306C75.1551 5.76121 77.2163 4.7068 79.443 4.23892C81.6761 3.80708 83.9536 3.65038 86.2247 3.77232L88.2979 3.85185C88.5517 3.8781 88.8076 3.8781 89.0614 3.85185C88.8125 3.79346 88.5587 3.75796 88.3032 3.74581C87.8154 3.69278 87.1102 3.62915 86.23 3.57613C83.9393 3.39041 81.6339 3.52245 79.3794 3.9685C77.1053 4.43899 75.0101 5.54171 73.3348 7.14989C72.8376 7.64116 72.4046 8.19346 72.0463 8.79361C71.9486 8.96555 71.8602 9.14254 71.7812 9.32384C71.7282 9.41398 71.7017 9.47761 71.7123 9.48291Z" fill="#455A64"/>
<path d="M99.1673 5.9253C98.8145 5.65862 98.4229 5.44761 98.0061 5.29963C97.0199 4.87791 95.9851 4.58046 94.9254 4.41414C93.8573 4.24828 92.7728 4.21445 91.6963 4.3134C91.2482 4.33165 90.8051 4.41561 90.3813 4.56261C91.8828 4.47185 93.3895 4.51621 94.883 4.69516C96.3455 4.97439 97.7795 5.38613 99.1673 5.9253Z" fill="#455A64"/>
<path d="M96.1454 3.03544C95.8042 2.80156 95.4285 2.62264 95.0319 2.50521C93.1518 1.82595 91.1283 1.64331 89.157 1.97497C88.7452 2.01928 88.3437 2.13219 87.9692 2.30902C89.3395 2.1233 90.724 2.06472 92.105 2.13404C93.4766 2.31029 94.829 2.61202 96.1454 3.03544Z" fill="#455A64"/>
<path d="M76.0919 3.01962C76.1184 3.06734 76.7123 2.72269 77.7356 2.33032C80.4217 1.29524 83.3609 1.11015 86.1557 1.80009C87.2161 2.0652 87.8577 2.33032 87.8789 2.2826C87.7457 2.18913 87.6015 2.11254 87.4494 2.0546C87.0472 1.87485 86.6325 1.72423 86.2087 1.6039C83.3839 0.787881 80.3637 0.97524 77.6614 2.13413C77.2567 2.30707 76.8651 2.50908 76.4896 2.73859C76.2191 2.90297 76.0813 3.00371 76.0919 3.01962Z" fill="#455A64"/>
<path d="M70.5354 24.7376C70.4771 24.7906 70.6679 25.1088 70.9649 25.4534C71.2618 25.7981 71.5481 26.042 71.6065 25.9837C71.6648 25.9253 71.4739 25.6125 71.1823 25.2625C70.8906 24.9126 70.599 24.6846 70.5354 24.7376Z" fill="#455A64"/>
<path d="M69.5114 24.8812C69.4478 24.9289 69.697 25.3372 70.0416 25.7826C70.3863 26.228 70.7522 26.5567 70.8105 26.5037C70.8688 26.4507 70.6249 26.053 70.2802 25.6023C69.9356 25.1516 69.5697 24.8335 69.5114 24.8812Z" fill="#455A64"/>
<path d="M91.1823 40.5705C90.88 40.1843 90.4843 39.8813 90.0325 39.6902C89.5808 39.4991 89.0878 39.4262 88.6001 39.4782C88.2464 39.5076 87.9023 39.6077 87.5881 39.7726C87.2739 39.9374 86.9959 40.1637 86.7708 40.438C86.553 40.7036 86.4224 41.0299 86.3967 41.3724C86.3711 41.7149 86.4517 42.057 86.6276 42.3521C86.8874 42.6427 87.2284 42.8487 87.6066 42.9432C87.9847 43.0377 88.3826 43.0165 88.7485 42.8823C89.5072 42.6186 90.2063 42.2078 90.8058 41.6734C90.9878 41.5464 91.1443 41.3863 91.2671 41.2015C91.3264 41.1138 91.3581 41.0104 91.3581 40.9045C91.3581 40.7987 91.3264 40.6953 91.2671 40.6076" fill="#7C3B29"/>
<path d="M87.1582 37.7817C87.4233 37.7817 87.4127 39.5102 88.892 40.7563C90.3714 42.0023 92.2272 41.8168 92.2378 42.0713C92.2643 42.1773 91.8242 42.4053 91.0395 42.4212C90.0197 42.4286 89.03 42.0756 88.2451 41.4244C87.4926 40.7984 87.0118 39.9052 86.9037 38.9323C86.8453 38.2006 87.0415 37.7711 87.1582 37.7817Z" fill="#263238"/>
<path d="M53.2285 74.5316L55.1002 110.895C55.1002 110.895 54.2042 126.5 53.9125 128.456C53.6209 130.413 61.2403 139.061 61.2403 139.061L118.336 138.531L117.037 110.556L116.946 67.1031L94.3639 61.875C94.3639 61.875 95.085 67.5273 84.3266 66.7425C73.5682 65.9578 69.899 61.875 69.899 61.875L52.7778 66.0585L53.2285 74.5316Z" fill="#455A64"/>
<path d="M34.251 105.434C34.251 105.434 42.1461 79.3625 44.0337 75.5077C46.9182 69.6062 50.4867 66.4938 53.0477 65.9211C55.6087 65.3485 55.333 110.906 55.333 110.906C55.333 110.906 37.3846 110.127 34.251 105.434Z" fill="#455A64"/>
<path d="M133.553 103.573C134.354 102.226 122.419 67.4535 116.369 67.0664V110.842L133.553 103.573Z" fill="#455A64"/>
<path d="M113.723 78.4717C113.789 78.6133 113.842 78.7606 113.882 78.9118C113.978 79.2299 114.11 79.6541 114.275 80.1949C114.577 81.319 115.012 82.9521 115.362 85.0094C115.712 87.0667 116.04 89.527 116.258 92.2789C116.475 95.0308 116.597 98.0531 116.692 101.224C116.788 104.395 116.852 107.428 117 110.174C117.148 112.921 117.313 115.397 117.435 117.476C117.557 119.554 117.631 121.24 117.663 122.401C117.663 122.963 117.663 123.414 117.695 123.743C117.706 123.898 117.706 124.054 117.695 124.209C117.665 124.056 117.649 123.899 117.647 123.743C117.626 123.414 117.599 122.969 117.567 122.407C117.493 121.219 117.382 119.543 117.249 117.486C117.117 115.429 116.915 112.937 116.756 110.19C116.597 107.444 116.523 104.411 116.427 101.235C116.332 98.0584 116.221 95.0361 116.014 92.2948C115.807 89.5535 115.515 87.0932 115.176 85.0412C114.837 82.9893 114.45 81.3561 114.184 80.2214C114.036 79.6912 113.925 79.2458 113.84 78.9277C113.788 78.7794 113.749 78.6268 113.723 78.4717Z" fill="#263238"/>
<path d="M52.7777 81.0748C52.5971 80.5707 52.4501 80.0552 52.3376 79.5318C52.0031 78.2861 51.6013 77.0595 51.1339 75.8573C50.6639 74.6609 50.1329 73.4893 49.5432 72.3472C49.2671 71.8871 49.0226 71.4088 48.8115 70.9155C49.1565 71.3292 49.4585 71.7769 49.7129 72.2517C51.013 74.5034 51.9557 76.9432 52.5072 79.4841C52.6544 80.003 52.745 80.5363 52.7777 81.0748Z" fill="#263238"/>
<path d="M116.835 68.1904C116.709 68.5977 116.547 68.9932 116.353 69.3728C116.04 70.094 115.621 71.0961 115.229 72.2255C114.836 73.3549 114.539 74.4047 114.343 75.163C114.259 75.5821 114.14 75.9935 113.988 76.3931C113.986 75.9635 114.041 75.5355 114.152 75.1206C114.357 74.1083 114.63 73.111 114.969 72.1354C115.308 71.1605 115.712 70.2093 116.178 69.288C116.346 68.894 116.567 68.5247 116.835 68.1904Z" fill="#263238"/>
<path d="M52.8681 83.281C52.8923 83.3782 52.9047 83.4778 52.9052 83.5779C52.9052 83.8077 52.9264 84.094 52.9689 84.4369C53.0166 85.2216 53.0855 86.2874 53.165 87.5918C53.3294 90.2429 53.5733 93.9546 53.9127 97.9896C54.252 102.025 54.6179 105.715 54.8989 108.366C55.0368 109.665 55.1481 110.731 55.2276 111.511C55.2648 111.855 55.2913 112.136 55.3125 112.364C55.3241 112.465 55.3241 112.566 55.3125 112.666C55.2816 112.57 55.2603 112.47 55.2489 112.369C55.217 112.147 55.1693 111.866 55.1163 111.521C55.0049 110.784 54.8618 109.713 54.6974 108.387C54.3687 105.736 53.971 102.072 53.637 98.0108C53.3029 93.9493 53.1067 90.2695 52.9689 87.6024C52.9105 86.2662 52.8787 85.1898 52.8628 84.421C52.8628 84.071 52.8628 83.79 52.8628 83.562C52.8528 83.4685 52.8546 83.3741 52.8681 83.281Z" fill="#263238"/>
<path d="M130.897 104.644C130.897 104.644 132.318 126.717 132.09 130.185C131.862 133.653 130.854 138.616 124.083 139.93C117.312 141.245 101.288 136.632 101.288 136.632L100.488 123.011C100.488 123.011 111.432 126.107 112.943 125.789C114.563 125.317 116.147 124.728 117.683 124.029L117.036 110.529L130.897 104.644Z" fill="#A36957"/>
<path d="M117.683 124.225C117.783 124.077 117.911 123.949 118.06 123.849C118.451 123.548 118.892 123.32 119.364 123.175C120.92 122.703 122.58 122.703 124.136 123.175C124.997 123.449 125.778 123.93 126.411 124.575C126.922 125.096 127.335 125.705 127.63 126.373C127.828 126.822 127.96 127.297 128.023 127.783C128.053 127.958 128.053 128.138 128.023 128.313C127.892 127.674 127.694 127.05 127.434 126.452C127.13 125.818 126.717 125.242 126.215 124.75C125.605 124.145 124.86 123.694 124.041 123.435C122.532 122.978 120.926 122.947 119.401 123.345C118.783 123.539 118.202 123.837 117.683 124.225Z" fill="#7C3B29"/>
<path d="M38.6836 108.133C38.6836 108.133 38.779 131.187 39.1131 134.644C39.4471 138.101 40.6242 143.027 47.4324 144.12C54.2406 145.212 70.0839 140.069 70.0839 140.069L70.471 126.415C70.471 126.415 59.6331 129.878 58.1113 129.597C56.6924 129.287 55.2906 128.903 53.9118 128.446L55.0996 110.885L38.6836 108.133Z" fill="#A36957"/>
<path d="M53.9122 128.457C53.3456 128.076 52.7205 127.792 52.0617 127.613C50.4697 127.195 48.7985 127.181 47.1995 127.571C46.3367 127.812 45.551 128.272 44.9195 128.907C44.3961 129.422 43.9703 130.027 43.6629 130.694C43.4011 131.324 43.2125 131.983 43.1008 132.656C43.0686 132.472 43.0686 132.283 43.1008 132.099C43.1505 131.59 43.2774 131.091 43.4773 130.62C43.7702 129.914 44.1969 129.271 44.7339 128.727C45.3889 128.05 46.2125 127.559 47.12 127.306C48.7657 126.901 50.4897 126.941 52.1147 127.423C52.607 127.565 53.0727 127.787 53.4933 128.08C53.6089 128.156 53.7156 128.245 53.8115 128.345C53.8857 128.416 53.9193 128.453 53.9122 128.457Z" fill="#7C3B29"/>
<path d="M115.562 103.133C115.531 102.788 115.488 102.449 115.446 102.109C115.403 101.77 115.345 101.388 115.287 101.049C115.345 101.404 115.398 101.765 115.446 102.109C115.493 102.454 115.531 102.788 115.562 103.133Z" fill="#263238"/>
<g opacity="0.6">
<path d="M69.417 131.304C69.6662 131.473 69.9472 131.643 70.1752 131.802C69.9207 131.643 69.6662 131.495 69.417 131.304Z" fill="#263238"/>
</g>
<g opacity="0.6">
<path d="M115.695 105.72C115.695 105.28 115.695 104.85 115.657 104.421C115.657 104.85 115.695 105.28 115.695 105.72C115.695 105.858 115.695 105.996 115.695 106.134C115.695 106.807 115.695 107.47 115.636 108.133C115.673 107.47 115.695 106.807 115.695 106.134C115.705 105.996 115.705 105.858 115.695 105.72Z" fill="#263238"/>
</g>
<path d="M103.139 131.696L102.656 130.954C102.174 130.217 100.382 128.101 98.9448 128.589C98.5698 128.675 98.2436 128.905 98.0363 129.229C97.8291 129.553 97.7574 129.946 97.8366 130.323C97.423 129.58 96.4156 128.387 95.0582 128.87C93.7008 129.352 93.9235 131.033 93.9235 131.033C93.4516 130.434 92.1843 130.339 92.1843 130.339C90.1854 130.662 90.5937 132.831 90.5937 132.831H90.5512C90.3178 132.772 90.0736 132.771 89.8398 132.828C89.606 132.885 89.3895 132.998 89.209 133.157C89.0284 133.316 88.8893 133.517 88.8035 133.742C88.7178 133.967 88.688 134.209 88.7166 134.448C88.8651 135.858 89.1461 138.255 89.4484 139.061C89.8938 140.233 92.0995 139.745 92.0995 139.745C92.0995 139.745 92.704 141.256 92.9797 142.083C93.3774 143.303 94.6075 143.716 95.7899 143.642C96.6081 143.547 97.3945 143.27 98.0911 142.831C98.6026 143.168 99.1846 143.383 99.7923 143.459C100.4 143.535 101.017 143.471 101.596 143.271C102.126 143.062 102.596 142.727 102.966 142.294C103.335 141.862 103.593 141.345 103.717 140.789C103.717 140.789 106.548 139.575 107.763 138.329C108.977 137.083 109.507 134.326 109.507 134.326C109.987 134.178 110.431 133.933 110.812 133.606C111.192 133.278 111.501 132.875 111.718 132.422L110.18 126.017C109.832 125.549 109.387 125.16 108.876 124.877C108.876 124.877 104.995 130.63 103.134 131.707" fill="#A36957"/>
<path d="M108.881 124.867C109.07 124.966 109.248 125.085 109.411 125.222C109.576 125.349 109.777 125.493 110.011 125.689C110.244 125.885 110.308 126.256 110.477 126.596C110.801 127.269 111.188 128.085 111.575 129.035C111.683 129.28 111.774 129.534 111.845 129.793C111.889 130.073 111.912 130.357 111.914 130.641C111.914 131.214 111.914 131.802 111.856 132.417V132.444C111.287 133.495 110.339 134.29 109.205 134.666C108.819 134.812 108.424 134.931 108.022 135.021C107.626 135.145 107.204 135.167 106.797 135.085C106.417 134.979 106.066 134.787 105.773 134.523C105.479 134.259 105.251 133.93 105.106 133.563C104.862 132.897 104.862 132.166 105.106 131.5C105.304 130.929 105.626 130.41 106.05 129.978C106.666 129.373 107.403 128.903 108.213 128.6C108.494 128.483 108.717 128.409 108.865 128.361C108.942 128.331 109.022 128.313 109.104 128.308C109.104 128.308 108.796 128.446 108.256 128.695C107.484 129.032 106.784 129.512 106.193 130.111C105.8 130.53 105.503 131.029 105.323 131.574C105.104 132.186 105.104 132.855 105.323 133.467C105.456 133.794 105.663 134.086 105.927 134.321C106.19 134.555 106.505 134.726 106.845 134.819C107.212 134.893 107.592 134.871 107.948 134.756C108.336 134.667 108.717 134.55 109.088 134.406C110.165 134.06 111.07 133.319 111.622 132.333V132.38C111.665 131.776 111.691 131.182 111.691 130.625C111.694 130.357 111.676 130.09 111.638 129.825C111.571 129.578 111.489 129.336 111.394 129.098C111.023 128.149 110.657 127.327 110.334 126.643C110.18 126.309 110.042 125.986 109.915 125.747C109.788 125.509 109.507 125.402 109.353 125.27C109.184 125.15 109.027 125.015 108.881 124.867Z" fill="#7C3B29"/>
<path d="M97.8525 130.323C98.1012 130.863 98.3172 131.417 98.4994 131.982C98.9982 133.315 99.5772 134.617 100.233 135.88C100.883 137.145 101.659 138.34 102.55 139.448C103.245 140.291 103.754 140.742 103.722 140.779C103.69 140.816 103.574 140.694 103.335 140.498C103.211 140.399 103.074 140.272 102.922 140.116C102.736 139.948 102.559 139.771 102.391 139.586C101.443 138.501 100.631 137.305 99.9735 136.023C99.3111 134.747 98.7508 133.421 98.2979 132.057C98.1283 131.526 98.001 131.102 97.9268 130.805C97.8799 130.649 97.855 130.486 97.8525 130.323Z" fill="#7C3B29"/>
<path d="M93.9393 131.033C94.1548 131.61 94.3319 132.2 94.4696 132.799C94.7612 133.897 95.1694 135.413 95.6997 137.041C96.1524 138.445 96.6925 139.819 97.3169 141.156C97.8047 142.179 98.1546 142.783 98.1175 142.81C97.9997 142.693 97.8996 142.559 97.8206 142.412C97.6456 142.147 97.4123 141.744 97.1419 141.24C96.4613 139.92 95.892 138.546 95.4399 137.131C94.9096 135.477 94.5279 133.95 94.2787 132.836C94.1567 132.279 94.0613 131.829 94.0082 131.516C93.959 131.36 93.9358 131.197 93.9393 131.033Z" fill="#7C3B29"/>
<path d="M90.6045 132.831C90.6787 132.831 90.9173 134.496 91.4157 136.542C91.9142 138.589 92.4126 140.185 92.333 140.212C92.1421 139.89 91.9959 139.544 91.8983 139.183C91.6057 138.337 91.3562 137.477 91.1506 136.606C90.9366 135.732 90.7719 134.847 90.6575 133.955C90.5856 133.585 90.5678 133.206 90.6045 132.831Z" fill="#7C3B29"/>
<path d="M106.061 135.864C105.992 135.938 105.149 135.095 104.343 133.902C103.537 132.709 103.012 131.648 103.091 131.611C103.171 131.574 103.749 132.566 104.571 133.732C105.393 134.899 106.093 135.821 106.061 135.864Z" fill="#7C3B29"/>
<path d="M63.5833 129.686C64.0447 128.933 64.6066 128.246 65.2535 127.645C67.1982 129.735 69.4622 131.503 71.961 132.884C72.3321 132.083 73.5835 130.264 75.0628 130.524C75.446 130.553 75.8025 130.731 76.0547 131.021C76.3069 131.311 76.4344 131.689 76.4096 132.072C76.7119 131.272 77.5337 129.952 78.9441 130.211C80.3545 130.471 80.6197 132.226 80.6197 132.226C80.9694 131.76 81.4518 131.411 82.0036 131.224C84.0238 131.224 83.9495 133.446 83.9495 133.446H83.9866C84.2076 133.351 84.4483 133.313 84.6878 133.333C84.9272 133.353 85.1582 133.431 85.3605 133.56C85.5628 133.69 85.7303 133.867 85.8485 134.076C85.9667 134.286 86.032 134.521 86.0386 134.761C86.1022 136.182 86.1765 138.594 85.9909 139.437C85.7258 140.662 83.4723 140.498 83.4723 140.498C83.4723 140.498 82.8678 143.234 82.7141 144.093C82.5603 144.952 81.5688 144.803 80.3917 144.909C79.4829 144.903 78.5907 144.666 77.7988 144.22C77.7988 144.22 76.1127 145.577 74.2039 145.132C73.6128 144.966 73.0614 144.683 72.583 144.298C72.1045 143.914 71.709 143.436 71.4201 142.894C70.1251 142.677 68.8876 142.199 67.7828 141.489C66.3935 140.429 65.4709 137.778 65.4709 137.778C64.9778 137.71 64.5041 137.541 64.0798 137.281C63.6554 137.02 63.2896 136.675 63.0054 136.267L63.5833 129.686Z" fill="#A36957"/>
<path d="M69.1612 142.332C69.0199 142.309 68.8825 142.266 68.753 142.205C68.3835 142.038 68.0391 141.82 67.7296 141.558C66.6837 140.602 65.9175 139.38 65.5132 138.022L65.6405 138.117C65.0615 138.144 64.4901 137.976 64.018 137.64C63.773 137.468 63.5472 137.271 63.3446 137.051C63.1205 136.833 62.9405 136.574 62.8144 136.288C62.6876 135.974 62.6456 135.632 62.6924 135.296C62.7401 134.989 62.7932 134.692 62.8409 134.395C62.9416 133.806 63.0371 133.239 63.1272 132.698C63.3128 131.638 63.4824 130.657 63.6309 129.824C63.7627 129.459 63.9584 129.119 64.2089 128.822C64.4104 128.557 64.5959 128.339 64.7391 128.165C64.8938 127.967 65.0719 127.789 65.2693 127.634C65.1432 127.841 65.0014 128.038 64.8451 128.223C64.702 128.403 64.5323 128.631 64.3467 128.902C64.1222 129.185 63.9433 129.502 63.8165 129.84C63.6892 130.678 63.5408 131.653 63.3764 132.719C63.2863 133.249 63.1961 133.838 63.1007 134.427C63.053 134.718 63.0052 135.02 62.9575 135.323C62.9148 135.61 62.9515 135.903 63.0636 136.171C63.5938 137.147 64.6543 137.921 65.6246 137.847H65.7253L65.7571 137.947C66.1428 139.268 66.858 140.468 67.8357 141.436C68.2385 141.789 68.6838 142.09 69.1612 142.332Z" fill="#7C3B29"/>
<path d="M65.0314 131.807C65.201 131.799 65.371 131.816 65.5351 131.86C65.9881 131.935 66.4335 132.051 66.866 132.205C67.5196 132.437 68.1201 132.797 68.6316 133.265C69.2766 133.843 69.6972 134.63 69.8194 135.487C69.8692 135.921 69.8111 136.361 69.6502 136.767C69.4892 137.173 69.2304 137.533 68.8968 137.815C68.602 138.063 68.2441 138.225 67.8628 138.281C67.5362 138.317 67.2058 138.285 66.8925 138.186C66.4702 138.029 66.0332 137.916 65.5881 137.847C65.2753 137.847 65.1056 137.889 65.1003 137.847C65.2468 137.753 65.4201 137.71 65.5934 137.725C66.0515 137.751 66.5042 137.836 66.9402 137.979C67.2298 138.06 67.5332 138.08 67.831 138.038C68.1667 137.981 68.4795 137.831 68.7324 137.603C69.0324 137.344 69.2636 137.015 69.4051 136.644C69.5467 136.274 69.5943 135.875 69.5436 135.482C69.4364 134.692 69.0622 133.962 68.4832 133.414C68.0013 132.957 67.4361 132.597 66.8182 132.353C65.7631 131.972 65.0208 131.86 65.0314 131.807Z" fill="#7C3B29"/>
<path d="M69.7027 131.728C69.7822 131.76 69.6285 132.21 69.3475 132.682C69.0664 133.154 68.8172 133.536 68.7695 133.504C68.7218 133.472 68.8331 133.032 69.1089 132.544C69.3846 132.056 69.6338 131.707 69.7027 131.728Z" fill="#7C3B29"/>
<path d="M76.4103 132.073C76.4358 132.231 76.4358 132.392 76.4103 132.55C76.3579 132.977 76.2835 133.402 76.1876 133.822C75.5334 136.603 74.3291 139.224 72.6456 141.532C72.3937 141.88 72.1229 142.215 71.8344 142.534C71.6276 142.762 71.5056 142.879 71.4897 142.868C71.4738 142.857 71.8821 142.338 72.4865 141.421C73.2714 140.25 73.9629 139.02 74.5544 137.741C75.1426 136.46 75.6249 135.134 75.9967 133.775C76.2565 132.73 76.3678 132.067 76.4103 132.073Z" fill="#7C3B29"/>
<path d="M80.6095 132.226C80.6346 132.388 80.6346 132.552 80.6095 132.714C80.6095 133.032 80.5671 133.483 80.5141 134.039C80.3686 135.495 80.1313 136.94 79.8036 138.366C79.4752 139.794 79.0483 141.197 78.5257 142.566C78.3243 143.096 78.144 143.504 77.9955 143.785C77.938 143.94 77.8595 144.086 77.7622 144.22C77.9154 143.634 78.1049 143.059 78.3296 142.497C78.6848 141.436 79.1355 139.962 79.5173 138.303C79.899 136.643 80.1482 135.121 80.3073 134.018C80.3712 133.415 80.4722 132.817 80.6095 132.226Z" fill="#7C3B29"/>
<path d="M83.9497 133.446C84.0396 133.808 84.0753 134.181 84.0557 134.554C84.0764 135.449 84.0446 136.345 83.9603 137.237C83.8702 138.297 83.727 139.225 83.5997 139.888C83.5524 140.252 83.4579 140.609 83.3187 140.949C83.2392 140.949 83.5043 139.257 83.6846 137.184C83.8648 135.111 83.8702 133.446 83.9497 133.446Z" fill="#7C3B29"/>
<path d="M68.9448 138.223C69.0529 137.942 69.1954 137.674 69.369 137.428C69.7137 136.834 70.0742 136.224 70.4666 135.556C70.859 134.888 71.2672 134.156 71.527 133.669C71.6503 133.394 71.7975 133.132 71.9671 132.884C71.9451 133.19 71.8545 133.487 71.702 133.753C71.4027 134.418 71.0682 135.065 70.6999 135.694C69.8462 137.168 69.0031 138.276 68.9448 138.223Z" fill="#7C3B29"/>
<path d="M105.424 129.262C105.498 129.262 105.53 129.533 105.62 129.83C105.71 130.127 105.822 130.36 105.763 130.413C105.705 130.466 105.461 130.265 105.355 129.909C105.249 129.554 105.35 129.252 105.424 129.262Z" fill="#7C3B29"/>
<path d="M94.8889 115.556C93.0225 115.879 91.0765 116.24 89.5866 117.406C88.7259 118.128 88.0481 119.044 87.6086 120.078C87.169 121.112 86.9802 122.235 87.0574 123.356C88.9503 122.178 91.5272 122.375 93.2081 120.895C94.6344 119.633 94.979 117.491 94.8889 115.556Z" fill="#455A64"/>
<path d="M93.3033 117.624C92.947 117.971 92.5601 118.285 92.1474 118.562C91.1874 119.273 90.2653 120.034 89.3848 120.842C88.4917 121.62 87.7038 122.511 87.0412 123.493C86.5693 124.273 86.389 124.819 86.3413 124.798C86.3468 124.662 86.3774 124.529 86.4315 124.405C86.5494 124.056 86.6966 123.717 86.8715 123.392C87.4991 122.353 88.2824 121.416 89.194 120.614C90.0822 119.798 91.0305 119.05 92.0307 118.376C92.4291 118.084 92.8553 117.832 93.3033 117.624Z" fill="#263238"/>
<path d="M84.3692 121.007C83.421 121.025 82.4816 120.821 81.6262 120.412C80.7709 120.002 80.0233 119.398 79.4434 118.647C78.283 117.112 77.5692 115.287 77.3808 113.372C77.2058 111.461 77.2058 109.539 77.3808 107.629C79.6432 109.025 81.484 111.01 82.7064 113.371C83.9289 115.731 84.4871 118.38 84.3215 121.033" fill="#455A64"/>
<path d="M86.373 125.355C86.0325 124.807 85.7262 124.238 85.4557 123.653C84.9254 122.592 84.146 121.134 83.2711 119.543C82.3962 117.953 81.5638 116.531 80.954 115.503C80.604 114.962 80.2871 114.401 80.0049 113.822C80.132 113.943 80.2425 114.08 80.3336 114.23C80.5298 114.501 80.8002 114.904 81.1237 115.402C81.7706 116.404 82.6295 117.815 83.5097 119.411C84.3899 121.007 85.1004 122.486 85.6306 123.568C85.8798 124.098 86.076 124.554 86.2033 124.861C86.2831 125.017 86.3402 125.183 86.373 125.355Z" fill="#263238"/>
<path d="M68.1013 79.2034C68.831 80.1877 69.2217 81.3822 69.2148 82.6075C69.2293 82.7005 69.2188 82.7957 69.1843 82.8833C69.1498 82.9709 69.0926 83.0477 69.0186 83.1059C68.5679 83.3392 68.2604 82.2469 67.7885 82.4325C67.7885 83.4346 67.7461 84.4315 67.7196 85.4336C67.7423 85.6905 67.6707 85.9468 67.5181 86.1547C67.3792 86.2599 67.206 86.3096 67.0324 86.2939C66.8588 86.2782 66.6974 86.1983 66.5796 86.0699C66.3535 85.8022 66.2001 85.4808 66.1342 85.1367L65.307 87.0932C65.2381 87.2576 65.1426 87.4485 64.9677 87.4803C64.7927 87.5121 64.6124 87.3583 64.4905 87.2099C63.6225 86.0954 63.1011 84.7505 62.9908 83.3422C62.8805 81.9339 63.1862 80.5242 63.8701 79.2882" fill="#263238"/>
<path d="M66.4842 75.6349C67.7779 75.7675 68.955 77.2733 68.7058 78.2861C68.5557 78.7881 68.2935 79.2495 67.9389 79.6353C67.5844 80.0211 67.1467 80.3212 66.6591 80.5131C66.0974 80.7795 65.4784 80.9026 64.8575 80.8711C64.2366 80.8396 63.6332 80.6547 63.1013 80.3328C62.5861 79.9878 62.2157 79.4656 62.0603 78.8654C61.9048 78.2652 61.9753 77.6288 62.2582 77.0772C62.7641 76.3948 63.5078 75.9274 64.342 75.7675C65.0284 75.5553 65.7555 75.5098 66.4629 75.6349C66.8195 75.6987 67.1574 75.8413 67.4518 76.0523C67.7463 76.2633 67.9899 76.5373 68.165 76.8545" fill="#FFC100"/>
<path d="M65.137 14.5786C63.2017 15.4429 61.9556 17.4154 61.4572 19.4833C60.9588 21.5512 61.208 23.7251 61.5897 25.793C59.8346 27.2452 58.5751 29.2078 57.986 31.4084C57.3969 33.6089 57.5074 35.9383 58.3023 38.0732C57.2313 39.7485 56.707 41.7151 56.802 43.7012C56.897 45.6873 57.6065 47.5949 58.8325 49.1603C57.4721 50.8751 56.8194 53.0455 57.0085 55.2262C57.1199 56.4563 57.6766 57.8402 58.8644 58.169C58.2069 59.7597 57.5335 61.3503 57.4274 63.0471C57.3214 64.7438 57.8887 66.589 59.2779 67.5753C59.6588 67.7766 59.9833 68.0701 60.2217 68.4289C60.3394 68.7474 60.3705 69.0914 60.3119 69.4258C60.0794 71.3018 60.2237 73.2054 60.7361 75.025C61.3246 76.8172 62.6237 78.4609 64.4212 79.0442C64.8432 79.2105 65.2995 79.2713 65.7504 79.2214C66.2013 79.1715 66.6332 79.0124 67.0087 78.7578C67.6371 78.156 68.0046 77.3317 68.0321 76.4619C68.3186 73.9362 67.7147 71.3896 66.3247 69.2614C66.0721 68.9512 65.8911 68.5891 65.7945 68.2009C65.699 67.6071 66.0543 67.0503 66.3247 66.5148C66.9482 65.2382 67.1902 63.8089 67.0219 62.3982C66.8536 60.9876 66.282 59.6553 65.3756 58.5613C65.1265 58.344 64.9677 58.0414 64.9302 57.713C64.9764 57.4427 65.1041 57.1929 65.2961 56.9971C66.0928 55.8706 66.4568 54.4947 66.3214 53.1216C66.1861 51.7485 65.5604 50.4701 64.559 49.5209C64.2303 49.2292 63.8432 48.927 63.8114 48.4922C63.8282 48.1788 63.935 47.8769 64.1189 47.6227C65.7415 44.7276 65.3332 41.0584 64.0076 38.0149C63.8488 37.7203 63.7565 37.3945 63.7372 37.0604C63.8033 36.5966 63.996 36.16 64.2939 35.7985C65.3977 34.0684 65.798 31.9817 65.4127 29.9659C65.2908 29.3562 67.0352 29.4887 67.0034 28.8684C66.9716 28.248 66.5898 26.6944 66.7701 26.0687C67.3693 24.0008 66.6853 22.0761 66.8072 19.9286C66.9292 17.7812 66.383 15.4906 64.8454 13.9954" fill="#263238"/>
<path d="M69.3794 30.9098C69.3729 30.4706 69.2087 30.0484 68.9166 29.7203C68.6246 29.3923 68.2242 29.1802 67.7887 29.123C65.7049 28.895 62.3167 29.2926 62.3538 34.2768C62.4121 41.3713 69.5225 39.8495 69.5331 39.6481C69.5438 39.4466 69.4218 33.6883 69.3794 30.9098Z" fill="#A36957"/>
<path d="M67.3219 36.9755C67.2901 36.9755 67.2 37.0656 66.9932 37.1611C66.6975 37.2819 66.3663 37.2819 66.0706 37.1611C65.3177 36.8906 64.6761 35.7082 64.6337 34.4304C64.6094 33.8212 64.7217 33.2143 64.9624 32.6541C65.0273 32.4321 65.1452 32.2293 65.3059 32.063C65.4666 31.8968 65.6654 31.7721 65.885 31.6997C66.0268 31.6594 66.1783 31.6708 66.3123 31.732C66.4464 31.7933 66.5543 31.9002 66.6167 32.0337C66.7175 32.2299 66.6697 32.3731 66.7069 32.3837C66.744 32.3943 66.8606 32.2617 66.8023 31.9701C66.7598 31.7951 66.6588 31.6398 66.516 31.53C66.4192 31.4571 66.3089 31.4041 66.1915 31.3741C66.0741 31.344 65.9519 31.3376 65.832 31.355C65.5413 31.4149 65.2708 31.5482 65.0462 31.7422C64.8216 31.9361 64.6504 32.1844 64.5488 32.4632C64.254 33.0815 64.1122 33.7617 64.1352 34.4463C64.1936 35.8726 64.9359 37.2088 65.9645 37.4951C66.1554 37.5494 66.3561 37.56 66.5516 37.526C66.7472 37.492 66.9325 37.4144 67.0939 37.2989C67.3113 37.1505 67.3537 36.9914 67.3219 36.9755Z" fill="#7C3B29"/>
<path d="M63.6737 38.8791C63.6737 38.8791 63.6047 38.9269 63.4987 39.0382C63.3398 39.2085 63.1994 39.3951 63.0798 39.595C62.7062 40.2207 62.486 40.9259 62.4371 41.653C62.3883 42.3801 62.5122 43.1084 62.7988 43.7785C63.0803 44.4041 63.512 44.9505 64.0554 45.3692C64.6758 45.8607 65.4094 46.189 66.1892 46.3242C66.9691 46.4595 67.7703 46.3973 68.52 46.1433C69.2568 45.8548 69.911 45.3888 70.4244 44.7866C70.9378 44.1844 71.2945 43.4647 71.4628 42.6915C71.6121 42.0179 71.6012 41.3187 71.4309 40.6501C71.2401 39.9451 70.8919 39.2925 70.4125 38.7415C69.9331 38.1904 69.335 37.7553 68.6631 37.4687C68.4522 37.3759 68.2317 37.3065 68.0056 37.2619C67.9286 37.2374 67.8478 37.2267 67.767 37.2301C67.767 37.2566 68.0852 37.3203 68.6207 37.5695C69.3697 37.932 70.0139 38.4794 70.4924 39.1602C70.8503 39.6535 71.0989 40.2176 71.2214 40.8147C71.3439 41.4118 71.3376 42.0281 71.2029 42.6226C71.0383 43.3486 70.6985 44.0234 70.2133 44.5881C69.7281 45.1528 69.1122 45.5902 68.4192 45.8623C67.714 46.0992 66.9613 46.1583 66.2277 46.0344C65.4942 45.9104 64.8027 45.6073 64.2145 45.1518C63.6983 44.7572 63.2868 44.2419 63.0162 43.6512C62.7842 43.1328 62.6529 42.575 62.6291 42.0075C62.589 41.1773 62.772 40.3516 63.1593 39.6162C63.4616 39.1337 63.7002 38.8951 63.6737 38.8791Z" fill="#FFC100"/>
<path d="M58.0742 44.5365C58.1219 44.5365 58.2227 44.0063 58.5143 43.1632C59.2735 40.9636 60.6732 39.0414 62.5335 37.6435C63.244 37.1133 63.7318 36.8535 63.7106 36.811C63.246 36.9623 62.8091 37.1879 62.4168 37.4791C60.4478 38.8145 59.0059 40.7945 58.3393 43.0784C58.1712 43.5465 58.0816 44.0392 58.0742 44.5365Z" fill="#455A64"/>
<path d="M58.0903 36.0053C58.2625 36.6743 58.5933 37.292 59.0548 37.8061C59.5163 38.3202 60.0948 38.7155 60.7415 38.9587C60.7839 38.8844 59.9886 38.4284 59.2568 37.6172C58.5251 36.8059 58.1699 35.9735 58.0903 36.0053Z" fill="#455A64"/>
<path d="M59.5536 31.8112C59.6013 31.8112 59.6861 31.4029 59.9671 30.7984C60.3343 30.0172 60.879 29.3326 61.5578 28.7994C62.2524 28.2818 63.062 27.9397 63.9174 27.8026C64.5802 27.6913 64.9778 27.7231 65.0043 27.6754C64.6464 27.5611 64.2661 27.5357 63.8961 27.6011C62.9848 27.6861 62.1149 28.022 61.3829 28.5714C60.662 29.1205 60.1017 29.853 59.7603 30.6924C59.603 31.0434 59.5321 31.4271 59.5536 31.8112Z" fill="#455A64"/>
<path d="M61.7758 26.1114C61.7068 26.1485 61.8182 26.5197 62.025 26.9385C62.2318 27.3574 62.4651 27.6756 62.5552 27.6438C62.6454 27.6119 62.5128 27.2355 62.306 26.8113C62.0992 26.3871 61.8447 26.0743 61.7758 26.1114Z" fill="#455A64"/>
<path d="M59.8565 55.9209C60.0452 54.5535 60.4273 53.2199 60.9912 51.9601C61.9986 49.8868 63.5204 48.7044 63.4515 48.6355C63.0855 48.8329 62.757 49.0932 62.4811 49.4043C61.0479 50.8344 60.1287 52.6989 59.8671 54.7066C59.7935 55.1077 59.7899 55.5186 59.8565 55.9209Z" fill="#455A64"/>
<path d="M59.7024 49.6003C59.6206 49.8428 59.5906 50.0998 59.6143 50.3546C59.6381 50.6095 59.715 50.8565 59.8402 51.0797C60.1849 51.8697 60.8158 52.2409 60.8477 52.172C60.8795 52.103 60.4076 51.6788 60.1 50.963C59.7925 50.2472 59.7872 49.6056 59.7024 49.6003Z" fill="#455A64"/>
<path d="M59.6763 62.1192C60.0476 62.0754 60.4074 61.9621 60.7367 61.7851C62.3569 61.0244 63.6763 59.7442 64.4855 58.1477C64.6743 57.8305 64.7986 57.4791 64.8513 57.1138C64.286 58.1958 63.5721 59.1934 62.7304 60.0778C61.8104 60.8945 60.7828 61.5814 59.6763 62.1192Z" fill="#455A64"/>
<path d="M61.272 61.1648C61.2954 61.7921 61.4955 62.4001 61.8491 62.9188C62.2027 63.4375 62.6956 63.8459 63.2709 64.097C63.3187 64.0227 62.6347 63.5667 62.0832 62.7555C61.5318 61.9442 61.3568 61.1489 61.272 61.1648Z" fill="#455A64"/>
<path d="M61.6272 72.639C62.0624 70.0362 63.4239 67.6785 65.4607 66.0005C65.0998 66.1561 64.7708 66.3772 64.4904 66.6527C63.0481 67.9037 62.0678 69.603 61.7067 71.4778C61.6105 71.8569 61.5836 72.2503 61.6272 72.639Z" fill="#455A64"/>
<path d="M62.5815 69.7493C62.9963 69.9511 63.3936 70.187 63.7693 70.4545C64.3525 70.937 64.5699 71.5468 64.6494 71.515C64.5841 71.0166 64.3368 70.56 63.955 70.233C63.5733 69.9061 63.084 69.7319 62.5815 69.744V69.7493Z" fill="#455A64"/>
<path d="M64.7021 28.8792C64.7021 28.9057 65.0308 28.7307 65.3119 28.2429C65.6421 27.6028 65.7837 26.8819 65.7201 26.1644C65.6919 25.4538 65.511 24.7576 65.1899 24.123C64.9354 23.6405 64.6597 23.4125 64.6597 23.4337C64.7608 23.7011 64.8795 23.9614 65.0149 24.2132C65.2733 24.8409 65.4239 25.5078 65.4603 26.1856C65.517 26.856 65.4134 27.5303 65.1581 28.1528C64.893 28.63 64.6385 28.8421 64.7021 28.8792Z" fill="#455A64"/>
<path d="M64.6071 23.4334C64.9463 23.2527 65.2442 23.0036 65.482 22.7017C66.0973 22.0038 66.5501 21.1781 66.8077 20.2842C67.0654 19.3902 67.1215 18.4502 66.9719 17.5319C66.9297 17.158 66.8106 16.797 66.622 16.4714C66.5743 16.4714 66.7015 16.9009 66.7758 17.5849C66.8586 18.4761 66.7759 19.375 66.5318 20.2361C66.2831 21.0958 65.8728 21.9002 65.3229 22.6062C64.904 23.1152 64.5753 23.3963 64.6071 23.4334Z" fill="#455A64"/>
<path d="M87.918 140.28L59.9819 125.437V102.745L59.3936 102.434V94.8628L87.918 110.003V140.28Z" fill="#E88801"/>
<path opacity="0.1" d="M87.918 140.28L59.9819 125.437V102.745L59.3936 102.434V94.8628L87.918 110.003V140.28Z" fill="black"/>
<path opacity="0.15" d="M87.9175 117.571L77.9154 112.263L77.9118 104.681L77.2254 104.328L77.2218 111.896L59.9814 102.745V103.833L77.2218 112.981L77.2181 134.601L77.9191 134.972L77.9154 113.348L87.9175 118.656V117.571Z" fill="black"/>
<path d="M87.918 140.28L115.701 125.544V102.825L116.442 102.434V94.8628L87.918 110.003V140.28Z" fill="#E88801"/>
<path opacity="0.1" d="M115.701 102.825L98.6137 111.896L98.6101 104.327L97.9237 104.681V112.263L87.918 117.571V118.656L97.92 113.351L97.9164 134.971L98.6173 134.601L98.6137 112.987L115.701 103.927V102.825Z" fill="black"/>
<path d="M116.442 94.8626L87.918 79.7258L59.3936 94.8626L87.918 110.003L116.442 94.8626Z" fill="#E88801"/>
<path opacity="0.4" d="M116.442 94.8626L87.918 79.7258L59.3936 94.8626L87.918 110.003L116.442 94.8626Z" fill="white"/>
<path opacity="0.15" d="M83.1158 95.1629L69.4819 89.5209L70.0884 89.187L83.8386 94.8658" fill="black"/>
<path opacity="0.15" d="M92.7146 95.1629L106.349 89.5209L105.738 89.187L91.9883 94.8658" fill="black"/>
<path opacity="0.15" d="M98.6098 104.327L88.4878 97.4198V97.4165L87.9176 97.0259L87.914 97.0292V97.0259L87.3402 97.4165L87.3438 97.4198L77.2183 104.327L77.9083 104.681L87.914 97.8104L97.9233 104.681L98.6098 104.327Z" fill="black"/>
<path d="M105.746 100.541V131.569L98.6171 135.355L98.6099 104.327L105.746 100.541Z" fill="#1B4D3E"/>
<path d="M98.6169 135.355L97.916 134.971L98.6169 134.6V135.355Z" fill="#263238"/>
<path d="M70.0898 100.541V131.569L77.2191 135.355L77.2264 104.327L70.0898 100.541Z" fill="#263238"/>
<path d="M77.2183 135.355L77.9192 134.971L77.2183 134.6V135.355Z" fill="black"/>
<path d="M77.2264 104.327L87.9221 97.0293L92.0007 94.8627L105.747 89.1872L98.6179 85.4014L87.9221 92.6993L83.8472 94.866L70.0898 100.541L77.2264 104.327Z" fill="#73BF44"/>
<path d="M83.8465 94.8662L83.1201 95.1633L85.5208 96.1415L87.3476 97.4168L87.9214 97.0262L86.1382 95.811L83.8465 94.8662Z" fill="#263238"/>
<path d="M98.6106 104.327L86.1389 95.8108L70.0898 89.1872L77.2228 85.4014L89.7054 93.9179L105.747 100.541L98.6106 104.327Z" fill="#73BF44"/>
<path d="M85.6808 93.6208C85.6808 93.6208 77.3022 100.014 63.6211 98.5585C63.6211 98.5585 69.432 102.054 76.5359 101.263C76.5359 101.263 75.5153 103.646 69.5301 106.547C69.5301 106.547 84.4823 106.674 88.3466 95.2634L85.6808 93.6208Z" fill="#1B4D3E"/>
<path d="M77.8022 105.085C81.9425 103.656 86.4605 100.839 88.3346 95.2734L85.6688 93.6309C84.049 94.7596 82.2778 95.692 80.399 96.4051C80.399 96.4051 83.3045 97.5736 86.2681 96.8525C85.5964 98.7097 84.4904 100.409 83.0278 101.831C81.5653 103.254 79.7816 104.364 77.8022 105.085Z" fill="#263238"/>
<path d="M67.1039 85.258C67.1039 85.258 68.7672 83.4686 73.87 84.2765C76.9498 84.7672 82.1796 88.0657 84.7655 93.5608C85.0923 94.2552 85.826 94.4889 86.2182 94.9563C86.3093 95.061 86.4089 95.1592 86.516 95.2501L88.1322 95.2668C88.1322 90.1322 84.9979 84.9509 82.0343 81.9529C79.0708 78.9549 74.1896 77.4893 70.7103 77.3758C69.4764 77.3234 68.2467 77.5408 67.122 78.0101C66.1741 80.4372 65.7819 82.8443 67.1039 85.258Z" fill="#1B4D3E"/>
<path d="M84.4092 92.8698C84.4092 92.8698 87.3146 91.9684 86.1198 87.6885C87.3735 90.0536 88.0561 92.6399 88.1209 95.2702L86.5047 95.2535C86.3976 95.1626 86.298 95.0644 86.2069 94.9597C85.8147 94.4923 85.0811 94.2586 84.7542 93.5642C84.6489 93.3239 84.529 93.0968 84.4092 92.8698Z" fill="#263238"/>
<path d="M70.0816 88.5461C68.8574 87.6448 67.8444 86.525 67.1035 85.2543C65.7779 82.8406 66.1701 80.4335 67.1035 77.9998C64.1109 79.215 62.324 82.7905 61.6557 85.6783C61.2926 87.2941 61.249 88.6829 61.5468 89.3506C62.3857 91.1668 67.2996 98.5048 88.3461 95.2731L88.3243 93.24C83.0545 92.9395 73.8514 91.4639 70.0816 88.5461Z" fill="#1B4D3E"/>
<path d="M67.1039 85.258C67.1039 85.258 66.8533 79.6026 70.7103 77.3758C69.4764 77.3234 68.2467 77.5408 67.122 78.0101C66.1741 80.4372 65.7819 82.8443 67.1039 85.258Z" fill="#263238"/>
<path d="M90.155 93.6208C90.155 93.6208 98.5337 100.014 112.215 98.5585C112.215 98.5585 106.404 102.054 99.3 101.263C99.3 101.263 100.321 103.646 106.306 106.547C106.306 106.547 91.3535 106.674 87.4893 95.2634L90.155 93.6208Z" fill="#1B4D3E"/>
<path d="M89.5664 96.8455C92.5154 97.5666 95.4354 96.3981 95.4354 96.3981L94.887 96.1711L94.8035 96.1377L94.3168 95.9274L94.2079 95.8807L93.7648 95.677C93.7273 95.6612 93.691 95.6434 93.6558 95.6236C93.5142 95.5602 93.3798 95.4934 93.2454 95.43L93.1365 95.3766L92.7733 95.1863L92.668 95.1329L92.3266 94.9526L92.2322 94.9025L91.9126 94.7356L91.8254 94.6888L91.5494 94.5286L91.4695 94.4819L91.2261 94.335L91.1535 94.2916L90.9428 94.1614L90.8811 94.1213L90.7032 94.0078L90.6487 93.9711L90.507 93.8776L90.4598 93.8442L90.3545 93.7708L90.3073 93.7374L90.2419 93.694L90.1983 93.6639L90.1765 93.6439L90.1511 93.6272L89.2795 94.1647L87.4854 95.2697C91.346 106.681 106.298 106.554 106.302 106.554C98.6096 106.22 90.5288 100.855 89.5664 96.8455Z" fill="#263238"/>
<path d="M108.731 85.258C108.731 85.258 107.068 83.4686 101.965 84.2765C98.8855 84.7672 93.6557 88.0657 91.0698 93.5608C90.743 94.2552 90.0093 94.4889 89.6171 94.9563C89.526 95.061 89.4264 95.1592 89.3193 95.2501L87.7031 95.2668C87.7031 90.1322 90.8374 84.9509 93.801 81.9529C96.7645 78.9549 101.646 77.4893 105.125 77.3758C106.359 77.3234 107.589 77.5408 108.713 78.0101C109.661 80.4372 110.072 82.8443 108.731 85.258Z" fill="#1B4D3E"/>
<path d="M91.4251 92.8698C91.4251 92.8698 88.5196 91.9684 89.7145 87.6885C88.4608 90.0536 87.7782 92.6399 87.7134 95.2702L89.3295 95.2535C89.4367 95.1626 89.5363 95.0644 89.6274 94.9597C90.0196 94.4923 90.7532 94.2586 91.0801 93.5642C91.1854 93.3239 91.3053 93.0968 91.4251 92.8698Z" fill="#263238"/>
<path d="M105.754 88.5461C106.978 87.6448 107.991 86.525 108.732 85.2543C110.057 82.8406 109.665 80.4335 108.732 77.9998C111.724 79.215 113.511 82.7905 114.18 85.6783C114.543 87.2941 114.586 88.6829 114.289 89.3506C113.45 91.1668 108.536 98.5048 87.4893 95.2731L87.511 93.24C92.7808 92.9395 101.984 91.4639 105.754 88.5461Z" fill="#1B4D3E"/>
<path d="M108.731 85.258C108.731 85.258 108.982 79.6026 105.125 77.3758C106.359 77.3234 107.589 77.5408 108.713 78.0101C109.661 80.4372 110.072 82.8443 108.731 85.258Z" fill="#263238"/>
<path d="M90.8232 93.9245C90.8002 93.728 90.7208 93.5408 90.5931 93.3818C90.4655 93.2228 90.2942 93.0979 90.0968 93.0197C89.3978 92.7942 88.6575 92.6966 87.9177 92.7326C87.157 92.6966 86.3967 92.8104 85.6878 93.0665C85.5061 93.1468 85.3501 93.269 85.2349 93.421C85.1198 93.5731 85.0493 93.75 85.0304 93.9345C84.9541 94.5421 84.9069 95.5704 85.3427 96.1546C86.0607 96.7199 86.9798 97.0229 87.925 97.0059C88.8661 97.0247 89.7813 96.7213 90.4927 96.1546C90.9249 95.5603 90.8813 94.5321 90.8232 93.9245Z" fill="#455A64"/>
</svg>
