<svg width="90" height="90" viewBox="0 0 90 90" fill="none" xmlns="http://www.w3.org/2000/svg">
<path d="M7.5 78.75C7.5 67.5 14.4375 58.65 26.55 56.25C35.625 54.45 45 48.75 48.75 45M41.25 75C34.6652 75.0199 28.3134 72.5644 23.4544 68.1203C18.5954 63.6762 15.5841 57.5683 15.0178 51.0079C14.4514 44.4475 16.3713 37.9138 20.3968 32.7028C24.4223 27.4917 30.2592 23.9839 36.75 22.875C58.125 18.75 63.75 16.8 71.25 7.5C75 15 78.75 23.175 78.75 37.5C78.75 58.125 60.825 75 41.25 75Z" stroke="#1B4D3E" stroke-width="7.5" stroke-linecap="round" stroke-linejoin="round"/>
</svg>
