<svg width="90" height="90" viewBox="0 0 90 90" fill="none" xmlns="http://www.w3.org/2000/svg">
<path d="M45 60H45.0375M60 60H60.0375M30 60H30.0375M11.25 71.25C11.25 73.2391 12.0402 75.1468 13.4467 76.5533C14.8532 77.9598 16.7609 78.75 18.75 78.75H71.25C73.2391 78.75 75.1468 77.9598 76.5533 76.5533C77.9598 75.1468 78.75 73.2391 78.75 71.25V31.875C78.7504 31.5386 78.6602 31.2084 78.489 30.9188C78.3178 30.6293 78.0719 30.3911 77.777 30.2293C77.4822 30.0674 77.1492 29.9879 76.813 29.999C76.4768 30.0102 76.1498 30.1115 75.8663 30.2925L59.1338 40.9575C58.8502 41.1385 58.5232 41.2398 58.187 41.251C57.8508 41.2621 57.5178 41.1826 57.223 41.0207C56.9281 40.8589 56.6822 40.6207 56.511 40.3312C56.3398 40.0416 56.2496 39.7114 56.25 39.375V31.875C56.2504 31.5386 56.1602 31.2084 55.989 30.9188C55.8178 30.6293 55.5719 30.3911 55.277 30.2293C54.9822 30.0674 54.6492 29.9879 54.313 29.999C53.9768 30.0102 53.6498 30.1115 53.3662 30.2925L36.6375 40.9575C36.3539 41.1395 36.0265 41.2416 35.6898 41.2533C35.353 41.2649 35.0193 41.1856 34.7239 41.0236C34.4284 40.8617 34.182 40.6231 34.0106 40.333C33.8392 40.0429 33.7492 39.712 33.75 39.375V18.75C33.75 16.7609 32.9598 14.8532 31.5533 13.4467C30.1468 12.0402 28.2391 11.25 26.25 11.25H18.75C16.7609 11.25 14.8532 12.0402 13.4467 13.4467C12.0402 14.8532 11.25 16.7609 11.25 18.75V71.25Z" stroke="#1B4D3E" stroke-width="7.5" stroke-linecap="round" stroke-linejoin="round"/>
</svg>
