<svg width="167" height="41" viewBox="0 0 167 41" fill="none" xmlns="http://www.w3.org/2000/svg">
<rect x="0.5" y="41" width="41" height="166" rx="8" transform="rotate(-90 0.5 41)" fill="#3E8E41"/>
<path d="M14.7687 25.098C14.1154 25.098 13.5274 24.986 13.0047 24.762C12.482 24.5287 12.0714 24.202 11.7727 23.782C11.474 23.362 11.3247 22.872 11.3247 22.312H13.0327C13.07 22.732 13.2334 23.0773 13.5227 23.348C13.8214 23.6187 14.2367 23.754 14.7687 23.754C15.3194 23.754 15.7487 23.6233 16.0567 23.362C16.3647 23.0913 16.5187 22.746 16.5187 22.326C16.5187 21.9993 16.4207 21.7333 16.2247 21.528C16.038 21.3227 15.8 21.164 15.5107 21.052C15.2307 20.94 14.8387 20.8187 14.3347 20.688C13.7 20.52 13.182 20.352 12.7807 20.184C12.3887 20.0067 12.0527 19.736 11.7727 19.372C11.4927 19.008 11.3527 18.5227 11.3527 17.916C11.3527 17.356 11.4927 16.866 11.7727 16.446C12.0527 16.026 12.4447 15.704 12.9487 15.48C13.4527 15.256 14.036 15.144 14.6987 15.144C15.6414 15.144 16.4114 15.382 17.0087 15.858C17.6154 16.3247 17.9514 16.9687 18.0167 17.79H16.2527C16.2247 17.4353 16.0567 17.132 15.7487 16.88C15.4407 16.628 15.0347 16.502 14.5307 16.502C14.0734 16.502 13.7 16.6187 13.4107 16.852C13.1214 17.0853 12.9767 17.4213 12.9767 17.86C12.9767 18.1587 13.0654 18.406 13.2427 18.602C13.4294 18.7887 13.6627 18.938 13.9427 19.05C14.2227 19.162 14.6054 19.2833 15.0907 19.414C15.7347 19.5913 16.2574 19.7687 16.6587 19.946C17.0694 20.1233 17.4147 20.3987 17.6947 20.772C17.984 21.136 18.1287 21.626 18.1287 22.242C18.1287 22.7367 17.9934 23.2033 17.7227 23.642C17.4614 24.0807 17.074 24.4353 16.5607 24.706C16.0567 24.9673 15.4594 25.098 14.7687 25.098ZM26.2979 15.27V16.572H23.7079V25H22.1119V16.572H19.5079V15.27H26.2979ZM33.7803 23.012H29.7063L29.0063 25H27.3403L30.8263 15.256H32.6743L36.1603 25H34.4803L33.7803 23.012ZM33.3323 21.71L31.7503 17.188L30.1543 21.71H33.3323ZM42.73 25L40.49 21.108H39.272V25H37.676V15.27H41.036C41.7826 15.27 42.4126 15.4007 42.926 15.662C43.4486 15.9233 43.836 16.2733 44.088 16.712C44.3493 17.1507 44.48 17.6407 44.48 18.182C44.48 18.8167 44.2933 19.3953 43.92 19.918C43.556 20.4313 42.9913 20.7813 42.226 20.968L44.634 25H42.73ZM39.272 19.834H41.036C41.6333 19.834 42.0813 19.6847 42.38 19.386C42.688 19.0873 42.842 18.686 42.842 18.182C42.842 17.678 42.6926 17.286 42.394 17.006C42.0953 16.7167 41.6426 16.572 41.036 16.572H39.272V19.834ZM52.8077 15.27V16.572H50.2177V25H48.6217V16.572H46.0177V15.27H52.8077ZM61.2667 25.098C60.6134 25.098 60.0254 24.986 59.5027 24.762C58.9801 24.5287 58.5694 24.202 58.2707 23.782C57.9721 23.362 57.8227 22.872 57.8227 22.312H59.5307C59.5681 22.732 59.7314 23.0773 60.0207 23.348C60.3194 23.6187 60.7347 23.754 61.2667 23.754C61.8174 23.754 62.2467 23.6233 62.5547 23.362C62.8627 23.0913 63.0167 22.746 63.0167 22.326C63.0167 21.9993 62.9187 21.7333 62.7227 21.528C62.5361 21.3227 62.2981 21.164 62.0087 21.052C61.7287 20.94 61.3367 20.8187 60.8327 20.688C60.1981 20.52 59.6801 20.352 59.2787 20.184C58.8867 20.0067 58.5507 19.736 58.2707 19.372C57.9907 19.008 57.8507 18.5227 57.8507 17.916C57.8507 17.356 57.9907 16.866 58.2707 16.446C58.5507 16.026 58.9427 15.704 59.4467 15.48C59.9507 15.256 60.5341 15.144 61.1967 15.144C62.1394 15.144 62.9094 15.382 63.5067 15.858C64.1134 16.3247 64.4494 16.9687 64.5147 17.79H62.7507C62.7227 17.4353 62.5547 17.132 62.2467 16.88C61.9387 16.628 61.5327 16.502 61.0287 16.502C60.5714 16.502 60.1981 16.6187 59.9087 16.852C59.6194 17.0853 59.4747 17.4213 59.4747 17.86C59.4747 18.1587 59.5634 18.406 59.7407 18.602C59.9274 18.7887 60.1607 18.938 60.4407 19.05C60.7207 19.162 61.1034 19.2833 61.5887 19.414C62.2327 19.5913 62.7554 19.7687 63.1567 19.946C63.5674 20.1233 63.9127 20.3987 64.1927 20.772C64.4821 21.136 64.6267 21.626 64.6267 22.242C64.6267 22.7367 64.4914 23.2033 64.2207 23.642C63.9594 24.0807 63.5721 24.4353 63.0587 24.706C62.5547 24.9673 61.9574 25.098 61.2667 25.098ZM70.948 25.098C70.0426 25.098 69.2073 24.888 68.442 24.468C67.686 24.0387 67.084 23.446 66.636 22.69C66.1973 21.9247 65.978 21.066 65.978 20.114C65.978 19.162 66.1973 18.308 66.636 17.552C67.084 16.796 67.686 16.208 68.442 15.788C69.2073 15.3587 70.0426 15.144 70.948 15.144C71.8626 15.144 72.698 15.3587 73.454 15.788C74.2193 16.208 74.8213 16.796 75.26 17.552C75.6986 18.308 75.918 19.162 75.918 20.114C75.918 21.066 75.6986 21.9247 75.26 22.69C74.8213 23.446 74.2193 24.0387 73.454 24.468C72.698 24.888 71.8626 25.098 70.948 25.098ZM70.948 23.712C71.592 23.712 72.166 23.5673 72.67 23.278C73.174 22.9793 73.566 22.5593 73.846 22.018C74.1353 21.4673 74.28 20.8327 74.28 20.114C74.28 19.3953 74.1353 18.7653 73.846 18.224C73.566 17.6827 73.174 17.2673 72.67 16.978C72.166 16.6887 71.592 16.544 70.948 16.544C70.304 16.544 69.73 16.6887 69.226 16.978C68.722 17.2673 68.3253 17.6827 68.036 18.224C67.756 18.7653 67.616 19.3953 67.616 20.114C67.616 20.8327 67.756 21.4673 68.036 22.018C68.3253 22.5593 68.722 22.9793 69.226 23.278C69.73 23.5673 70.304 23.712 70.948 23.712ZM82.5425 25L80.3025 21.108H79.0845V25H77.4885V15.27H80.8485C81.5951 15.27 82.2251 15.4007 82.7385 15.662C83.2611 15.9233 83.6485 16.2733 83.9005 16.712C84.1618 17.1507 84.2925 17.6407 84.2925 18.182C84.2925 18.8167 84.1058 19.3953 83.7325 19.918C83.3685 20.4313 82.8038 20.7813 82.0385 20.968L84.4465 25H82.5425ZM79.0845 19.834H80.8485C81.4458 19.834 81.8938 19.6847 82.1925 19.386C82.5005 19.0873 82.6545 18.686 82.6545 18.182C82.6545 17.678 82.5051 17.286 82.2065 17.006C81.9078 16.7167 81.4551 16.572 80.8485 16.572H79.0845V19.834ZM92.6202 15.27V16.572H90.0302V25H88.4342V16.572H85.8302V15.27H92.6202ZM95.8325 15.27V25H94.2365V15.27H95.8325ZM105.922 25H104.326L99.5239 17.734V25H97.9279V15.256H99.5239L104.326 22.508V15.256H105.922V25ZM115.06 18.07C114.808 17.5847 114.458 17.2207 114.01 16.978C113.562 16.726 113.044 16.6 112.456 16.6C111.812 16.6 111.238 16.7447 110.734 17.034C110.23 17.3233 109.833 17.734 109.544 18.266C109.264 18.798 109.124 19.414 109.124 20.114C109.124 20.814 109.264 21.4347 109.544 21.976C109.833 22.508 110.23 22.9187 110.734 23.208C111.238 23.4973 111.812 23.642 112.456 23.642C113.324 23.642 114.028 23.3993 114.57 22.914C115.111 22.4287 115.442 21.7707 115.564 20.94H111.91V19.666H117.272V20.912C117.169 21.668 116.898 22.3633 116.46 22.998C116.03 23.6327 115.466 24.1413 114.766 24.524C114.075 24.8973 113.305 25.084 112.456 25.084C111.541 25.084 110.706 24.874 109.95 24.454C109.194 24.0247 108.592 23.432 108.144 22.676C107.705 21.92 107.486 21.066 107.486 20.114C107.486 19.162 107.705 18.308 108.144 17.552C108.592 16.796 109.194 16.208 109.95 15.788C110.715 15.3587 111.55 15.144 112.456 15.144C113.492 15.144 114.411 15.4007 115.214 15.914C116.026 16.418 116.614 17.1367 116.978 18.07H115.06ZM130.477 25H128.881L124.079 17.734V25H122.483V15.256H124.079L128.881 22.508V15.256H130.477V25ZM137.01 25.098C136.105 25.098 135.27 24.888 134.504 24.468C133.748 24.0387 133.146 23.446 132.698 22.69C132.26 21.9247 132.04 21.066 132.04 20.114C132.04 19.162 132.26 18.308 132.698 17.552C133.146 16.796 133.748 16.208 134.504 15.788C135.27 15.3587 136.105 15.144 137.01 15.144C137.925 15.144 138.76 15.3587 139.516 15.788C140.282 16.208 140.884 16.796 141.322 17.552C141.761 18.308 141.98 19.162 141.98 20.114C141.98 21.066 141.761 21.9247 141.322 22.69C140.884 23.446 140.282 24.0387 139.516 24.468C138.76 24.888 137.925 25.098 137.01 25.098ZM137.01 23.712C137.654 23.712 138.228 23.5673 138.732 23.278C139.236 22.9793 139.628 22.5593 139.908 22.018C140.198 21.4673 140.342 20.8327 140.342 20.114C140.342 19.3953 140.198 18.7653 139.908 18.224C139.628 17.6827 139.236 17.2673 138.732 16.978C138.228 16.6887 137.654 16.544 137.01 16.544C136.366 16.544 135.792 16.6887 135.288 16.978C134.784 17.2673 134.388 17.6827 134.098 18.224C133.818 18.7653 133.678 19.3953 133.678 20.114C133.678 20.8327 133.818 21.4673 134.098 22.018C134.388 22.5593 134.784 22.9793 135.288 23.278C135.792 23.5673 136.366 23.712 137.01 23.712ZM156.221 15.27L153.337 25H151.531L149.487 17.636L147.317 25L145.525 25.014L142.767 15.27H144.461L146.477 23.194L148.661 15.27H150.453L152.483 23.152L154.513 15.27H156.221Z" fill="white"/>
</svg>
