<svg width="264" height="98" viewBox="0 0 264 98" fill="none" xmlns="http://www.w3.org/2000/svg">
<path d="M156.728 97.5322H161.526V81.0289H156.728V97.5322Z" fill="#6F4439"/>
<path d="M177.326 80.9729C177.326 80.9729 177.091 80.8163 177.611 80.134C178.131 79.4518 177.326 79.0883 177.326 79.0883C175.055 80.3969 171.89 79.0883 171.89 79.0883C171.89 79.0883 175.626 77.9362 176.095 76.8345C176.448 76.0124 175.827 75.9229 175.486 75.9285C175.866 75.8894 176.694 75.7552 176.945 75.3134C177.275 74.7373 175.978 74.0551 175.978 74.0551C175.978 74.0551 176.19 73.7419 175.978 73.1659C175.765 72.5898 170.894 71.751 170.894 71.751C172.315 71.9076 172.829 70.4927 172.829 70.4927C172.829 70.4927 175.24 70.543 175.805 69.6035C176.369 68.6584 175.424 68.4011 173.819 67.6126C172.214 66.8296 168.669 63.8936 168.669 63.8936C168.669 63.8936 170.889 63.6867 171.504 63.161C172.119 62.6353 171.549 62.5346 171.549 62.5346C174.194 62.7975 173.299 61.3826 173.299 61.3826C169.753 60.2809 167.863 57.8705 167.863 57.8705C167.863 57.8705 169.519 57.5014 170.369 56.7185C171.219 55.9356 169.658 55.723 169.658 55.723C169.658 55.723 172.779 55.3036 170.984 54.1516C169.619 53.2736 167.433 52.0991 166.756 51.7412C167.5 52.0153 169.189 51.6853 169.189 51.6853C171.174 50.7961 169.189 49.4875 169.189 49.4875C166.873 48.1788 163.468 44.8793 163.468 44.8793C163.468 44.8793 165.168 45.7685 166.018 45.5057C166.868 45.2428 165.073 44.197 165.073 44.197C165.073 44.197 165.973 44.4599 166.348 44.197C166.722 43.9342 165.358 42.7318 165.358 42.7318C163.322 41.4064 160.811 37.9335 159.76 36.4403C158.708 37.9335 156.197 41.4064 154.162 42.7318C154.162 42.7318 152.792 43.9342 153.172 44.197C153.552 44.4599 154.447 44.197 154.447 44.197C154.447 44.197 152.652 45.2428 153.502 45.5057C154.352 45.7685 156.052 44.8793 156.052 44.8793C156.052 44.8793 152.652 48.1788 150.331 49.4875C150.331 49.4875 148.346 50.7961 150.331 51.6853C150.331 51.6853 152.02 52.0097 152.764 51.7412C152.087 52.0935 149.9 53.2736 148.536 54.1516C146.741 55.3036 149.861 55.723 149.861 55.723C149.861 55.723 148.301 55.93 149.151 56.7185C150.001 57.5014 151.656 57.8705 151.656 57.8705C151.656 57.8705 149.766 60.2809 146.22 61.3826C146.22 61.3826 145.32 62.7975 147.971 62.5346C147.971 62.5346 147.406 62.6409 148.016 63.161C148.631 63.6867 150.851 63.8936 150.851 63.8936C150.851 63.8936 147.305 66.8296 145.7 67.6126C144.095 68.3955 143.15 68.6584 143.715 69.6035C144.28 70.5486 146.69 70.4927 146.69 70.4927C146.69 70.4927 147.21 71.9076 148.625 71.751C148.625 71.751 143.76 72.5898 143.547 73.1659C143.335 73.7419 143.547 74.0551 143.547 74.0551C143.547 74.0551 142.25 74.7373 142.58 75.3134C142.831 75.7496 143.659 75.8894 144.039 75.9285C143.704 75.9229 143.078 76.0124 143.43 76.8345C143.905 77.9362 147.635 79.0883 147.635 79.0883C147.635 79.0883 144.47 80.3969 142.2 79.0883C142.2 79.0883 141.394 79.4574 141.914 80.134C142.434 80.8163 142.2 80.9729 142.2 80.9729C142.2 80.9729 141.02 80.0837 141.54 81.4427C142.06 82.8072 144.8 83.6405 144.8 83.6405C144.8 83.6405 143.24 83.9034 143.715 84.7422C144.185 85.5811 146.17 86.5765 148.346 86.7835C150.521 86.9904 153.452 86.2074 153.452 86.2074C153.452 86.2074 151.466 87.2532 152.836 87.8293C154.207 88.4053 155.767 87.0966 155.767 87.0966C155.767 87.0966 155.482 88.4388 156.617 87.9747C157.752 87.5161 158.697 86.6213 158.697 86.6213C158.697 86.6213 159.05 88.5954 159.76 88.1256C160.47 88.601 160.822 86.6213 160.822 86.6213C160.822 86.6213 161.767 87.5105 162.903 87.9747C164.038 88.4332 163.753 87.0966 163.753 87.0966C163.753 87.0966 165.313 88.4053 166.683 87.8293C168.053 87.2532 166.068 86.2074 166.068 86.2074C166.068 86.2074 168.999 86.9904 171.174 86.7835C173.349 86.5765 175.335 85.5811 175.805 84.7422C176.274 83.9034 174.72 83.6405 174.72 83.6405C174.72 83.6405 177.46 82.8016 177.98 81.4427C178.5 80.0781 177.32 80.9729 177.32 80.9729H177.326Z" fill="#455A64"/>
<path d="M166.679 49.65C166.679 49.65 166.628 49.6275 166.605 49.6162C166.634 49.6218 166.656 49.6331 166.679 49.65Z" fill="black"/>
<g opacity="0.2">
<path d="M177.326 80.9729C177.326 80.9729 177.091 80.8163 177.611 80.134C178.131 79.4518 177.326 79.0883 177.326 79.0883C175.055 80.3969 171.89 79.0883 171.89 79.0883C171.89 79.0883 175.626 77.9362 176.095 76.8345C176.448 76.0124 175.827 75.9229 175.486 75.9285C175.866 75.8894 176.694 75.7552 176.945 75.3134C177.275 74.7373 175.978 74.0551 175.978 74.0551C175.978 74.0551 176.19 73.7419 175.978 73.1659C175.765 72.5898 170.894 71.751 170.894 71.751C172.315 71.9076 172.829 70.4927 172.829 70.4927C172.829 70.4927 175.24 70.543 175.805 69.6035C176.369 68.6584 175.424 68.4011 173.819 67.6126C172.214 66.8296 168.669 63.8936 168.669 63.8936C168.669 63.8936 170.889 63.6867 171.504 63.161C172.119 62.6353 171.549 62.5346 171.549 62.5346C174.194 62.7975 173.299 61.3826 173.299 61.3826C169.753 60.2809 167.863 57.8705 167.863 57.8705C167.863 57.8705 169.519 57.5014 170.369 56.7185C171.219 55.9356 169.658 55.723 169.658 55.723C169.658 55.723 172.779 55.3036 170.984 54.1516C169.619 53.2736 167.433 52.0991 166.756 51.7412C167.5 52.0153 169.189 51.6853 169.189 51.6853C171.174 50.7961 169.189 49.4875 169.189 49.4875C166.873 48.1788 163.468 44.8793 163.468 44.8793C163.468 44.8793 165.168 45.7685 166.018 45.5057C166.868 45.2428 165.073 44.197 165.073 44.197C165.073 44.197 165.973 44.4599 166.348 44.197C166.722 43.9342 165.358 42.7318 165.358 42.7318C163.322 41.4064 160.811 37.9335 159.76 36.4403C158.708 37.9335 156.197 41.4064 154.162 42.7318C154.162 42.7318 152.792 43.9342 153.172 44.197C153.552 44.4599 154.447 44.197 154.447 44.197C154.447 44.197 152.652 45.2428 153.502 45.5057C154.352 45.7685 156.052 44.8793 156.052 44.8793C156.052 44.8793 152.652 48.1788 150.331 49.4875C150.331 49.4875 148.346 50.7961 150.331 51.6853C150.331 51.6853 152.02 52.0097 152.764 51.7412C152.087 52.0935 149.9 53.2736 148.536 54.1516C146.741 55.3036 149.861 55.723 149.861 55.723C149.861 55.723 148.301 55.93 149.151 56.7185C150.001 57.5014 151.656 57.8705 151.656 57.8705C151.656 57.8705 149.766 60.2809 146.22 61.3826C146.22 61.3826 145.32 62.7975 147.971 62.5346C147.971 62.5346 147.406 62.6409 148.016 63.161C148.631 63.6867 150.851 63.8936 150.851 63.8936C150.851 63.8936 147.305 66.8296 145.7 67.6126C144.095 68.3955 143.15 68.6584 143.715 69.6035C144.28 70.5486 146.69 70.4927 146.69 70.4927C146.69 70.4927 147.21 71.9076 148.625 71.751C148.625 71.751 143.76 72.5898 143.547 73.1659C143.335 73.7419 143.547 74.0551 143.547 74.0551C143.547 74.0551 142.25 74.7373 142.58 75.3134C142.831 75.7496 143.659 75.8894 144.039 75.9285C143.704 75.9229 143.078 76.0124 143.43 76.8345C143.905 77.9362 147.635 79.0883 147.635 79.0883C147.635 79.0883 144.47 80.3969 142.2 79.0883C142.2 79.0883 141.394 79.4574 141.914 80.134C142.434 80.8163 142.2 80.9729 142.2 80.9729C142.2 80.9729 141.02 80.0837 141.54 81.4427C142.06 82.8072 144.8 83.6405 144.8 83.6405C144.8 83.6405 143.24 83.9034 143.715 84.7422C144.185 85.5811 146.17 86.5765 148.346 86.7835C150.521 86.9904 153.452 86.2074 153.452 86.2074C153.452 86.2074 151.466 87.2532 152.836 87.8293C154.207 88.4053 155.767 87.0966 155.767 87.0966C155.767 87.0966 155.482 88.4388 156.617 87.9747C157.752 87.5161 158.697 86.6213 158.697 86.6213C158.697 86.6213 159.05 88.5954 159.76 88.1256C160.47 88.601 160.822 86.6213 160.822 86.6213C160.822 86.6213 161.767 87.5105 162.903 87.9747C164.038 88.4332 163.753 87.0966 163.753 87.0966C163.753 87.0966 165.313 88.4053 166.683 87.8293C168.053 87.2532 166.068 86.2074 166.068 86.2074C166.068 86.2074 168.999 86.9904 171.174 86.7835C173.349 86.5765 175.335 85.5811 175.805 84.7422C176.274 83.9034 174.72 83.6405 174.72 83.6405C174.72 83.6405 177.46 82.8016 177.98 81.4427C178.5 80.0781 177.32 80.9729 177.32 80.9729H177.326Z" fill="black"/>
</g>
<path d="M126.754 97.5322H134.421V71.1862H126.754V97.5322Z" fill="#6F4439"/>
<path d="M159.653 71.0967C159.653 71.0967 159.279 70.845 160.106 69.7601C160.934 68.6752 159.653 68.088 159.653 68.088C156.03 70.1795 150.974 68.088 150.974 68.088C150.974 68.088 156.936 66.248 157.691 64.492C158.255 63.1778 157.26 63.0324 156.723 63.0436C157.333 62.9821 158.647 62.764 159.05 62.0649C159.575 61.1421 157.5 60.0572 157.5 60.0572C157.5 60.0572 157.842 59.5539 157.5 58.6367C157.159 57.714 149.386 56.3774 149.386 56.3774C151.651 56.6291 152.478 54.3697 152.478 54.3697C152.478 54.3697 156.326 54.4536 157.232 52.9492C158.138 51.4449 156.628 51.0254 154.061 49.7727C151.494 48.52 145.835 43.8335 145.835 43.8335C145.835 43.8335 149.38 43.498 150.364 42.6647C151.343 41.8259 150.443 41.6637 150.443 41.6637C154.671 42.0831 153.233 39.8238 153.233 39.8238C147.574 38.0677 144.554 34.2201 144.554 34.2201C144.554 34.2201 147.194 33.6329 148.553 32.3802C149.911 31.1275 147.423 30.792 147.423 30.792C147.423 30.792 152.406 30.1209 149.537 28.281C147.356 26.8829 143.872 24.9982 142.787 24.4334C143.972 24.8696 146.668 24.3495 146.668 24.3495C149.839 22.929 146.668 20.8374 146.668 20.8374C142.971 18.7459 137.535 13.4778 137.535 13.4778C137.535 13.4778 140.253 14.8983 141.612 14.4788C142.971 14.0594 140.102 12.3873 140.102 12.3873C140.102 12.3873 141.534 12.8067 142.138 12.3873C142.742 11.9678 140.555 10.044 140.555 10.044C137.3 7.93008 133.291 2.38238 131.613 0C129.935 2.38238 125.925 7.93008 122.671 10.044C122.671 10.044 120.484 11.9678 121.088 12.3873C121.692 12.8067 123.124 12.3873 123.124 12.3873C123.124 12.3873 120.255 14.0594 121.614 14.4788C122.973 14.8983 125.691 13.4778 125.691 13.4778C125.691 13.4778 120.255 18.7459 116.558 20.8374C116.558 20.8374 113.387 22.929 116.558 24.3495C116.558 24.3495 119.254 24.8696 120.439 24.4334C119.354 24.9982 115.87 26.8829 113.689 28.281C110.82 30.1209 115.803 30.792 115.803 30.792C115.803 30.792 113.315 31.1275 114.673 32.3802C116.032 33.6329 118.672 34.2201 118.672 34.2201C118.672 34.2201 115.652 38.0677 109.993 39.8238C109.993 39.8238 108.561 42.0831 112.783 41.6637C112.783 41.6637 111.877 41.8315 112.856 42.6647C113.835 43.5036 117.386 43.8335 117.386 43.8335C117.386 43.8335 111.726 48.52 109.159 49.7727C106.592 51.0254 105.082 51.4449 105.988 52.9492C106.894 54.4536 110.742 54.3697 110.742 54.3697C110.742 54.3697 111.57 56.6291 113.835 56.3774C113.835 56.3774 106.061 57.714 105.72 58.6367C105.379 59.5595 105.72 60.0572 105.72 60.0572C105.72 60.0572 103.645 61.1421 104.171 62.0649C104.574 62.764 105.888 62.9821 106.497 63.0436C105.96 63.0324 104.965 63.1778 105.53 64.492C106.285 66.248 112.246 68.088 112.246 68.088C112.246 68.088 107.191 70.1795 103.567 68.088C103.567 68.088 102.286 68.6752 103.114 69.7601C103.942 70.845 103.567 71.0967 103.567 71.0967C103.567 71.0967 101.682 69.6762 102.51 71.8517C103.338 74.0271 107.716 75.3637 107.716 75.3637C107.716 75.3637 105.228 75.7832 105.983 77.1198C106.738 78.4563 109.909 80.0446 113.376 80.3801C116.849 80.7157 121.524 79.4574 121.524 79.4574C121.524 79.4574 118.353 81.1295 120.546 82.0523C122.732 82.975 125.226 80.8835 125.226 80.8835C125.226 80.8835 124.773 83.0254 126.585 82.2872C128.397 81.549 129.907 80.1285 129.907 80.1285C129.907 80.1285 130.472 83.2826 131.602 82.5276C132.731 83.2826 133.296 80.1285 133.296 80.1285C133.296 80.1285 134.806 81.549 136.618 82.2872C138.43 83.0254 137.977 80.8835 137.977 80.8835C137.977 80.8835 140.466 82.975 142.658 82.0523C144.845 81.1295 141.679 79.4574 141.679 79.4574C141.679 79.4574 146.36 80.7101 149.828 80.3801C153.3 80.0446 156.466 78.4563 157.221 77.1198C157.976 75.7832 155.487 75.3637 155.487 75.3637C155.487 75.3637 159.866 74.0271 160.694 71.8517C161.521 69.6762 159.637 71.0967 159.637 71.0967H159.653Z" fill="#455A64"/>
<path d="M142.648 21.0839C142.608 21.067 142.569 21.0445 142.529 21.0276C142.574 21.0389 142.614 21.0614 142.648 21.0839Z" fill="black"/>
<g opacity="0.1">
<path d="M136.959 12.5047L135.164 11.8C135.164 11.8 134.174 13.2764 132.29 12.3033C130.411 11.3303 129.41 9.41205 129.41 9.41205C129.41 9.41205 126.77 11.1625 126.496 10.0496C126.222 8.94229 127.324 8.50049 127.324 8.50049C127.234 8.69622 127.15 8.9367 127.257 9.11566C127.374 9.31698 127.637 9.3058 127.844 9.25547C128.532 9.08769 129.175 8.66826 129.639 8.08105C130.165 9.33935 131.244 10.2062 132.351 10.8493C132.838 11.1289 133.391 11.3862 133.917 11.2184C134.443 11.045 134.79 10.2341 134.398 9.80912C135.226 10.8996 136.462 11.5987 137.748 11.6994C138.022 11.7217 138.38 11.649 138.43 11.347C138.464 11.1737 138.363 11.0003 138.268 10.8605C137.877 10.2901 137.401 9.79793 136.859 9.41205C138.072 10.3013 139.493 10.8437 140.947 10.9668L142.222 11.1401C142.267 11.2911 142.25 11.4197 142.138 11.4924C141.534 11.9119 140.102 11.4924 140.102 11.4924C140.102 11.4924 142.971 13.1646 141.612 13.584C140.253 14.0034 137.535 12.583 137.535 12.583C137.535 12.583 137.658 12.7004 137.871 12.9017L136.954 12.5047H136.959Z" fill="black"/>
</g>
<g opacity="0.1">
<path d="M120.914 23.751L124.399 22.4871C124.399 22.4871 124.79 24.6179 126.926 24.5004C126.926 24.5004 128.777 24.657 128.917 22.4871C128.917 22.4871 130.696 24.2208 134.292 23.7119C134.292 23.7119 134.896 23.6336 134.756 22.6493C134.756 22.6493 135.718 23.8741 137.351 23.0017C138.989 22.1348 137.569 20.6752 137.569 20.6752L137.351 20.5578C137.502 20.8486 137.647 21.2009 137.524 21.5029C137.339 21.9335 136.78 21.9055 136.366 21.7713C135.22 21.4078 134.141 20.8038 133.201 19.9929C133.453 20.2949 133.716 20.6081 133.855 20.994C133.995 21.3798 133.99 21.8552 133.744 22.1684C133.503 22.476 133.106 22.5487 132.742 22.571C130.936 22.6717 129.107 21.8384 127.888 20.3564C127.871 20.9157 128.006 21.4749 127.983 22.0342C127.961 22.5934 127.726 23.2142 127.239 23.3819C126.669 23.5833 126.082 23.0408 125.83 22.4368C125.579 21.8328 125.523 21.145 125.249 20.5466C124.399 21.391 123.37 22.023 122.268 22.3753C121.96 22.476 121.63 22.5543 121.312 22.4983C120.993 22.4424 120.68 22.2299 120.568 21.8943C120.473 21.6035 120.579 21.2344 120.808 21.0834C119.41 21.721 116.178 22.8507 115.54 21.268C115.205 21.9503 115.277 22.778 116.782 23.4546C116.782 23.4546 119.477 23.9747 120.663 23.5385C120.461 23.6448 120.171 23.7958 119.818 23.9859L120.909 23.7454L120.914 23.751Z" fill="black"/>
</g>
<g opacity="0.1">
<path d="M145.198 34.03C144.297 33.8902 143.425 33.5602 142.647 33.0513C142.413 33.7448 141.641 34.0523 140.981 33.9293C140.321 33.8063 139.756 33.3589 139.214 32.9283C138.733 33.6273 137.967 34.0691 137.172 34.1083C136.378 34.1418 135.584 33.7727 135.053 33.1184C132.849 34.7458 130.232 35.9482 127.604 35.5959C127.117 35.5287 126.603 35.3889 126.29 34.9695C125.976 34.5501 126.021 33.7895 126.48 33.5882C124.875 33.9349 123.208 34.2816 121.62 33.8342C120.032 33.3924 118.756 32.067 119.098 30.0034C119.17 30.3278 119.31 30.8311 119.511 31.1555C119.713 31.4798 120.071 31.6364 120.412 31.7483C123.051 32.6431 125.993 32.397 128.482 31.0716C127.95 31.6532 128.32 32.7493 128.979 33.1296C129.645 33.5099 130.439 33.3924 131.172 33.247C131.977 33.0904 132.788 32.9171 133.532 32.548C134.276 32.1789 134.963 31.5917 135.338 30.7864C135.64 31.3288 135.953 31.8769 136.417 32.2516C136.882 32.6263 137.536 32.7829 138.034 32.4641C138.531 32.1453 138.694 31.2617 138.252 30.8591C139.314 31.5246 140.478 31.9943 141.68 32.246C141.982 32.3075 142.34 32.3411 142.547 32.0894C142.754 31.8377 142.692 31.4183 142.491 31.1555C142.413 31.0548 142.323 30.9765 142.228 30.9094C143.917 31.7315 145.802 32.0447 147.63 31.7986L147.658 32.1341C146.282 32.9395 144.566 33.3197 144.566 33.3197C144.566 33.3197 144.784 33.5938 145.203 34.0244L145.198 34.03Z" fill="black"/>
</g>
<g opacity="0.1">
<path d="M115.943 45.5169C117.604 45.4162 119.215 44.8514 120.781 44.225C123.465 46.1768 127.206 46.1544 129.874 44.1747C131.938 46.1209 135.192 46.311 137.429 44.6165C138.621 45.1702 139.918 45.6008 141.187 45.3267C142.451 45.0471 143.631 43.8503 143.592 42.4243C142.826 43.347 141.702 43.8951 140.567 43.8895C139.431 43.8895 138.313 43.3414 137.547 42.4131C136.663 43.5763 135.265 44.2418 133.895 44.1467C132.525 44.0517 131.211 43.2072 130.467 41.9265C128.739 43.3806 126.479 44.0461 124.332 43.7273C123.717 43.6378 123.085 43.4533 122.621 43.0059C122.156 42.5529 121.905 41.77 122.179 41.1548C119.366 43.3302 115.334 43.347 112.504 41.1995L112.481 41.2554C112.532 41.3897 112.66 41.5574 112.912 41.77C113.891 42.6088 117.442 42.9388 117.442 42.9388C117.442 42.9388 116.033 44.1076 114.299 45.433C114.847 45.5225 115.406 45.5448 115.96 45.5113L115.943 45.5169Z" fill="black"/>
</g>
<g opacity="0.1">
<path d="M155.023 53.2401C153.765 53.5085 152.479 53.4806 152.479 53.4806C152.479 53.4806 151.651 55.7399 149.386 55.4883C149.386 55.4883 150.51 55.684 151.925 55.9748C150.214 56.6347 148.223 56.411 146.696 55.3205C143.939 58.1055 139.331 58.2621 136.428 55.6672C133.632 58.1838 129.259 58.2285 126.423 55.7735C124.88 57.1772 122.85 57.9937 120.87 57.7085C118.89 57.4232 117.023 55.9356 116.391 53.8385C119.478 56.0419 123.851 55.7064 126.642 53.0611C126.681 53.721 127.173 54.2635 127.732 54.4928C128.291 54.7221 128.907 54.7109 129.499 54.6773C131.938 54.5543 134.516 54.1684 136.406 52.4627C137.608 54.0454 139.532 54.9122 141.394 54.7165C143.251 54.5208 144.996 53.268 145.908 51.4617C149.33 53.2513 153.502 53.1618 156.863 51.2268L155.023 53.2401Z" fill="black"/>
</g>
<g opacity="0.1">
<path d="M139.789 64.3131C139.84 65.096 139.381 65.8398 138.777 66.248C138.173 66.6563 137.446 66.7793 136.741 66.8017C134.599 66.8744 132.446 66.0915 130.757 64.6262C129.477 66.2201 127.57 67.1652 125.646 67.1596C123.722 67.1596 121.815 66.2033 120.54 64.6039C115.758 65.9405 110.53 65.1967 106.212 62.5626L105.563 62.9205C105.563 63.1051 105.614 63.3288 105.731 63.6084C106.486 65.3644 112.448 67.2043 112.448 67.2043C112.448 67.2043 111.844 67.456 110.904 67.6965C111.933 68.0097 112.822 68.2669 113.387 68.4459C115.49 69.1226 117.951 68.7311 119.528 67.0534C120.982 68.7646 123.096 69.7657 125.215 69.7433C127.335 69.7209 129.432 68.6808 130.864 66.9415C132.239 68.5018 134.046 69.7154 136.014 69.7881C137.977 69.8608 140.052 68.5465 140.583 66.4494C143.016 67.333 145.919 66.2369 147.35 63.8824C145.08 65.3253 142.188 65.4931 139.795 64.3186L139.789 64.3131Z" fill="black"/>
</g>
<path d="M229.375 97.5322H237.042V71.1862H229.375V97.5322Z" fill="#6F4439"/>
<path d="M262.27 71.0967C262.27 71.0967 261.895 70.845 262.723 69.7601C263.55 68.6752 262.27 68.088 262.27 68.088C258.646 70.1795 253.59 68.088 253.59 68.088C253.59 68.088 259.552 66.248 260.307 64.492C260.872 63.1778 259.876 63.0324 259.339 63.0436C259.949 62.9821 261.263 62.764 261.666 62.0649C262.191 61.1421 260.117 60.0572 260.117 60.0572C260.117 60.0572 260.458 59.5539 260.117 58.6367C259.775 57.714 252.002 56.3774 252.002 56.3774C254.267 56.6291 255.095 54.3697 255.095 54.3697C255.095 54.3697 258.942 54.4536 259.848 52.9492C260.754 51.4449 259.244 51.0254 256.677 49.7727C254.11 48.52 248.451 43.8335 248.451 43.8335C248.451 43.8335 251.996 43.498 252.981 42.6647C253.959 41.8259 253.059 41.6637 253.059 41.6637C257.287 42.0831 255.85 39.8238 255.85 39.8238C250.19 38.0677 247.17 34.2201 247.17 34.2201C247.17 34.2201 249.81 33.6329 251.169 32.3802C252.528 31.1275 250.039 30.792 250.039 30.792C250.039 30.792 255.022 30.1209 252.153 28.281C249.972 26.8829 246.488 24.9982 245.403 24.4334C246.588 24.8696 249.284 24.3495 249.284 24.3495C252.455 22.929 249.284 20.8374 249.284 20.8374C245.587 18.7459 240.152 13.4778 240.152 13.4778C240.152 13.4778 242.87 14.8983 244.228 14.4788C245.587 14.0594 242.719 12.3873 242.719 12.3873C242.719 12.3873 244.15 12.8067 244.754 12.3873C245.358 11.9678 243.172 10.044 243.172 10.044C239.917 7.93008 235.907 2.38238 234.229 0C232.551 2.38238 228.542 7.93008 225.287 10.044C225.287 10.044 223.1 11.9678 223.704 12.3873C224.308 12.8067 225.74 12.3873 225.74 12.3873C225.74 12.3873 222.871 14.0594 224.23 14.4788C225.589 14.8983 228.307 13.4778 228.307 13.4778C228.307 13.4778 222.871 18.7459 219.174 20.8374C219.174 20.8374 216.003 22.929 219.174 24.3495C219.174 24.3495 221.87 24.8696 223.056 24.4334C221.971 24.9982 218.486 26.8829 216.305 28.281C213.436 30.1209 218.419 30.792 218.419 30.792C218.419 30.792 215.931 31.1275 217.29 32.3802C218.649 33.6329 221.288 34.2201 221.288 34.2201C221.288 34.2201 218.268 38.0677 212.609 39.8238C212.609 39.8238 211.177 42.0831 215.399 41.6637C215.399 41.6637 214.493 41.8315 215.472 42.6647C216.451 43.5036 220.002 43.8335 220.002 43.8335C220.002 43.8335 214.342 48.52 211.776 49.7727C209.209 51.0254 207.699 51.4449 208.605 52.9492C209.511 54.4536 213.358 54.3697 213.358 54.3697C213.358 54.3697 214.186 56.6291 216.451 56.3774C216.451 56.3774 208.677 57.714 208.336 58.6367C207.995 59.5595 208.336 60.0572 208.336 60.0572C208.336 60.0572 206.261 61.1421 206.787 62.0649C207.19 62.764 208.504 62.9821 209.114 63.0436C208.577 63.0324 207.581 63.1778 208.146 64.492C208.901 66.248 214.863 68.088 214.863 68.088C214.863 68.088 209.807 70.1795 206.183 68.088C206.183 68.088 204.902 68.6752 205.73 69.7601C206.558 70.845 206.183 71.0967 206.183 71.0967C206.183 71.0967 204.298 69.6762 205.126 71.8517C205.954 74.0271 210.333 75.3637 210.333 75.3637C210.333 75.3637 207.844 75.7832 208.599 77.1198C209.354 78.4563 212.525 80.0446 215.992 80.3801C219.465 80.7157 224.14 79.4574 224.14 79.4574C224.14 79.4574 220.97 81.1295 223.162 82.0523C225.348 82.975 227.843 80.8835 227.843 80.8835C227.843 80.8835 227.39 83.0254 229.202 82.2872C231.014 81.549 232.524 80.1285 232.524 80.1285C232.524 80.1285 233.088 83.2826 234.218 82.5276C235.348 83.2826 235.913 80.1285 235.913 80.1285C235.913 80.1285 237.422 81.549 239.234 82.2872C241.046 83.0254 240.593 80.8835 240.593 80.8835C240.593 80.8835 243.082 82.975 245.274 82.0523C247.466 81.1295 244.296 79.4574 244.296 79.4574C244.296 79.4574 248.976 80.7101 252.444 80.3801C255.917 80.0446 259.082 78.4563 259.837 77.1198C260.592 75.7832 258.103 75.3637 258.103 75.3637C258.103 75.3637 262.482 74.0271 263.31 71.8517C264.138 69.6762 262.253 71.0967 262.253 71.0967H262.27Z" fill="#455A64"/>
<path d="M245.27 21.0839C245.23 21.067 245.191 21.0445 245.151 21.0276C245.196 21.0389 245.236 21.0614 245.27 21.0839Z" fill="black"/>
<g opacity="0.1">
<path d="M239.58 12.5047L237.785 11.8C237.785 11.8 236.795 13.2764 234.911 12.3033C233.032 11.3303 232.031 9.41205 232.031 9.41205C232.031 9.41205 229.391 11.1625 229.117 10.0496C228.843 8.94229 229.945 8.50049 229.945 8.50049C229.855 8.69622 229.771 8.9367 229.878 9.11566C229.995 9.31698 230.258 9.3058 230.465 9.25547C231.153 9.08769 231.796 8.66826 232.26 8.08105C232.786 9.33935 233.865 10.2062 234.972 10.8493C235.459 11.1289 236.013 11.3862 236.538 11.2184C237.064 11.045 237.411 10.2341 237.019 9.80912C237.847 10.8996 239.083 11.5987 240.369 11.6994C240.643 11.7217 241.001 11.649 241.051 11.347C241.085 11.1737 240.984 11.0003 240.889 10.8605C240.498 10.2901 240.022 9.79793 239.48 9.41205C240.693 10.3013 242.114 10.8437 243.568 10.9668L244.843 11.1401C244.888 11.2911 244.871 11.4197 244.759 11.4924C244.155 11.9119 242.723 11.4924 242.723 11.4924C242.723 11.4924 245.592 13.1646 244.233 13.584C242.874 14.0034 240.157 12.583 240.157 12.583C240.157 12.583 240.28 12.7004 240.492 12.9017L239.575 12.5047H239.58Z" fill="black"/>
</g>
<g opacity="0.1">
<path d="M223.531 23.751L227.015 22.4871C227.015 22.4871 227.406 24.6179 229.543 24.5004C229.543 24.5004 231.394 24.657 231.533 22.4871C231.533 22.4871 233.312 24.2208 236.908 23.7119C236.908 23.7119 237.512 23.6336 237.372 22.6493C237.372 22.6493 238.334 23.8741 239.967 23.0017C241.605 22.1348 240.185 20.6752 240.185 20.6752L239.967 20.5578C240.118 20.8486 240.263 21.2009 240.14 21.5029C239.956 21.9335 239.396 21.9055 238.983 21.7713C237.836 21.4078 236.757 20.8038 235.817 19.9929C236.069 20.2949 236.332 20.6081 236.472 20.994C236.611 21.3798 236.606 21.8552 236.36 22.1684C236.119 22.476 235.722 22.5487 235.359 22.571C233.552 22.6717 231.724 21.8384 230.504 20.3564C230.488 20.9157 230.622 21.4749 230.6 22.0342C230.577 22.5934 230.342 23.2142 229.856 23.3819C229.285 23.5833 228.698 23.0408 228.446 22.4368C228.195 21.8328 228.139 21.145 227.865 20.5466C227.015 21.391 225.986 22.023 224.884 22.3753C224.576 22.476 224.246 22.5543 223.928 22.4983C223.609 22.4424 223.296 22.2299 223.184 21.8943C223.089 21.6035 223.195 21.2344 223.424 21.0834C222.026 21.721 218.794 22.8507 218.156 21.268C217.821 21.9503 217.893 22.778 219.398 23.4546C219.398 23.4546 222.093 23.9747 223.279 23.5385C223.078 23.6448 222.787 23.7958 222.435 23.9859L223.525 23.7454L223.531 23.751Z" fill="black"/>
</g>
<g opacity="0.1">
<path d="M247.813 34.03C246.912 33.8902 246.04 33.5602 245.263 33.0513C245.028 33.7448 244.256 34.0523 243.596 33.9293C242.936 33.8063 242.371 33.3589 241.829 32.9283C241.348 33.6273 240.582 34.0691 239.788 34.1083C238.994 34.1418 238.199 33.7727 237.668 33.1184C235.465 34.7458 232.847 35.9482 230.219 35.5959C229.732 35.5287 229.218 35.3889 228.905 34.9695C228.592 34.5501 228.636 33.7895 229.095 33.5882C227.49 33.9349 225.823 34.2816 224.235 33.8342C222.647 33.3924 221.372 32.067 221.713 30.0034C221.786 30.3278 221.925 30.8311 222.127 31.1555C222.328 31.4798 222.686 31.6364 223.027 31.7483C225.667 32.6431 228.608 32.397 231.097 31.0716C230.566 31.6532 230.935 32.7493 231.595 33.1296C232.26 33.5099 233.054 33.3924 233.787 33.247C234.592 33.0904 235.403 32.9171 236.147 32.548C236.891 32.1789 237.579 31.5917 237.953 30.7864C238.255 31.3288 238.568 31.8769 239.033 32.2516C239.497 32.6263 240.151 32.7829 240.649 32.4641C241.147 32.1453 241.309 31.2617 240.867 30.8591C241.93 31.5246 243.093 31.9943 244.295 32.246C244.597 32.3075 244.955 32.3411 245.162 32.0894C245.369 31.8377 245.307 31.4183 245.106 31.1555C245.028 31.0548 244.938 30.9765 244.843 30.9094C246.532 31.7315 248.417 32.0447 250.246 31.7986L250.273 32.1341C248.898 32.9395 247.181 33.3197 247.181 33.3197C247.181 33.3197 247.399 33.5938 247.818 34.0244L247.813 34.03Z" fill="black"/>
</g>
<g opacity="0.1">
<path d="M218.558 45.5169C220.219 45.4162 221.83 44.8514 223.396 44.225C226.08 46.1768 229.822 46.1544 232.489 44.1747C234.553 46.1209 237.808 46.311 240.045 44.6165C241.236 45.1702 242.533 45.6008 243.803 45.3267C245.067 45.0471 246.247 43.8503 246.207 42.4243C245.441 43.347 244.317 43.8951 243.182 43.8895C242.047 43.8895 240.928 43.3414 240.162 42.4131C239.278 43.5763 237.88 44.2418 236.51 44.1467C235.14 44.0517 233.826 43.2072 233.082 41.9265C231.354 43.3806 229.095 44.0461 226.947 43.7273C226.332 43.6378 225.7 43.4533 225.236 43.0059C224.772 42.5529 224.52 41.77 224.794 41.1548C221.981 43.3302 217.949 43.347 215.119 41.1995L215.097 41.2554C215.147 41.3897 215.276 41.5574 215.527 41.77C216.506 42.6088 220.057 42.9388 220.057 42.9388C220.057 42.9388 218.648 44.1076 216.914 45.433C217.462 45.5225 218.022 45.5448 218.575 45.5113L218.558 45.5169Z" fill="black"/>
</g>
<g opacity="0.1">
<path d="M257.644 53.2401C256.386 53.5085 255.1 53.4806 255.1 53.4806C255.1 53.4806 254.272 55.7399 252.007 55.4883C252.007 55.4883 253.131 55.684 254.546 55.9748C252.835 56.6347 250.844 56.411 249.317 55.3205C246.56 58.1055 241.952 58.2621 239.049 55.6672C236.253 58.1838 231.88 58.2285 229.045 55.7735C227.501 57.1772 225.471 57.9937 223.491 57.7085C221.512 57.4232 219.644 55.9356 219.012 53.8385C222.099 56.0419 226.472 55.7064 229.263 53.0611C229.302 53.721 229.794 54.2635 230.353 54.4928C230.912 54.7221 231.528 54.7109 232.12 54.6773C234.559 54.5543 237.137 54.1684 239.027 52.4627C240.229 54.0454 242.153 54.9122 244.016 54.7165C245.872 54.5208 247.617 53.268 248.529 51.4617C251.951 53.2513 256.123 53.1618 259.484 51.2268L257.644 53.2401Z" fill="black"/>
</g>
<g opacity="0.1">
<path d="M242.404 64.3131C242.455 65.096 241.996 65.8398 241.392 66.248C240.788 66.6563 240.061 66.7793 239.357 66.8017C237.215 66.8744 235.062 66.0915 233.373 64.6262C232.092 66.2201 230.185 67.1652 228.261 67.1596C226.337 67.1596 224.43 66.2033 223.155 64.6039C218.374 65.9405 213.145 65.1967 208.827 62.5626L208.179 62.9205C208.179 63.1051 208.229 63.3288 208.346 63.6084C209.101 65.3644 215.063 67.2043 215.063 67.2043C215.063 67.2043 214.459 67.456 213.519 67.6965C214.548 68.0097 215.438 68.2669 216.003 68.4459C218.105 69.1226 220.566 68.7311 222.143 67.0534C223.597 68.7646 225.711 69.7657 227.831 69.7433C229.95 69.7209 232.047 68.6808 233.479 66.9415C234.855 68.5018 236.661 69.7154 238.63 69.7881C240.592 69.8608 242.667 68.5465 243.199 66.4494C245.631 67.333 248.534 66.2369 249.965 63.8824C247.695 65.3253 244.804 65.4931 242.41 64.3186L242.404 64.3131Z" fill="black"/>
</g>
<path d="M187.185 97.5266H193.733V75.0114H187.185V97.5266Z" fill="#6F4439"/>
<path d="M215.298 74.9444C215.298 74.9444 214.974 74.7319 215.684 73.8035C216.394 72.8752 215.298 72.3718 215.298 72.3718C212.206 74.1558 207.883 72.3718 207.883 72.3718C207.883 72.3718 212.977 70.8004 213.62 69.296C214.101 68.1775 213.251 68.0489 212.793 68.0601C213.313 68.0042 214.437 67.8196 214.784 67.2212C215.237 66.4327 213.464 65.5043 213.464 65.5043C213.464 65.5043 213.755 65.0737 213.464 64.2908C213.173 63.5022 206.529 62.3614 206.529 62.3614C208.464 62.5739 209.174 60.6445 209.174 60.6445C209.174 60.6445 212.463 60.7172 213.235 59.4309C214.006 58.1447 212.72 57.7868 210.528 56.713C208.336 55.6393 203.498 51.6407 203.498 51.6407C203.498 51.6407 206.529 51.3555 207.368 50.6396C208.207 49.9238 207.435 49.784 207.435 49.784C211.048 50.1419 209.823 48.2125 209.823 48.2125C204.986 46.7137 202.408 43.4254 202.408 43.4254C202.408 43.4254 204.667 42.9276 205.825 41.8539C206.988 40.7801 204.857 40.4949 204.857 40.4949C204.857 40.4949 209.113 39.9245 206.663 38.353C204.801 37.1562 201.82 35.5512 200.898 35.0647C201.915 35.4394 204.214 34.992 204.214 34.992C206.921 33.7784 204.214 31.9888 204.214 31.9888C201.054 30.2048 196.413 25.6973 196.413 25.6973C196.413 25.6973 198.733 26.9109 199.897 26.553C201.06 26.1951 198.605 24.769 198.605 24.769C198.605 24.769 199.829 25.1269 200.344 24.769C200.858 24.4111 198.991 22.7669 198.991 22.7669C196.211 20.9605 192.783 16.2181 191.351 14.1825C189.92 16.2181 186.492 20.9605 183.712 22.7669C183.712 22.7669 181.844 24.4111 182.359 24.769C182.873 25.1269 184.098 24.769 184.098 24.769C184.098 24.769 181.648 26.2007 182.806 26.553C183.969 26.9109 186.29 25.6973 186.29 25.6973C186.29 25.6973 181.648 30.1992 178.489 31.9888C178.489 31.9888 175.782 33.7728 178.489 34.992C178.489 34.992 180.793 35.4394 181.805 35.0647C180.877 35.5456 177.902 37.1562 176.039 38.353C173.59 39.9245 177.846 40.4949 177.846 40.4949C177.846 40.4949 175.72 40.7801 176.878 41.8539C178.041 42.9276 180.295 43.4254 180.295 43.4254C180.295 43.4254 177.717 46.7137 172.88 48.2125C172.88 48.2125 171.655 50.1419 175.267 49.784C175.267 49.784 174.496 49.9294 175.335 50.6396C176.173 51.3555 179.205 51.6407 179.205 51.6407C179.205 51.6407 174.367 55.6449 172.175 56.713C169.983 57.7868 168.691 58.1447 169.468 59.4309C170.24 60.7172 173.528 60.6445 173.528 60.6445C173.528 60.6445 174.238 62.5739 176.173 62.3614C176.173 62.3614 169.53 63.5022 169.239 64.2908C168.948 65.0793 169.239 65.5043 169.239 65.5043C169.239 65.5043 167.466 66.4327 167.919 67.2212C168.26 67.8196 169.39 68.0042 169.91 68.0601C169.451 68.0489 168.601 68.1775 169.082 69.296C169.725 70.7948 174.82 72.3718 174.82 72.3718C174.82 72.3718 170.497 74.1558 167.405 72.3718C167.405 72.3718 166.308 72.8696 167.019 73.8035C167.729 74.7319 167.405 74.9444 167.405 74.9444C167.405 74.9444 165.794 73.7308 166.504 75.5875C167.214 77.4442 170.956 78.5906 170.956 78.5906C170.956 78.5906 168.831 78.9486 169.474 80.0894C170.117 81.2303 172.829 82.5892 175.793 82.8745C178.757 83.1597 182.756 82.0859 182.756 82.0859C182.756 82.0859 180.049 83.5176 181.917 84.3005C183.785 85.0835 185.915 83.2995 185.915 83.2995C185.915 83.2995 185.53 85.1282 187.079 84.5018C188.628 83.8755 189.914 82.6563 189.914 82.6563C189.914 82.6563 190.395 85.3519 191.363 84.7088C192.33 85.3519 192.811 82.6563 192.811 82.6563C192.811 82.6563 194.103 83.8699 195.646 84.5018C197.195 85.1282 196.81 83.2995 196.81 83.2995C196.81 83.2995 198.935 85.0835 200.808 84.3005C202.676 83.512 199.969 82.0859 199.969 82.0859C199.969 82.0859 203.968 83.1597 206.932 82.8745C209.896 82.5892 212.608 81.2303 213.251 80.0894C213.894 78.9486 211.769 78.5906 211.769 78.5906C211.769 78.5906 215.511 77.4498 216.221 75.5875C216.931 73.7308 215.321 74.9444 215.321 74.9444H215.298Z" fill="#455A64"/>
<g opacity="0.1">
<path d="M195.91 24.8751L194.372 24.2712C194.372 24.2712 193.522 25.535 191.916 24.7018C190.311 23.8685 189.456 22.2299 189.456 22.2299C189.456 22.2299 187.202 23.7231 186.967 22.778C186.732 21.8273 187.677 21.4582 187.677 21.4582C187.605 21.6259 187.526 21.8273 187.622 21.9838C187.722 22.1516 187.946 22.146 188.119 22.1069C188.706 21.9615 189.255 21.6036 189.657 21.1058C190.11 22.1796 191.027 22.9178 191.978 23.4714C192.392 23.7119 192.867 23.93 193.315 23.7846C193.762 23.6392 194.064 22.9457 193.728 22.5822C194.439 23.5162 195.496 24.109 196.592 24.1985C196.827 24.2152 197.129 24.1537 197.173 23.8965C197.201 23.7455 197.117 23.6001 197.034 23.477C196.698 22.9905 196.29 22.5711 195.826 22.2355C196.86 22.9961 198.079 23.4603 199.321 23.5609L200.411 23.7063C200.451 23.8349 200.434 23.9468 200.339 24.0083C199.824 24.3662 198.599 24.0083 198.599 24.0083C198.599 24.0083 201.049 25.44 199.891 25.7923C198.728 26.1502 196.407 24.9367 196.407 24.9367C196.407 24.9367 196.508 25.0373 196.692 25.2107L195.91 24.8695V24.8751Z" fill="black"/>
</g>
<g opacity="0.1">
<path d="M182.196 34.483L185.177 33.4036C185.177 33.4036 185.512 35.2212 187.335 35.1205C187.335 35.1205 188.918 35.2547 189.035 33.4036C189.035 33.4036 190.557 34.8856 193.627 34.4494C193.627 34.4494 194.141 34.3823 194.024 33.5379C194.024 33.5379 194.846 34.5837 196.244 33.8399C197.642 33.0961 196.429 31.8545 196.429 31.8545L196.239 31.7539C196.367 31.9999 196.496 32.3019 196.384 32.5592C196.227 32.9283 195.752 32.9003 195.394 32.7885C194.415 32.4809 193.493 31.9608 192.687 31.2673C192.905 31.5246 193.129 31.793 193.247 32.123C193.364 32.4529 193.358 32.8612 193.152 33.124C192.945 33.3869 192.609 33.4484 192.296 33.4652C190.752 33.549 189.192 32.8388 188.146 31.5749C188.13 32.0559 188.247 32.5312 188.23 33.0066C188.213 33.4875 188.006 34.0132 187.598 34.1586C187.106 34.332 186.608 33.8678 186.39 33.3533C186.172 32.8388 186.127 32.246 185.893 31.7371C185.166 32.4585 184.288 33.001 183.348 33.303C183.085 33.3869 182.805 33.454 182.531 33.4092C182.257 33.3645 181.989 33.1799 181.894 32.8891C181.81 32.6431 181.9 32.3243 182.101 32.1957C180.904 32.7381 178.141 33.7056 177.599 32.3579C177.308 32.9395 177.37 33.6497 178.662 34.2257C178.662 34.2257 180.966 34.6731 181.978 34.2984C181.804 34.3879 181.558 34.5221 181.256 34.6787L182.19 34.4774L182.196 34.483Z" fill="black"/>
</g>
<g opacity="0.1">
<path d="M202.945 43.2687C202.179 43.1512 201.429 42.866 200.764 42.4298C200.563 43.0226 199.903 43.2854 199.338 43.1792C198.773 43.0729 198.292 42.6926 197.828 42.3235C197.42 42.9219 196.76 43.3022 196.083 43.3302C195.406 43.3581 194.724 43.0394 194.271 42.4801C192.386 43.8726 190.155 44.896 187.907 44.5941C187.493 44.5381 187.051 44.4151 186.783 44.0572C186.514 43.6993 186.553 43.0505 186.945 42.8772C185.575 43.1736 184.149 43.47 182.79 43.0897C181.436 42.7094 180.34 41.5797 180.637 39.8181C180.698 40.0921 180.821 40.5228 180.989 40.8024C181.157 41.082 181.464 41.2106 181.755 41.3113C184.009 42.0719 186.52 41.8649 188.651 40.7353C188.198 41.233 188.511 42.1669 189.076 42.4913C189.641 42.8157 190.323 42.715 190.949 42.592C191.637 42.4577 192.33 42.3068 192.968 41.9936C193.606 41.6748 194.193 41.1771 194.512 40.4892C194.769 40.9478 195.037 41.4231 195.434 41.7419C195.831 42.0607 196.391 42.1949 196.816 41.9209C197.241 41.6468 197.38 40.8919 197.006 40.5451C197.917 41.1156 198.907 41.5126 199.936 41.7307C200.193 41.7867 200.501 41.809 200.674 41.5965C200.853 41.384 200.797 41.0205 200.63 40.8024C200.563 40.7185 200.49 40.6514 200.406 40.5899C201.849 41.2889 203.459 41.5574 205.02 41.3504L205.042 41.6357C203.868 42.3235 202.397 42.6479 202.397 42.6479C202.397 42.6479 202.581 42.8828 202.939 43.2519L202.945 43.2687Z" fill="black"/>
</g>
<g opacity="0.1">
<path d="M177.946 53.0834C179.367 52.9995 180.742 52.513 182.079 51.9761C184.377 53.6426 187.571 53.6259 189.852 51.9313C191.62 53.5923 194.399 53.7545 196.312 52.3116C197.33 52.7814 198.442 53.1561 199.522 52.9156C200.601 52.6807 201.608 51.6573 201.574 50.4326C200.92 51.2211 199.958 51.6853 198.991 51.6853C198.023 51.6853 197.061 51.2155 196.407 50.4214C195.652 51.4168 194.461 51.9873 193.286 51.9034C192.117 51.8251 190.993 51.0981 190.356 50.0075C188.879 51.2491 186.95 51.8195 185.11 51.5455C184.584 51.4672 184.048 51.3162 183.645 50.9247C183.248 50.5388 183.03 49.8677 183.265 49.342C180.86 51.1987 177.415 51.2155 174.999 49.3812L174.977 49.4259C175.021 49.5434 175.128 49.6832 175.34 49.8677C176.179 50.5836 179.21 50.8688 179.21 50.8688C179.21 50.8688 178.002 51.8698 176.52 52.9995C176.99 53.0722 177.465 53.0946 177.935 53.0666L177.946 53.0834Z" fill="black"/>
</g>
<g opacity="0.1">
<path d="M211.344 59.6882C210.27 59.9175 209.168 59.8951 209.168 59.8951C209.168 59.8951 208.458 61.8245 206.523 61.612C206.523 61.612 207.485 61.7798 208.693 62.0258C207.233 62.5851 205.528 62.4005 204.225 61.4666C201.87 63.849 197.928 63.9832 195.45 61.763C193.062 63.9161 189.326 63.9552 186.899 61.8525C185.58 63.0492 183.846 63.7483 182.151 63.5078C180.457 63.2674 178.863 61.9923 178.326 60.1971C180.96 62.0762 184.702 61.7965 187.084 59.5372C187.117 60.102 187.543 60.5606 188.018 60.7619C188.493 60.9577 189.019 60.9465 189.528 60.9185C191.608 60.8123 193.812 60.4879 195.428 59.0283C196.457 60.3761 198.101 61.1198 199.689 60.9521C201.278 60.7843 202.765 59.7106 203.548 58.1726C206.473 59.705 210.041 59.6267 212.91 57.9713L211.338 59.6938L211.344 59.6882Z" fill="black"/>
</g>
<g opacity="0.1">
<path d="M198.319 69.1449C198.364 69.8104 197.973 70.4479 197.458 70.7946C196.944 71.1414 196.323 71.2476 195.719 71.27C193.89 71.3315 192.045 70.6604 190.607 69.4077C189.511 70.7667 187.884 71.5776 186.24 71.572C184.595 71.572 182.968 70.7499 181.878 69.3853C177.795 70.5318 173.327 69.8943 169.636 67.6405L169.082 67.9481C169.082 68.1047 169.121 68.2948 169.227 68.5353C169.871 70.0341 174.965 71.6111 174.965 71.6111C174.965 71.6111 174.451 71.8237 173.645 72.0306C174.523 72.299 175.284 72.5171 175.771 72.6681C177.566 73.2441 179.669 72.9142 181.022 71.4769C182.263 72.9421 184.07 73.7922 185.882 73.7754C187.694 73.7586 189.489 72.8694 190.708 71.3818C191.882 72.7128 193.426 73.753 195.109 73.8146C196.787 73.8761 198.56 72.752 199.013 70.9624C201.088 71.7174 203.571 70.7779 204.795 68.7702C202.855 70.0061 200.383 70.1459 198.336 69.1449H198.319Z" fill="black"/>
</g>
<path d="M59.946 97.5266H65.9971V76.7227H59.946V97.5266Z" fill="#6F4439"/>
<path d="M85.9169 76.6556C85.9169 76.6556 85.6205 76.4599 86.2748 75.5986C86.9291 74.7374 85.9169 74.2788 85.9169 74.2788C83.0592 75.9286 79.0662 74.2788 79.0662 74.2788C79.0662 74.2788 83.775 72.8248 84.3678 71.4379C84.8152 70.4033 84.0266 70.2858 83.6016 70.297C84.0826 70.2467 85.1228 70.0789 85.4415 69.5253C85.861 68.7982 84.2224 67.9426 84.2224 67.9426C84.2224 67.9426 84.4908 67.5455 84.2224 66.8185C83.9539 66.0915 77.819 65.0345 77.819 65.0345C79.6086 65.2303 80.2629 63.4519 80.2629 63.4519C80.2629 63.4519 83.2996 63.519 84.0155 62.3278C84.7313 61.1366 83.5401 60.8066 81.5156 59.8168C79.4912 58.8269 75.0228 55.1303 75.0228 55.1303C75.0228 55.1303 77.8246 54.8675 78.5964 54.2076C79.3737 53.5476 78.6579 53.4134 78.6579 53.4134C81.9966 53.7434 80.8613 51.9594 80.8613 51.9594C76.393 50.5725 74.0106 47.5358 74.0106 47.5358C74.0106 47.5358 76.0966 47.0716 77.1703 46.0817C78.2441 45.0919 76.2755 44.829 76.2755 44.829C76.2755 44.829 80.207 44.3033 77.9421 42.8493C76.2196 41.7476 73.4681 40.26 72.6125 39.8126C73.552 40.1593 75.6771 39.7455 75.6771 39.7455C78.1825 38.6214 75.6771 36.9717 75.6771 36.9717C72.7579 35.3219 68.4685 31.1611 68.4685 31.1611C68.4685 31.1611 70.616 32.2852 71.6841 31.9552C72.7579 31.6253 70.4929 30.3055 70.4929 30.3055C70.4929 30.3055 71.6226 30.6354 72.1036 30.3055C72.5845 29.9755 70.8509 28.4544 70.8509 28.4544C68.2839 26.7878 65.1186 22.4034 63.7932 20.5243C62.4678 22.4034 59.3025 26.7878 56.7355 28.4544C56.7355 28.4544 55.0075 29.9755 55.4828 30.3055C55.9582 30.6354 57.0935 30.3055 57.0935 30.3055C57.0935 30.3055 54.8285 31.6253 55.9023 31.9552C56.976 32.2852 59.1179 31.1611 59.1179 31.1611C59.1179 31.1611 54.8285 35.3219 51.9093 36.9717C51.9093 36.9717 49.4038 38.6214 51.9093 39.7455C51.9093 39.7455 54.0344 40.1593 54.9739 39.8126C54.1183 40.26 51.3668 41.742 49.6443 42.8493C47.3794 44.3033 51.3109 44.829 51.3109 44.829C51.3109 44.829 49.3423 45.0919 50.4161 46.0817C51.4898 47.0716 53.5758 47.5358 53.5758 47.5358C53.5758 47.5358 51.1934 50.5725 46.7251 51.9594C46.7251 51.9594 45.5954 53.7434 48.9285 53.4134C48.9285 53.4134 48.2127 53.5476 48.99 54.2076C49.7618 54.8675 52.5636 55.1303 52.5636 55.1303C52.5636 55.1303 48.0952 58.8269 46.0708 59.8168C44.0463 60.8066 42.8551 61.1366 43.5709 62.3278C44.2868 63.519 47.3235 63.4519 47.3235 63.4519C47.3235 63.4519 47.9778 65.2359 49.7674 65.0345C49.7674 65.0345 43.6324 66.0915 43.364 66.8185C43.0956 67.5455 43.364 67.9426 43.364 67.9426C43.364 67.9426 41.7254 68.7982 42.1449 69.5253C42.4636 70.0789 43.5038 70.2467 43.9848 70.297C43.5597 70.2914 42.7768 70.4033 43.2186 71.4379C43.817 72.8248 48.5202 74.2788 48.5202 74.2788C48.5202 74.2788 44.5272 75.9286 41.6695 74.2788C41.6695 74.2788 40.6573 74.743 41.3116 75.5986C41.9659 76.4599 41.6695 76.6556 41.6695 76.6556C41.6695 76.6556 40.1819 75.5315 40.8362 77.2484C41.4905 78.9653 44.9467 80.0223 44.9467 80.0223C44.9467 80.0223 42.9781 80.3522 43.5765 81.4092C44.1749 82.4662 46.6747 83.7189 49.415 83.9873C52.1553 84.2501 55.8519 83.2603 55.8519 83.2603C55.8519 83.2603 53.3521 84.5801 55.0746 85.3071C56.8026 86.0341 58.7712 84.3844 58.7712 84.3844C58.7712 84.3844 58.4133 86.0733 59.8449 85.4917C61.2766 84.9101 62.4678 83.786 62.4678 83.786C62.4678 83.786 62.9152 86.2746 63.8044 85.6818C64.6992 86.2802 65.1466 83.786 65.1466 83.786C65.1466 83.786 66.3378 84.9101 67.7694 85.4917C69.2011 86.0733 68.8432 84.3844 68.8432 84.3844C68.8432 84.3844 70.8117 86.0341 72.5398 85.3071C74.2678 84.5801 71.7624 83.2603 71.7624 83.2603C71.7624 83.2603 75.459 84.2501 78.1993 83.9873C80.9396 83.7245 83.445 82.4662 84.0378 81.4092C84.6362 80.3522 82.6677 80.0223 82.6677 80.0223C82.6677 80.0223 86.1238 78.9653 86.7781 77.2484C87.4324 75.5315 85.9449 76.6556 85.9449 76.6556H85.9169Z" fill="#455A64"/>
<path d="M72.4903 37.1678C72.4565 37.1509 72.4283 37.1396 72.3945 37.1227C72.4283 37.134 72.4621 37.1452 72.4903 37.1678Z" fill="black"/>
<g opacity="0.2">
<path d="M85.9169 76.6556C85.9169 76.6556 85.6205 76.4599 86.2748 75.5986C86.9291 74.7374 85.9169 74.2788 85.9169 74.2788C83.0592 75.9286 79.0662 74.2788 79.0662 74.2788C79.0662 74.2788 83.775 72.8248 84.3678 71.4379C84.8152 70.4033 84.0266 70.2858 83.6016 70.297C84.0826 70.2467 85.1228 70.0789 85.4415 69.5253C85.861 68.7982 84.2224 67.9426 84.2224 67.9426C84.2224 67.9426 84.4908 67.5455 84.2224 66.8185C83.9539 66.0915 77.819 65.0345 77.819 65.0345C79.6086 65.2303 80.2629 63.4519 80.2629 63.4519C80.2629 63.4519 83.2996 63.519 84.0155 62.3278C84.7313 61.1366 83.5401 60.8066 81.5156 59.8168C79.4912 58.8269 75.0228 55.1303 75.0228 55.1303C75.0228 55.1303 77.8246 54.8675 78.5964 54.2076C79.3737 53.5476 78.6579 53.4134 78.6579 53.4134C81.9966 53.7434 80.8613 51.9594 80.8613 51.9594C76.393 50.5725 74.0106 47.5358 74.0106 47.5358C74.0106 47.5358 76.0966 47.0716 77.1703 46.0817C78.2441 45.0919 76.2755 44.829 76.2755 44.829C76.2755 44.829 80.207 44.3033 77.9421 42.8493C76.2196 41.7476 73.4681 40.26 72.6125 39.8126C73.552 40.1593 75.6771 39.7455 75.6771 39.7455C78.1825 38.6214 75.6771 36.9717 75.6771 36.9717C72.7579 35.3219 68.4685 31.1611 68.4685 31.1611C68.4685 31.1611 70.616 32.2852 71.6841 31.9552C72.7579 31.6253 70.4929 30.3055 70.4929 30.3055C70.4929 30.3055 71.6226 30.6354 72.1036 30.3055C72.5845 29.9755 70.8509 28.4544 70.8509 28.4544C68.2839 26.7878 65.1186 22.4034 63.7932 20.5243C62.4678 22.4034 59.3025 26.7878 56.7355 28.4544C56.7355 28.4544 55.0075 29.9755 55.4828 30.3055C55.9582 30.6354 57.0935 30.3055 57.0935 30.3055C57.0935 30.3055 54.8285 31.6253 55.9023 31.9552C56.976 32.2852 59.1179 31.1611 59.1179 31.1611C59.1179 31.1611 54.8285 35.3219 51.9093 36.9717C51.9093 36.9717 49.4038 38.6214 51.9093 39.7455C51.9093 39.7455 54.0344 40.1593 54.9739 39.8126C54.1183 40.26 51.3668 41.742 49.6443 42.8493C47.3794 44.3033 51.3109 44.829 51.3109 44.829C51.3109 44.829 49.3423 45.0919 50.4161 46.0817C51.4898 47.0716 53.5758 47.5358 53.5758 47.5358C53.5758 47.5358 51.1934 50.5725 46.7251 51.9594C46.7251 51.9594 45.5954 53.7434 48.9285 53.4134C48.9285 53.4134 48.2127 53.5476 48.99 54.2076C49.7618 54.8675 52.5636 55.1303 52.5636 55.1303C52.5636 55.1303 48.0952 58.8269 46.0708 59.8168C44.0463 60.8066 42.8551 61.1366 43.5709 62.3278C44.2868 63.519 47.3235 63.4519 47.3235 63.4519C47.3235 63.4519 47.9778 65.2359 49.7674 65.0345C49.7674 65.0345 43.6324 66.0915 43.364 66.8185C43.0956 67.5455 43.364 67.9426 43.364 67.9426C43.364 67.9426 41.7254 68.7982 42.1449 69.5253C42.4636 70.0789 43.5038 70.2467 43.9848 70.297C43.5597 70.2914 42.7768 70.4033 43.2186 71.4379C43.817 72.8248 48.5202 74.2788 48.5202 74.2788C48.5202 74.2788 44.5272 75.9286 41.6695 74.2788C41.6695 74.2788 40.6573 74.743 41.3116 75.5986C41.9659 76.4599 41.6695 76.6556 41.6695 76.6556C41.6695 76.6556 40.1819 75.5315 40.8362 77.2484C41.4905 78.9653 44.9467 80.0223 44.9467 80.0223C44.9467 80.0223 42.9781 80.3522 43.5765 81.4092C44.1749 82.4662 46.6747 83.7189 49.415 83.9873C52.1553 84.2501 55.8519 83.2603 55.8519 83.2603C55.8519 83.2603 53.3521 84.5801 55.0746 85.3071C56.8026 86.0341 58.7712 84.3844 58.7712 84.3844C58.7712 84.3844 58.4133 86.0733 59.8449 85.4917C61.2766 84.9101 62.4678 83.786 62.4678 83.786C62.4678 83.786 62.9152 86.2746 63.8044 85.6818C64.6992 86.2802 65.1466 83.786 65.1466 83.786C65.1466 83.786 66.3378 84.9101 67.7694 85.4917C69.2011 86.0733 68.8432 84.3844 68.8432 84.3844C68.8432 84.3844 70.8117 86.0341 72.5398 85.3071C74.2678 84.5801 71.7624 83.2603 71.7624 83.2603C71.7624 83.2603 75.459 84.2501 78.1993 83.9873C80.9396 83.7245 83.445 82.4662 84.0378 81.4092C84.6362 80.3522 82.6677 80.0223 82.6677 80.0223C82.6677 80.0223 86.1238 78.9653 86.7781 77.2484C87.4324 75.5315 85.9449 76.6556 85.9449 76.6556H85.9169Z" fill="black"/>
</g>
<path d="M104.792 97.5266H110.479V77.9698H104.792V97.5266Z" fill="#6F4439"/>
<path d="M129.208 77.9082C129.208 77.9082 128.929 77.7237 129.544 76.9128C130.159 76.1074 129.208 75.6712 129.208 75.6712C126.518 77.2259 122.766 75.6712 122.766 75.6712C122.766 75.6712 127.189 74.3067 127.749 73.0036C128.168 72.0305 127.43 71.9243 127.027 71.9299C127.48 71.8851 128.459 71.723 128.755 71.2029C129.147 70.5206 127.609 69.7153 127.609 69.7153C127.609 69.7153 127.86 69.3406 127.609 68.6583C127.357 67.976 121.586 66.9806 121.586 66.9806C123.263 67.1651 123.884 65.493 123.884 65.493C123.884 65.493 126.742 65.5545 127.413 64.436C128.084 63.3175 126.966 63.0099 125.059 62.076C123.152 61.1421 118.952 57.6692 118.952 57.6692C118.952 57.6692 121.586 57.4231 122.313 56.8023C123.04 56.1816 122.369 56.0585 122.369 56.0585C125.506 56.3717 124.443 54.694 124.443 54.694C120.243 53.391 118.001 50.5332 118.001 50.5332C118.001 50.5332 119.964 50.097 120.97 49.1687C121.977 48.2347 120.132 47.9887 120.132 47.9887C120.132 47.9887 123.828 47.4909 121.698 46.1264C120.081 45.0862 117.492 43.6937 116.687 43.2742C117.57 43.5986 119.567 43.2127 119.567 43.2127C121.921 42.1557 119.567 40.6066 119.567 40.6066C116.821 39.0519 112.789 35.1428 112.789 35.1428C112.789 35.1428 114.808 36.1998 115.814 35.8866C116.821 35.5734 114.696 34.3319 114.696 34.3319C114.696 34.3319 115.758 34.6451 116.206 34.3319C116.653 34.0243 115.031 32.5927 115.031 32.5927C112.615 31.0212 109.64 26.9052 108.393 25.1379C107.146 26.9052 104.171 31.0268 101.755 32.5927C101.755 32.5927 100.133 34.0187 100.58 34.3319C101.028 34.6451 102.09 34.3319 102.09 34.3319C102.09 34.3319 99.9597 35.5734 100.972 35.8866C101.979 36.1998 103.997 35.1428 103.997 35.1428C103.997 35.1428 99.9653 39.0519 97.2194 40.6066C97.2194 40.6066 94.865 42.1613 97.2194 43.2127C97.2194 43.2127 99.2215 43.5986 100.099 43.2742C99.2942 43.6937 96.7049 45.0918 95.0887 46.1264C92.9579 47.4909 96.6545 47.9887 96.6545 47.9887C96.6545 47.9887 94.8034 48.2347 95.8157 49.1687C96.8223 50.1026 98.7853 50.5332 98.7853 50.5332C98.7853 50.5332 96.5427 53.391 92.3428 54.694C92.3428 54.694 91.2802 56.3717 94.4176 56.0585C94.4176 56.0585 93.7465 56.1816 94.4735 56.8023C95.2005 57.4231 97.8345 57.6692 97.8345 57.6692C97.8345 57.6692 93.6346 61.1477 91.7276 62.076C89.8206 63.0099 88.7021 63.3175 89.3732 64.436C90.0443 65.5545 92.902 65.493 92.902 65.493C92.902 65.493 93.5172 67.1707 95.2005 66.9806C95.2005 66.9806 89.4291 67.976 89.1774 68.6583C88.9258 69.3406 89.1774 69.7153 89.1774 69.7153C89.1774 69.7153 87.6395 70.5206 88.031 71.2029C88.3274 71.723 89.3061 71.8796 89.7591 71.9299C89.3564 71.9243 88.6238 72.0305 89.0376 73.0036C89.5969 74.3067 94.0205 75.6712 94.0205 75.6712C94.0205 75.6712 90.268 77.2259 87.578 75.6712C87.578 75.6712 86.6273 76.1074 87.2425 76.9128C87.8576 77.7181 87.578 77.9082 87.578 77.9082C87.578 77.9082 86.1799 76.8512 86.7951 78.4675C87.4102 80.0837 90.6594 81.0735 90.6594 81.0735C90.6594 81.0735 88.8083 81.3867 89.3732 82.3766C89.9324 83.372 92.2868 84.552 94.865 84.7981C97.4431 85.0442 100.916 84.1158 100.916 84.1158C100.916 84.1158 98.5616 85.3573 100.189 86.0396C101.811 86.7219 103.662 85.1728 103.662 85.1728C103.662 85.1728 103.326 86.761 104.669 86.213C106.011 85.6649 107.135 84.6135 107.135 84.6135C107.135 84.6135 107.554 86.9568 108.393 86.3975C109.232 86.9568 109.651 84.6135 109.651 84.6135C109.651 84.6135 110.77 85.6705 112.118 86.213C113.46 86.761 113.124 85.1728 113.124 85.1728C113.124 85.1728 114.975 86.7275 116.597 86.0396C118.219 85.3573 115.87 84.1158 115.87 84.1158C115.87 84.1158 119.343 85.0442 121.921 84.7981C124.499 84.552 126.848 83.372 127.413 82.3766C127.972 81.3811 126.127 81.0735 126.127 81.0735C126.127 81.0735 129.376 80.0781 129.991 78.4675C130.606 76.8512 129.208 77.9082 129.208 77.9082Z" fill="#455A64"/>
<path d="M116.581 40.7859C116.553 40.7746 116.519 40.7577 116.491 40.7465C116.525 40.7577 116.553 40.769 116.581 40.7859Z" fill="black"/>
<g opacity="0.2">
<path d="M129.208 77.9082C129.208 77.9082 128.929 77.7237 129.544 76.9128C130.159 76.1074 129.208 75.6712 129.208 75.6712C126.518 77.2259 122.766 75.6712 122.766 75.6712C122.766 75.6712 127.189 74.3067 127.749 73.0036C128.168 72.0305 127.43 71.9243 127.027 71.9299C127.48 71.8851 128.459 71.723 128.755 71.2029C129.147 70.5206 127.609 69.7153 127.609 69.7153C127.609 69.7153 127.86 69.3406 127.609 68.6583C127.357 67.976 121.586 66.9806 121.586 66.9806C123.263 67.1651 123.884 65.493 123.884 65.493C123.884 65.493 126.742 65.5545 127.413 64.436C128.084 63.3175 126.966 63.0099 125.059 62.076C123.152 61.1421 118.952 57.6692 118.952 57.6692C118.952 57.6692 121.586 57.4231 122.313 56.8023C123.04 56.1816 122.369 56.0585 122.369 56.0585C125.506 56.3717 124.443 54.694 124.443 54.694C120.243 53.391 118.001 50.5332 118.001 50.5332C118.001 50.5332 119.964 50.097 120.97 49.1687C121.977 48.2347 120.132 47.9887 120.132 47.9887C120.132 47.9887 123.828 47.4909 121.698 46.1264C120.081 45.0862 117.492 43.6937 116.687 43.2742C117.57 43.5986 119.567 43.2127 119.567 43.2127C121.921 42.1557 119.567 40.6066 119.567 40.6066C116.821 39.0519 112.789 35.1428 112.789 35.1428C112.789 35.1428 114.808 36.1998 115.814 35.8866C116.821 35.5734 114.696 34.3319 114.696 34.3319C114.696 34.3319 115.758 34.6451 116.206 34.3319C116.653 34.0243 115.031 32.5927 115.031 32.5927C112.615 31.0212 109.64 26.9052 108.393 25.1379C107.146 26.9052 104.171 31.0268 101.755 32.5927C101.755 32.5927 100.133 34.0187 100.58 34.3319C101.028 34.6451 102.09 34.3319 102.09 34.3319C102.09 34.3319 99.9597 35.5734 100.972 35.8866C101.979 36.1998 103.997 35.1428 103.997 35.1428C103.997 35.1428 99.9653 39.0519 97.2194 40.6066C97.2194 40.6066 94.865 42.1613 97.2194 43.2127C97.2194 43.2127 99.2215 43.5986 100.099 43.2742C99.2942 43.6937 96.7049 45.0918 95.0887 46.1264C92.9579 47.4909 96.6545 47.9887 96.6545 47.9887C96.6545 47.9887 94.8034 48.2347 95.8157 49.1687C96.8223 50.1026 98.7853 50.5332 98.7853 50.5332C98.7853 50.5332 96.5427 53.391 92.3428 54.694C92.3428 54.694 91.2802 56.3717 94.4176 56.0585C94.4176 56.0585 93.7465 56.1816 94.4735 56.8023C95.2005 57.4231 97.8345 57.6692 97.8345 57.6692C97.8345 57.6692 93.6346 61.1477 91.7276 62.076C89.8206 63.0099 88.7021 63.3175 89.3732 64.436C90.0443 65.5545 92.902 65.493 92.902 65.493C92.902 65.493 93.5172 67.1707 95.2005 66.9806C95.2005 66.9806 89.4291 67.976 89.1774 68.6583C88.9258 69.3406 89.1774 69.7153 89.1774 69.7153C89.1774 69.7153 87.6395 70.5206 88.031 71.2029C88.3274 71.723 89.3061 71.8796 89.7591 71.9299C89.3564 71.9243 88.6238 72.0305 89.0376 73.0036C89.5969 74.3067 94.0205 75.6712 94.0205 75.6712C94.0205 75.6712 90.268 77.2259 87.578 75.6712C87.578 75.6712 86.6273 76.1074 87.2425 76.9128C87.8576 77.7181 87.578 77.9082 87.578 77.9082C87.578 77.9082 86.1799 76.8512 86.7951 78.4675C87.4102 80.0837 90.6594 81.0735 90.6594 81.0735C90.6594 81.0735 88.8083 81.3867 89.3732 82.3766C89.9324 83.372 92.2868 84.552 94.865 84.7981C97.4431 85.0442 100.916 84.1158 100.916 84.1158C100.916 84.1158 98.5616 85.3573 100.189 86.0396C101.811 86.7219 103.662 85.1728 103.662 85.1728C103.662 85.1728 103.326 86.761 104.669 86.213C106.011 85.6649 107.135 84.6135 107.135 84.6135C107.135 84.6135 107.554 86.9568 108.393 86.3975C109.232 86.9568 109.651 84.6135 109.651 84.6135C109.651 84.6135 110.77 85.6705 112.118 86.213C113.46 86.761 113.124 85.1728 113.124 85.1728C113.124 85.1728 114.975 86.7275 116.597 86.0396C118.219 85.3573 115.87 84.1158 115.87 84.1158C115.87 84.1158 119.343 85.0442 121.921 84.7981C124.499 84.552 126.848 83.372 127.413 82.3766C127.972 81.3811 126.127 81.0735 126.127 81.0735C126.127 81.0735 129.376 80.0781 129.991 78.4675C130.606 76.8512 129.208 77.9082 129.208 77.9082Z" fill="black"/>
</g>
<path d="M24.0307 97.5266H31.5693L31.5693 71.6112H24.0307L24.0307 97.5266Z" fill="#6F4439"/>
<path d="M56.3892 71.5329C56.3892 71.5329 56.0201 71.2868 56.8366 70.2187C57.6531 69.1505 56.3892 68.5745 56.3892 68.5745C52.8268 70.6325 47.8551 68.5745 47.8551 68.5745C47.8551 68.5745 53.716 66.7625 54.4598 65.0345C55.0134 63.7426 54.0347 63.6028 53.5091 63.614C54.1074 63.5525 55.4049 63.34 55.7964 62.6521C56.3165 61.7461 54.2752 60.678 54.2752 60.678C54.2752 60.678 54.6108 60.1858 54.2752 59.2798C53.9397 58.3739 46.2948 57.0596 46.2948 57.0596C48.5206 57.3057 49.3371 55.0855 49.3371 55.0855C49.3371 55.0855 53.1232 55.1694 54.0124 53.6874C54.9016 52.2054 53.4196 51.7972 50.8974 50.5612C48.3752 49.3253 42.8051 44.7227 42.8051 44.7227C42.8051 44.7227 46.2948 44.3928 47.2567 43.5707C48.2242 42.7486 47.3294 42.5808 47.3294 42.5808C51.4846 42.9947 50.0753 40.7689 50.0753 40.7689C44.5108 39.0408 41.5412 35.2547 41.5412 35.2547C41.5412 35.2547 44.1361 34.6787 45.4727 33.4428C46.8093 32.2068 44.3598 31.8825 44.3598 31.8825C44.3598 31.8825 49.2588 31.2226 46.4402 29.4162C44.2983 28.0405 40.8645 26.1894 39.802 25.6357C40.9708 26.0663 43.6216 25.5518 43.6216 25.5518C46.7366 24.1537 43.6216 22.0957 43.6216 22.0957C39.9865 20.0377 34.6402 14.8591 34.6402 14.8591C34.6402 14.8591 37.3133 16.2572 38.6499 15.8489C39.9865 15.4351 37.1679 13.7909 37.1679 13.7909C37.1679 13.7909 38.5772 14.2048 39.17 13.7909C39.7628 13.3771 37.6097 11.4868 37.6097 11.4868C34.4109 9.40646 30.4682 3.95383 28.8184 1.6106C27.1687 3.95383 23.226 9.41205 20.0271 11.4868C20.0271 11.4868 17.874 13.3771 18.4668 13.7909C19.0596 14.2048 20.4689 13.7909 20.4689 13.7909C20.4689 13.7909 17.6503 15.4351 18.9869 15.8489C20.3235 16.2628 22.9967 14.8591 22.9967 14.8591C22.9967 14.8591 17.6503 20.0433 14.0152 22.0957C14.0152 22.0957 10.9002 24.1537 14.0152 25.5518C14.0152 25.5518 16.6661 26.0663 17.8349 25.6357C16.7667 26.1894 13.3385 28.0405 11.1966 29.4162C8.37805 31.2282 13.277 31.8825 13.277 31.8825C13.277 31.8825 10.8275 32.2124 12.1641 33.4428C13.5007 34.6787 16.0956 35.2547 16.0956 35.2547C16.0956 35.2547 13.126 39.0408 7.56156 40.7689C7.56156 40.7689 6.15226 42.9891 10.3074 42.5808C10.3074 42.5808 9.41825 42.743 10.3801 43.5707C11.3476 44.3928 14.8317 44.7227 14.8317 44.7227C14.8317 44.7227 9.26725 49.3309 6.73947 50.5612C4.21727 51.7972 2.72968 52.2054 3.62448 53.6874C4.51367 55.1694 8.29976 55.0855 8.29976 55.0855C8.29976 55.0855 9.11625 57.3057 11.342 57.0596C11.342 57.0596 3.69718 58.3739 3.36163 59.2798C3.02608 60.1858 3.36163 60.678 3.36163 60.678C3.36163 60.678 1.32039 61.7461 1.84049 62.6521C2.23755 63.34 3.5294 63.5525 4.12779 63.614C3.59651 63.6028 2.61784 63.7482 3.17708 65.0345C3.92088 66.7625 9.78175 68.5745 9.78175 68.5745C9.78175 68.5745 4.81007 70.6325 1.24769 68.5745C1.24769 68.5745 -0.016204 69.1505 0.800293 70.2187C1.61679 71.2868 1.24769 71.5329 1.24769 71.5329C1.24769 71.5329 -0.609004 70.1348 0.207493 72.2711C1.02399 74.4074 5.33017 75.7272 5.33017 75.7272C5.33017 75.7272 2.88068 76.141 3.62448 77.4553C4.36827 78.7695 7.48326 80.3354 10.9002 80.6653C14.3116 80.9953 18.9142 79.7594 18.9142 79.7594C18.9142 79.7594 15.7992 81.4035 17.9467 82.3095C20.0998 83.2155 22.5493 81.1575 22.5493 81.1575C22.5493 81.1575 22.1019 83.2602 23.8859 82.5388C25.6699 81.8174 27.1519 80.4193 27.1519 80.4193C27.1519 80.4193 27.7055 83.5231 28.8184 82.7793C29.9313 83.5231 30.485 80.4193 30.485 80.4193C30.485 80.4193 31.967 81.8174 33.751 82.5388C35.535 83.2602 35.0876 81.1575 35.0876 81.1575C35.0876 81.1575 37.537 83.2155 39.6901 82.3095C41.8432 81.4035 38.7226 79.7594 38.7226 79.7594C38.7226 79.7594 43.3252 80.9953 46.7366 80.6653C50.148 80.3354 53.2686 78.7751 54.0124 77.4553C54.7562 76.141 52.3067 75.7272 52.3067 75.7272C52.3067 75.7272 56.6129 74.413 57.4294 72.2711C58.2459 70.1348 56.3892 71.5329 56.3892 71.5329Z" fill="#455A64"/>
<path d="M39.6633 22.3422C39.6238 22.3253 39.5844 22.3084 39.5449 22.2859C39.5844 22.2972 39.6238 22.3141 39.6633 22.3422Z" fill="black"/>
<g opacity="0.1">
<path d="M34.076 13.9027L32.3087 13.2093C32.3087 13.2093 31.3301 14.6633 29.4846 13.707C27.6335 12.7507 26.6492 10.866 26.6492 10.866C26.6492 10.866 24.0543 12.5829 23.7859 11.4924C23.5174 10.4019 24.6024 9.97126 24.6024 9.97126C24.5185 10.1614 24.429 10.3963 24.5353 10.5808C24.6471 10.7766 24.9044 10.771 25.1113 10.7206C25.788 10.5529 26.4199 10.1446 26.8785 9.5686C27.3986 10.8045 28.4556 11.6546 29.5461 12.2921C30.0214 12.5717 30.5695 12.8234 31.084 12.6556C31.5985 12.4879 31.9452 11.6881 31.5594 11.2687C32.3759 12.3425 33.5894 13.0303 34.8533 13.1254C35.1217 13.1478 35.4741 13.0751 35.5244 12.7787C35.5524 12.6053 35.4573 12.4375 35.3622 12.2977C34.9763 11.7385 34.5066 11.2519 33.9753 10.8716C35.1665 11.7497 36.5702 12.2809 37.9963 12.3984L39.2546 12.5662C39.2993 12.7171 39.2825 12.8402 39.1763 12.9129C38.5835 13.3267 37.1742 12.9129 37.1742 12.9129C37.1742 12.9129 39.9928 14.5571 38.6562 14.9709C37.3196 15.3847 34.6464 13.981 34.6464 13.981C34.6464 13.981 34.7638 14.0985 34.9763 14.2942L34.076 13.9027Z" fill="black"/>
</g>
<g opacity="0.1">
<path d="M18.2882 24.9647L21.7164 23.7231C21.7164 23.7231 22.1023 25.8147 24.1995 25.7029C24.1995 25.7029 26.017 25.8595 26.1568 23.7231C26.1568 23.7231 27.9072 25.4288 31.4417 24.9255C31.4417 24.9255 32.0345 24.8472 31.8946 23.8797C31.8946 23.8797 32.8398 25.0821 34.4504 24.2265C36.061 23.3708 34.6629 21.9392 34.6629 21.9392L34.4448 21.8217C34.5958 22.1069 34.7412 22.4537 34.6126 22.7501C34.4336 23.1751 33.88 23.1471 33.4773 23.0185C32.3532 22.6606 31.2907 22.0622 30.3623 21.2681C30.614 21.5645 30.8656 21.872 31.0055 22.2523C31.1397 22.6326 31.1397 23.1024 30.8936 23.4044C30.6587 23.7064 30.2673 23.7791 29.9093 23.8014C28.1365 23.9021 26.3358 23.08 25.1334 21.6204C25.1166 22.174 25.2508 22.7165 25.2285 23.2702C25.2061 23.8238 24.9712 24.4278 24.4959 24.5956C23.931 24.7913 23.355 24.26 23.1089 23.6672C22.8573 23.0744 22.8069 22.3921 22.5385 21.8105C21.6996 22.6438 20.6874 23.2646 19.6081 23.6113C19.3005 23.712 18.9817 23.7847 18.6685 23.7343C18.3553 23.6784 18.0478 23.4659 17.9359 23.1359C17.8408 22.8507 17.9471 22.4872 18.1764 22.3418C16.8006 22.9682 13.6186 24.0811 12.9922 22.5264C12.6622 23.1975 12.7294 24.014 14.2169 24.6795C14.2169 24.6795 16.8678 25.194 18.0366 24.7633C17.8353 24.8696 17.55 25.0206 17.2089 25.2051L18.2826 24.9703L18.2882 24.9647Z" fill="black"/>
</g>
<g opacity="0.1">
<path d="M42.1729 35.0758C41.2892 34.9416 40.428 34.6116 39.6618 34.1139C39.4326 34.7962 38.6664 35.0981 38.0233 34.9807C37.3745 34.8577 36.8209 34.4215 36.2896 33.9964C35.8198 34.6843 35.0593 35.1205 34.2819 35.1541C33.5046 35.1876 32.716 34.8241 32.1959 34.181C30.0317 35.7804 27.4535 36.966 24.8698 36.6137C24.3945 36.5466 23.88 36.4068 23.578 35.9985C23.2704 35.5903 23.3151 34.8409 23.7625 34.6396C22.1855 34.9807 20.5413 35.3218 18.981 34.8856C17.4207 34.4494 16.1624 33.1464 16.498 31.1163C16.5651 31.4351 16.7105 31.9272 16.9062 32.2516C17.1019 32.5704 17.4543 32.7214 17.7898 32.8388C20.3847 33.7168 23.276 33.4763 25.7255 32.1733C25.2054 32.7493 25.5633 33.8231 26.2176 34.1978C26.8719 34.5725 27.6549 34.455 28.3763 34.3152C29.1704 34.1642 29.9646 33.9908 30.6972 33.6273C31.4298 33.2638 32.1065 32.6878 32.4756 31.8993C32.772 32.4306 33.0851 32.973 33.5381 33.3421C33.9967 33.7112 34.6398 33.8622 35.1264 33.549C35.6129 33.2359 35.7751 32.369 35.3445 31.9664C36.3903 32.6207 37.5367 33.0849 38.7167 33.3309C39.0131 33.3925 39.3654 33.4204 39.5724 33.1799C39.7793 32.9339 39.7178 32.52 39.5164 32.2628C39.4437 32.1677 39.3543 32.0894 39.2536 32.0223C40.9146 32.8276 42.7657 33.1352 44.5664 32.9003L44.5888 33.2303C43.2354 34.0244 41.5465 34.3991 41.5465 34.3991C41.5465 34.3991 41.759 34.6675 42.1729 35.0926V35.0758Z" fill="black"/>
</g>
<g opacity="0.1">
<path d="M13.3999 46.3725C15.0329 46.2718 16.6156 45.7182 18.1591 45.0974C20.8043 47.0156 24.4786 46.9933 27.1014 45.0471C29.1315 46.9597 32.3304 47.1499 34.5338 45.4833C35.7026 46.0258 36.9833 46.4508 38.2304 46.1824C39.4719 45.9083 40.6351 44.7339 40.596 43.3246C39.841 44.2306 38.7337 44.7675 37.6208 44.7675C36.5079 44.7675 35.4006 44.225 34.6512 43.3134C33.7844 44.4599 32.4086 45.1142 31.0609 45.0191C29.7131 44.9297 28.4212 44.0908 27.6886 42.8381C25.9885 44.2698 23.7683 44.9185 21.6544 44.6109C21.0504 44.5214 20.4296 44.3425 19.9711 43.9007C19.5125 43.4533 19.2664 42.6871 19.5348 42.0775C16.7666 44.2138 12.8015 44.2362 10.0165 42.1223L9.99414 42.1782C10.0445 42.3124 10.1675 42.4746 10.4136 42.6871C11.3811 43.5092 14.8652 43.8391 14.8652 43.8391C14.8652 43.8391 13.4782 44.9912 11.7725 46.2942C12.315 46.3781 12.8631 46.4061 13.4055 46.3725H13.3999Z" fill="black"/>
</g>
<g opacity="0.1">
<path d="M51.8417 53.9726C50.6058 54.2355 49.3419 54.2075 49.3419 54.2075C49.3419 54.2075 48.5254 56.4277 46.2996 56.1817C46.2996 56.1817 47.4069 56.3718 48.7994 56.657C47.1161 57.3057 45.1588 57.0876 43.66 56.0083C40.9532 58.7486 36.4122 58.9052 33.56 56.3494C30.8141 58.8269 26.508 58.8716 23.7173 56.4501C22.2018 57.8314 20.1997 58.6367 18.2535 58.3571C16.3074 58.0775 14.473 56.6123 13.8467 54.5487C16.8834 56.7129 21.184 56.3886 23.9243 53.7881C23.9634 54.4368 24.4499 54.9681 24.998 55.1974C25.5461 55.4267 26.1501 55.4099 26.7373 55.3819C29.1308 55.2589 31.6698 54.8842 33.5265 53.2065C34.7121 54.7612 36.6023 55.6168 38.4311 55.4211C40.2598 55.2309 41.9711 53.995 42.8715 52.2222C46.2381 53.9838 50.343 53.8943 53.6481 51.9929L51.8417 53.9726Z" fill="black"/>
</g>
<g opacity="0.1">
<path d="M36.8552 64.8556C36.9056 65.6218 36.4526 66.3544 35.8598 66.7571C35.267 67.1597 34.5512 67.2772 33.8577 67.2995C31.7493 67.3722 29.6298 66.6005 27.9744 65.1576C26.7161 66.7235 24.8371 67.6574 22.9468 67.6519C21.0566 67.6519 19.1775 66.7067 17.9248 65.1353C13.2216 66.4551 8.08213 65.7169 3.83188 63.1276L3.19434 63.4799C3.19434 63.6588 3.23908 63.8825 3.35652 64.151C4.10031 65.879 9.96119 67.691 9.96119 67.691C9.96119 67.691 9.36839 67.9371 8.44005 68.1719C9.45228 68.4795 10.3303 68.7312 10.8839 68.9102C12.9531 69.5757 15.3747 69.1954 16.9238 67.54C18.3554 69.2233 20.4358 70.2076 22.5218 70.1852C24.6078 70.1629 26.6714 69.1394 28.0751 67.4282C29.4285 68.9605 31.2069 70.1573 33.1363 70.23C35.0713 70.3027 37.1069 69.0108 37.627 66.9472C40.015 67.8196 42.8727 66.7347 44.282 64.425C42.0506 65.8455 39.2041 66.0077 36.8496 64.8556H36.8552Z" fill="black"/>
</g>
</svg>
